<svg xmlns="http://www.w3.org/2000/svg" id="Layer_1" viewBox="0 0 32 32"><g id="Symbols"><g id="о-нас" transform="translate(-1 -1)"><g id="info"><path id="Shape" d="M17 2C8.7 2 2 8.7 2 17s6.7 15 15 15 15-6.7 15-15S25.3 2 17 2zm0 28.8C9.4 30.8 3.2 24.6 3.2 17S9.4 3.2 17 3.2 30.8 9.4 30.8 17 24.6 30.8 17 30.8z" class="st0"/><path id="Shape_1_" d="M17 7.8c-.3 0-.6.3-.6.6V21c0 .3.3.6.6.6s.6-.3.6-.6V8.3c0-.3-.3-.5-.6-.5z" class="st0"/><path id="Shape_2_" d="M17 23.3c-.3 0-.6.3-.6.6v1.2c0 .3.3.6.6.6s.6-.3.6-.6v-1.2c0-.3-.3-.6-.6-.6z" class="st0"/><path id="Rectangle" fill="none" d="M1 1h32v32H1z"/></g></g></g></svg>
