<svg xmlns="http://www.w3.org/2000/svg" viewBox="0 0 850.5 230.19999"><path fill="#0a0a0a" d="M847.899996 58.2c-.1-1.5-.3-3-.4-4.5.1 2.8.3 5.6.4 8.4-.2 11.5-.6 22.9-1.2 34.4-.4-1.4-.9-2.9-1.3-4.3-.2-1.5-.5-3-.7-4.5.1 1.1.3 2.2.4 3.3-1.5-4.8-3.1-9.6-4.8-14.4.2-7.1.4-14.1.5-21.2-.4 6.1-.9 12.3-1.5 18.4-.4-1.1-.8-2.3-1.2-3.4.2.6.4 1.2.5 1.8-1.3-3.4-2.7-6.9-4.3-10.3 1.9 4.7 3.5 9.4 4.8 14.1-.4 4.7-.9 9.4-1.4 14.1-2.9-7.3-6-14.6-9.3-21.7 3.2 8.3 6.1 16.8 8.9 25.3-.5 4.8-1.1 9.6-1.7 14.5-1.6-4.1-3.2-8.2-4.9-12.3-1.9-19.1-4.1-38-6.6-56.8 1.4 16.3 2.5 32.7 3.4 49.2-2.2-5.1-4.6-10.1-7-15.1 2.5 6.2 4.9 12.5 7.2 18.8v.2c-.2 2.4-.5 4.7-.7 7.1-2.7-8.1-6-15.8-9.9-22.9.7-5.9 1.5-11.8 2.3-17.7-4 19.3-8 38.8-11.4 58.5-.3-1.7-.6-3.4-1-5 .3 2 .6 4 .8 6-1.6 8.9-3 17.9-4.3 26.9-.7-7.8-1.6-15.6-2.6-23.4.1-.9.1-1.8.2-2.7-.1.7-.2 1.4-.2 2.1-1.8-13.4-4.2-26.7-7.5-39.8.2 1.1.4 2.1.6 3.2.7 14.8.5 29.6-.4 44.2-1.1 3.5-2.1 7-3 10.6-.1-1-.2-2.1-.3-3.1v-.2c-1.4-14.8-3-29.5-5.1-44.1.7-3.6 1.3-7.2 2.1-10.8l-2.4 8.4c-1.4-9.4-2.9-18.8-4.8-28 1.5 10.7 2.7 21.6 3.6 32.4-.8 2.9-1.5 5.8-2.2 8.8v-.2.2c-.8 3.2-1.6 6.4-2.3 9.6-3.4-15.2-7.7-30-12.9-44.1.9-12.5 2-25.1 3.4-37.5-2 10.9-3.7 21.8-5.2 32.7-2.5-6.4-5.1-12.6-8-18.6 2.8 7 5.4 14.2 7.6 21.5-.3 2.5-.7 5-1 7.5-3.7-11.9-7.8-23.7-12.2-35.3 4.2 14.5 8 29.3 11 44.1-.3 2.2-.5 4.5-.8 6.7-.7-1.1-1.3-2.3-2-3.4.7 1.3 1.3 2.6 1.9 4-.2 1.9-.4 3.7-.6 5.6-.5-3.5-1-6.9-1.6-10.4.5 4.5.9 9 1.2 13.5-.3 3.2-.6 6.3-.9 9.5-.9-4.5-1.8-9-2.7-13.4.1-.6.2-1.2.2-1.8-.1.5-.2 1-.3 1.6 0-.1 0-.2-.1-.3 0 .1 0 .2.1.4-.9 4.9-2 9.7-3.3 14.6-1.3-2.9-2.7-5.7-4.3-8.5-2.1-33.8-5.3-67.3-9.8-100.4 2 23.5 3.3 47.3 4.1 71-1.6 4.1-3.1 8.3-4.4 12.6-.2-5.1-.4-10.2-.8-15.3.1 6 .1 12 0 17.9-.2.8-.5 1.6-.7 2.4.1-1.2.2-2.4.4-3.6-.3 1.7-.5 3.3-.8 5-1.7 5.9-3.1 11.9-4.3 17.9-1.1-2.2-2.2-4.4-3.4-6.5-.6-3.8-1.2-7.6-1.7-11.4.3 3.4.7 6.8 1.1 10.2 0-.1-.1-.1-.1-.2 0 .1.1.2.1.3.7 6 1.4 12 2.2 17.9-1.4 8.8-2.4 17.7-3 26.7-.3-.8-.5-1.6-.8-2.4.3 1.5.5 2.9.7 4.4-.1 2.5-.3 5-.4 7.5l-2.7-8.7c.9 3.7 1.8 7.5 2.6 11.2-.1 1.9-.1 3.9-.1 5.8-.1 2.1-.1 4.3 0 6.4-1.7-10.3-3-20.6-3.7-31 1-4 2-8.1 3.1-12.1-1.1 3.2-2.2 6.5-3.2 9.8-.3-5.7-.4-11.5-.3-17.3-.7 6.1-1 12.1-1.2 18.2-1-10.2-1.9-20.4-2.5-30.7 0 12.8.6 25.5 1.3 38.2l-1.8 6c.2-3.4.3-6.8.5-10.2-.6 4.4-1.1 8.7-1.7 13.1-.2-2.1-.5-4.1-.7-6.2.1 2.8.3 5.7.4 8.6-.1.5-.3 1-.4 1.5-1-11.9-2-23.8-3.1-35.6.2 4.6.3 9.2.5 13.8-.2-1.7-.5-3.5-.8-5.2.4 4.5.8 9 1 13.5.1 5.1.3 10.3.4 15.4v.8c-.9-3.2-1.8-6.4-2.8-9.5-.3-5.5-.7-11.1-1.1-16.6 1-24.2 2.5-48.3 5.9-72.1-3.3 16.9-5.7 34.1-7.6 51.5-.2-2.6-.5-5.1-.7-7.7.2 3.3.3 6.7.5 10-.7 6.6-1.4 13.1-2 19.7-1.1-3.1-2.3-6.1-3.5-9.1 0-.6-.1-1.2-.1-1.8-.1-8.1-.2-16.2-.5-24.2v-1c2.2-4.7 4.8-9.3 7.8-13.7-2.8 3.6-5.4 7.4-7.7 11.3.1-4.2.2-8.5.4-12.7-.3 3-.6 6-.8 9-.2-3.4-.4-6.8-.7-10.2.2 5.2.2 10.4.2 15.6-2.1 3.6-4 7.4-5.7 11.2-1.2-2.7-2.5-5.3-3.8-8-2.4-11-4.1-21.9-4.6-33-.4 11.5.4 23 2 34.5v4.7c-1.4-6.4-2.7-12.8-3.9-19.3.5 4.1 1.1 8.2 1.7 12.3-.7-3.3-1.4-6.6-2-10 1.1 8.6 2.5 17.2 4 25.7-.1 2.3-.2 4.6-.3 7-.8-3.9-1.7-7.7-2.6-11.6l-.9-5.7c-1-17.1-2.9-34.1-5.8-50.7 1-18.4 4.7-36.8 12.7-55.1-17.1 32.9-20.1 66.3-19.3 99.8-.5 1.3-.9 2.7-1.4 4v-.3c.2-3.2.5-6.4.8-9.6-.4 2.5-.7 4.9-1 7.4-.6-5.6-1.3-11.3-2.2-16.9.7 7.2 1.2 14.5 1.6 21.7 0 .2 0 .4-.1.6-.6 2.2-1.2 4.3-1.8 6.5-.4-4.5-.5-9-.5-13.6-.5 6-.6 12.1-.5 18.1-.9 4-1.6 8-2.3 12-.1-1-.2-2-.4-3 .9-20.8 2.7-41.6 5-62.1-2.7 15.2-5.1 30.5-7.2 46-.4-2.3-.7-4.6-1.1-6.8.3 2.8.6 5.7.9 8.5-.1.9-.2 1.9-.4 2.8-.4-3.9-.9-7.7-1.4-11.6.3 5.1.6 10.3.9 15.4-.3 2.8-.7 5.6-1 8.5-.7-6.5-1.5-13-2.4-19.4.3 5 .6 10.1.9 15.1-.1-.7-.2-1.4-.4-2.1-.6-4.2-1.3-8.3-1.9-12.5l1.8-14.7c-.8 3.8-1.5 7.5-2.3 11.3-.9-5.6-1.7-11.1-2.6-16.7l1.2 10.8c-.6-3.6-1.3-7.2-1.9-10.8.1-7.8.1-15.7-.2-23.6-.1 6.1-.4 12.1-.8 18.1-1.3-7-2.6-14-3.9-21.1 1.1 10.5 2.1 21 3.1 31.6-.8 9.3-1.8 18.6-3 27.8-.2-1-.3-1.9-.5-2.9.1 1.2.3 2.4.4 3.6-.1 1.1-.3 2.3-.4 3.4-.9-4.6-1.8-9.1-2.5-13.7.2-1.5.5-3.1.7-4.6l-.9 3.9c-1.4-8.4-2.4-16.7-3-25.1-.2 10.6.4 21.2 1.5 31.8-.5 2.4-1 4.9-1.5 7.3-.2-2.6-.5-5.2-.7-7.8-.1-13.3.3-26.5 1.2-39.8-.6 4.2-1.1 8.4-1.5 12.7 0-.6 0-1.2-.1-1.8 0 1.1-.1 2.3-.1 3.4-.4 3.5-.7 7.1-1 10.6-.3-2.2-.5-4.4-.8-6.7.2 3.2.4 6.3.5 9.5-.4 5.4-.8 10.9-1.1 16.3-.6 5.2-1.3 10.5-2 15.7-.8-5.7-1.4-11.5-1.4-17.3-1 8.8-.8 17.5 0 26.2-.3 1.9-.6 3.7-.9 5.6-.2-1.9-.4-3.7-.7-5.6.2-7 .5-13.9.9-20.8-.6 5.2-1.1 10.5-1.5 15.7v-.1.1c-.2 2.7-.5 5.5-.7 8.2-.7-3-1.4-6-2-9-.3-2.7-.6-5.3-.9-8 2.7-18.5 4.6-37 2.3-55.6 1 14.9-.9 29.8-3.7 44.5-.3-2-.5-4-.8-6 .2 2.5.3 5.1.5 7.6-.2 1.1-.4 2.3-.7 3.4l-.3-1.2c-.3-3.5-.5-7-.6-10.6.3-1.9.7-3.9 1-5.8-.4 1.4-.7 2.7-1.1 4.1-.1-2.2-.2-4.3-.2-6.5-.2 3-.3 5.9-.4 8.9l-.3 1.2c-.3-5.2-.6-10.5-.7-15.7-.1 4.2-.2 8.3-.2 12.5-.5-2.4-.9-4.8-1.3-7.2 0-1.7-.1-3.5-.2-5.2 0 1.2-.1 2.5-.1 3.7-4.5-26.1-5.6-52.3 4-78.5-13.1 31.7-10.3 63.8-5.1 95.9-.9 8.6-2.1 17-3.6 25.5 0 .1-.1.3-.1.4 0-.2-.1-.5-.1-.7-.3-4.9-.6-9.8-1-14.8 0-1.8 0-3.6.1-5.5-.1.8-.2 1.6-.3 2.5-.2-2.1-.4-4.1-.6-6.2 0-9 .1-17.9.5-26.9-.6 5.3-1.1 10.5-1.5 15.8 0-4.9-.1-9.9 0-14.8-.1 1.6-.2 3.1-.2 4.7-.1-6.9-.4-13.8-1.2-20.8.4 7.1.4 14.3.1 21.4v-.1c-.2-4.2-.5-8.5-.8-12.7 1.1-23.7 3.4-47.3 7.7-70.7-4 15.1-7.3 30.4-9.9 45.7-.1-1.2-.3-2.5-.4-3.7.1 1.5.2 3.1.2 4.6-1.7 10.1-3.1 20.3-4.4 30.5-.8-5.8-1.6-11.6-2.6-17.3.8 7.5 1.5 15.1 2 22.6-1.2 11.1-2.3 22.2-3.1 33.4 0 .6-.1 1.2-.1 1.8-1.3-8.9-2.7-17.8-4.3-26.6 1 7.9 1.9 15.9 2.6 23.9-.3-1-.6-1.9-.8-2.9.4 1.6.7 3.1 1 4.7.1 1 .2 1.9.2 2.9-3.1-17.3-6.5-34.5-9.9-51.6.4 2.9.8 5.9 1.2 8.8.1 1.3.1 2.6.1 3.9-.3 1.4-.6 2.7-.9 4.1l-.9-4.5c-.2-10.6-.1-21.3.5-31.9-.5 4-1 8.1-1.4 12.1-.5-8.5-1.1-16.9-1.9-25.4.6 15.6.6 31.2.2 46.8-.4 5.9-.6 11.8-.8 17.8-1.8-7-3.9-14-6.2-20.9 2.5 9.9 4.5 20 6 30.1v.1c-.2 1-.4 2.1-.5 3.1-.1-1.7-.2-3.5-.3-5.2-.2 3.3-.4 6.6-.5 9.9-.1.5-.2 1.1-.3 1.6-.3-2.8-.7-5.6-1-8.4.3 3.4.5 6.7.8 10.1-.3 1.6-.5 3.3-.8 4.9-.4-3.1-.9-6.2-1.4-9.2.4 3.9.8 7.8 1.1 11.7-.1 1-.3 2-.4 3-.7-5.7-1.5-11.4-2.5-17v-2.8c-.1.7-.1 1.4-.2 2.1-.1-.3-.1-.6-.2-.9 0 .4.1.8.1 1.3-.4 4.6-.8 9.1-1.3 13.7-.1-.6-.2-1.2-.3-1.7-.6-23-1-46-1.3-69.1-1.1 24.9-2.2 50.1-2.9 75.3-.1.2-.1.4-.2.6-1.5-5.7-3.1-11.4-4.5-17.2.2-5.5.3-10.9.2-16.4 1.1-22.4 3.9-44.8 9.3-66.9-5.9 16.4-10.3 32.9-13.7 49.6v-2.8c-.1 1.4-.1 2.8-.2 4.1-.4 1.8-.7 3.5-1 5.3-.2-1.1-.3-2.2-.4-3.3.7-4.4 1.3-8.8 1.9-13.2-.7 3.7-1.4 7.3-2.2 11-.1-1.3-.3-2.7-.4-4 .9-11.7.5-23.4-1.6-35 1.6-7.9 4-15.7 7.5-23.5-3.5 6.9-6.1 13.8-8.1 20.8-.5-2.4-1.1-4.8-1.7-7.1.6 2.7 1.1 5.4 1.4 8.1-2.3 8.4-3.6 16.9-4.3 25.4-.2-2.6-.5-5.1-.7-7.7v6.5c-2.9-12.9-6.1-25.7-9.7-38.4 4.8 24.1 8.1 48.4 10.3 72.8-.1.6-.3 1.3-.4 1.9-.1-2.9-.4-5.8-.8-8.7.3 4 .3 8 .1 12.1l-1.8 7.5c-2.2-10.9-4.3-21.9-5.9-32.8.1-18.4-.7-36.7-2.8-55 1.5 26.5.4 52.9-2.6 78.9-.6-3.9-1.2-7.8-1.6-11.8.3 4.8.8 9.6 1.3 14.4-.1.7-.2 1.4-.2 2-.3-3.3-.7-6.5-1-9.8-.2-7.4-.2-14.8-.1-22.3-.3 4.4-.6 8.9-.8 13.3-.3-2.8-.6-5.5-.9-8.3 0-2.1 0-4.2.1-6.2-.1 1.3-.2 2.7-.3 4 0-.4-.1-.7-.1-1.1l-.9-10.8c-.3-15.8.5-31.5 3.6-47.3-2.6 9.4-4.4 18.9-5.6 28.3-.4-2.8-.7-5.7-1.1-8.5.3 3.5.5 7 .7 10.5-2.4-17.8-5.3-35.6-9.1-53.1 3.9 25 5.9 50.3 7.4 75.7v.2c-.1-.3-.1-.6-.2-.9.1.5.1.9.1 1.4-.3 6.2-.3 12.3-.3 18.5-.3 5.8-.8 11.6-1.4 17.4-.3-1.3-.7-2.7-1.1-4-1.5-14.9-4-29.5-8.2-43.4 2.6 11.1 4.2 22.4 5.1 33.9 0-.1 0-.1-.1-.2 0 .1 0 .1.1.2.3 4.2.6 8.5.7 12.8-3.3-27.5-7.2-55-13.9-81.8 3.9 21.8 5.9 43.8 7.4 65.9-.6 2.3-1.2 4.6-1.7 6.9-.2-9.9-.5-19.7-1.2-29.6-.2 16.1-1.3 32.2-2.6 48.3-.1.8-.3 1.6-.4 2.3l-.9-2.7c-1.4-12.3-3.9-24.5-7.4-35.9.2-4.6.5-9.1.9-13.7-.6 3.7-1.2 7.4-1.7 11.1-1.2-3.8-2.6-7.5-4-11.1-.5-5.8-1.1-11.7-1.8-17.5-.1-5.5 0-11 .4-16.5-.5 3.3-.9 6.6-1.2 9.9-.8-6-1.8-12-2.9-18 1.1 8.5 1.8 17 2.3 25.5-.2 2.9-.3 5.9-.3 8.8-1.1-2.2-2.2-4.5-3.4-6.6 1.2 2.6 2.4 5.2 3.4 7.8-.1 5.1.1 10.3.3 15.4-.5-2.6-.9-5.3-1.4-7.9.6 4.6 1.2 9.3 1.8 13.9.2 2.5.4 4.9.6 7.4 0 5.6-.2 11.2-.3 16.7-.1-.8-.3-1.6-.4-2.5.1 1.2.3 2.5.4 3.7-.1 2.2-.1 4.5-.2 6.7-1.6-10.1-3.2-20.3-4.3-30.4.8 13.3 2.4 26.6 4 39.8 0 1-.1 2-.1 2.9-.1-.4-.2-.9-.3-1.3.1-.7.2-1.4.2-2.1-.1.5-.2 1.1-.4 1.6-.9-4.2-1.9-8.3-3-12.4-.7-3.4-1.4-6.9-2.3-10.3.1-1.2.3-2.4.5-3.6-.2 1-.4 2-.6 3.1-.2-.8-.4-1.6-.6-2.3.2 1 .3 1.9.5 2.9 0 .2-.1.5-.1.7-.5-1.6-1-3.3-1.5-4.9-1-13.6-2.6-27.2-5.2-40.7v-.3c.2-2 .4-3.9.7-5.9-.3 1.5-.6 3.1-.8 4.6 0-.2 0-.4-.1-.7v1.2c-.3-1.6-.6-3.3-1-4.9.3 2 .5 4.1.8 6.1-1.9 12.1-2.2 24.3-1.7 36.4-.3 3.4-.7 6.9-1.1 10.3-.9-4.5-1.9-9-3.1-13.4-.4-3.3-.8-6.5-1.2-9.8 2.5-19.9 5.6-39.8 8.9-59.5-3.8 14.7-7.6 29.5-11.2 44.5-1.2-6.6-2.5-13.1-4.1-19.5.5-3.2 1.1-6.5 1.7-9.7l-2.1 8.1c-1-3.9-2-7.7-3.1-11.5 1 4.4 1.9 8.8 2.7 13.2-2.2 9.1-4.1 18.4-5.5 27.7-.1-3.6-.2-7.2 0-10.8 1.2-5 2.4-10 3.7-15-1.7 5.1-3.4 10.3-5 15.5-.2-3.2-.4-6.3-.5-9.5-.2 4.1-.3 8.1-.3 12.1-.8 2.6-1.5 5.2-2.3 7.7-1.4-7.3-3.1-14.6-4.9-21.8 1.6 8.5 2.8 17.1 3.8 25.7-1.6 5.9-3.2 11.9-4.6 17.9-.6-11.8-1.3-23.7-1.8-35.5 2.6-19.5 6-38.7 10-57.7-3.9 14.2-7.4 28.6-10.6 43.3 0-.9-.1-1.9-.1-2.8V67c-2.5 11.9-4.8 23.8-6.7 36-.5-1.7-1.1-3.5-1.7-5.2-1.8-14.3-2.5-28.6-1-43-1.8 11.9-2.1 23.8-1.5 35.8-.5-1.3-1-2.7-1.5-4 .5 1.8 1.1 3.7 1.6 5.6.4 7.8 1.2 15.6 2.2 23.5-.9 6.5-1.8 13.1-2.5 19.7-.3-.6-.5-1.2-.8-1.9.2 1 .5 2 .7 3.1-.9 8.1-1.6 16.2-2.2 24.3-.8-3.6-1.5-7.3-2.4-10.9-.8-18.6-2.6-37.2-6.6-55.5 2 13.4 2.7 26.8 2.9 40.2-1-3.9-2.1-7.8-3.2-11.7-.5-6.8-.8-13.6-.8-20.3-.3 5.5-.4 11-.4 16.5l-.6-1.8c-.3-10.3-.2-20.7.4-31 .2-.7.5-1.4.7-2.2-.2.5-.5 1.1-.7 1.6.2-3.2.5-6.4.8-9.6-.8 4.2-1.5 8.3-2 12.5-.2.5-.4 1.1-.6 1.6-.3-3.1-.6-6.3-1.1-9.4.3 3.6.5 7.1.6 10.7-1.2 3.1-2.4 6.1-3.6 9.2-2-5.6-4.2-11.1-6.5-16.6 2.1 6.3 4 12.5 5.7 18.9-3.5 9.5-6.5 19.2-9.1 28.9-.9-14.8-2.3-29.6-4.3-44.2 1.3 16.4 1.8 32.7 1.7 49.1-1.4-4.7-2.9-9.4-4.6-13.9-.4-2.7-.9-5.3-1.3-8 1-1.7 2.1-3.3 3.2-5-1.1 1.4-2.2 2.9-3.3 4.3-.9-5.3-1.8-10.5-2.8-15.8 1-3.9 2.1-7.9 3.2-11.8-1.3 3.2-2.5 6.5-3.6 9.8-5.2-28.4-11.4-56.3-17.8-83.9 3.7 25.7 7.3 51.7 10 77.7-.2 3.1-.4 6.3-.5 9.4-1-4.6-2.1-9.1-3.3-13.7.1.7.2 1.4.4 2.1-.1-.5-.2-1-.3-1.4 1.2 6.5 2.2 13 3.1 19.6 0 5.8.2 11.6.5 17.5-.3 1.1-.5 2.3-.8 3.4-.2-2.6-.5-5.1-.7-7.6.1 2.9.2 5.7.3 8.6-4.6-23.2-10.1-46.1-16-68.7l.9-4.5c-.4 1.3-.7 2.6-1.1 3.9-1.4-5.3-2.7-10.5-4.1-15.8 1.1 6.4 2.1 12.9 3.2 19.4-.4 1.6-.9 3.2-1.3 4.8-.3-4-.8-8-1.4-12.1.5 4.7.8 9.5.9 14.2-4.2 15-8.5 30.1-12.5 45.3l-.6-14.7c0 5.3-.1 10.6-.1 15.9v-.3 1.7c-.3 1.3-.7 2.6-1 4-.5-4.4-1-8.7-1.7-13 .2-.5.4-.9.6-1.4-.2.4-.4.8-.7 1.2-.4-2.8-.9-5.6-1.4-8.4.5-3.8 1.1-7.6 1.6-11.4 3.9-10 8.4-19.9 13.7-29.3-4.6 6.8-8.7 13.9-12.5 21.2 3.7-24.8 8-49.5 12-74-5.9 26.2-12.1 52.7-17.6 79.5-1.2-5.3-2.6-10.7-4.1-15.9 1.4 6.7 2.5 13.4 3.3 20-.5 2.5-1 4.9-1.5 7.4-1.8 4.3-3.5 8.6-5.1 13-.7-20.4 1-40.7 8.7-60.7-9.2 20.2-12.5 41.1-13.3 62.2-.4-1.8-.9-3.5-1.3-5.3 1.4-20.5 3.4-40.9 7-61-4.1 16.7-7.1 33.6-9.6 50.6-.6-2.5-1.3-5-2-7.5-.6-8.5-1.1-16.9-1.4-25.3 0 3-.1 6-.1 9-.2-3.4-.3-6.7-.5-10.1-.1 6.1-.1 12.2-.1 18.3-.9-3.3-1.8-6.6-2.7-9.8.9 5.3 1.8 10.6 2.7 16 0 12.9.2 25.9.3 38.8-.3 2.3-.6 4.7-.8 7-1.2-6.5-2.6-13-4.2-19.5 0-.3 0-.6-.1-.9.3-.8.6-1.7 1-2.5-.4.7-.7 1.3-1 2-.8-13.9-.9-27.8 0-41.8-1.1 8.5-1.8 17.1-2.3 25.7 0-1.8-.1-3.7-.1-5.5-.7 9.6-1 19.3-1.2 29-2.7 5.8-5 11.6-7 17.4-.1-.4-.3-.8-.4-1.2-1.9-9.2-4-18.3-6.6-27.1-.3-4.2-.8-8.3-1.6-12.5.4 3.2.7 6.5.8 9.7-3.9-12.8-8.6-25.2-14.3-36.6-.3-10.7-.6-21.4-.8-32.1-.3 9.8-.5 19.5-.6 29.3-2.4-4.5-4.9-9-7.7-13.2 2.8 5 5.3 10.2 7.6 15.5-.4 19.8-.7 39.7-1.1 59.5-1.2-8.8-1.8-17.7-1.5-26.5-1 8.2-1.1 16.4-.8 24.7-.1-1.1-.3-2.2-.4-3.3.2 2.1.3 4.3.4 6.4-.2-.9-.4-1.9-.5-2.8.3 2 .5 4.1.8 6.2.5 8.4 1 16.8 1.3 25.2 0 .6 0 1.2-.1 1.8-.5-2.2-1-4.5-1.5-6.7-1.6-14.2-3.5-28.3-5.6-42.3-.3-1.9-.5-3.9-.8-5.8 2.6-5.9 5.7-11.6 9.3-17.1-3.6 4.6-6.8 9.5-9.7 14.6-.3-2.3-.7-4.5-1.1-6.8.1.8.2 1.6.2 2.4-1.2-6.9-2.5-13.8-3.8-20.7 1.3 9.2 2.4 18.4 3.3 27.6-.9 1.7-1.8 3.4-2.6 5.1-.4-5.8-1-11.6-1.7-17.4.3 6.7.5 13.4.5 20.2-.5 1.2-1.1 2.5-1.6 3.7-1-5.2-2.1-10.3-3.5-15.5-.3-11.2-.9-22.3-1.7-33.4.4-4.8 1-9.7 2-14.6-.9 3.6-1.6 7.3-2.2 10.9-.3-3.7-.6-7.3-1-11 .2 5 .3 10 .4 14.9-.9 7-1.2 14-1.1 21-1.1-3.2-2.3-6.4-3.5-9.6.1-.6.1-1.1.2-1.7l-.3 1.5c-3.7-9-8.2-18-13.8-26.9 0-.7 0-1.4.1-2.1-.1.6-.1 1.3-.2 1.9-.1-.1-.1-.2-.2-.3.1.1.1.3.2.4-2 21.5-2 43.3-1.6 65-1-3.9-2-7.8-3.1-11.7-1.2-11.2-2.6-22.3-4.3-33.4 1.1-6.4 2.7-12.8 5-19.1-2.3 5.5-4 10.9-5.4 16.5-2.6-16.7-6-33.3-10.2-49.7 3.9 22.1 6.1 44.4 7.3 66.7-1.7 15.5-1 31.2.4 46.9-1-4.7-2-9.4-3.1-14-.1-2.5-.2-4.9-.2-7.4-.4 4.7-.7 9.4-1 14.1-.4-1.7-.8-3.4-1.1-5.1.1-1.8.2-3.7.4-5.5-.2 1.5-.4 2.9-.6 4.4-.4-2.1-.8-4.1-1.2-6.2-.7-19.8-2.1-39.5-4.4-59.1.7 11.7 1.1 23.3 1.2 35-.1 2.5-.1 5.1 0 7.6 0 3.4 0 6.7-.1 10.1l-.6 1.8c-1.2-6.6-2.4-13.2-3.7-19.8.6-5.9 1.1-11.7 1.4-17.6-.7 6.7-1.6 13.4-2.7 20 0-3.3.1-6.5.3-9.8-.5 4.7-.8 9.3-.9 14-.5 2.8-.9 5.6-1.5 8.4-.4-5.3-.7-10.5-.8-15.8-.3 7-.3 14.1-.2 21.1-.2.9-.3 1.7-.5 2.5-.8-10.9-1.9-21.8-3.4-32.7.5 6.8.8 13.6 1 20.5-1.5-11.4-3.5-22.5-6.2-33.4 3.8 19.3 5.5 39.4 5.9 59.5-.1.3-.1.6-.2.8-.4-2.1-.9-4.2-1.3-6.3-.5-7.6-.9-15.3-1.3-23-.1 5.5-.1 11-.1 16.5-.4-1.7-.7-3.4-1.1-5.1.4 2.4.8 4.7 1.1 7.1v15.3c-.7-10.8-1.3-21.6-1.8-32.4-.1 10.9-.1 21.8-.1 32.7-.3-1.6-.7-3.2-1-4.8.2-1.4.3-2.9.5-4.3-.2 1.2-.4 2.4-.7 3.6 0-.2-.1-.3-.1-.5-1.1-13.5-2.6-26.9-4.2-40.3 0-2.6.1-5.2.2-7.8-.2 1.8-.4 3.7-.5 5.5-1.8-14.5-3.9-28.9-6.1-43.2 3.2 32.5 5.4 65.6 5.7 98.4-1-3.5-2.1-7-3.4-10.4 1.4 4.9 2.5 9.8 3.4 14.7v12.7c-1.4-5.2-2.9-10.4-4.2-15.6.2-10.5-.1-21-1.3-31.5.3 9.1-.1 18.1-.8 27-.2.8-.4 1.6-.5 2.4-1.3-12.4-2.8-24.7-4.7-37 2-15.1 3.5-30.2 3.8-45.4-.9 12.9-2.7 25.7-4.9 38.4-1.4-9.1-2.9-18.1-4.5-27.1.7 6.1 1.3 12.2 1.9 18.3.1 7.1.2 14.3.4 21.4l-1.8 9.6c-1.1-3.9-2.4-7.8-3.8-11.7-.1-1.2-.1-2.5-.2-3.7v3c-.9-2.4-1.9-4.8-2.9-7.1 1.1 3.1 2 6.1 2.9 9.2-.1 4.2-.4 8.5-.8 12.7v-2.9c-.1 1.2-.2 2.4-.3 3.5-.4 1.2-.8 2.3-1.2 3.5-.4-2.9-.7-5.8-1.1-8.7.3 3.3.5 6.6.7 9.9-.4 1.1-.7 2.3-1 3.4-.4-5-.9-9.9-1.3-14.9 4.4-28.6 5.4-57.1-7.4-85.3 13.3 33.2 7.8 66.2-.1 99.3-.6-4.2-1.3-8.3-1.9-12.5.2-19.3-.2-38.7-2.4-57.9.7 13.7.4 27.4-.5 41-.4-2-.7-4.1-1.1-6.1.3 2.8.6 5.7 1 8.5-.2 3.3-.4 6.7-.7 10-.4-3.3-.8-6.6-1.1-9.8.2 4.3.5 8.5.8 12.8-.1 1.1-.2 2.3-.3 3.4-.1-1.4-.3-2.8-.4-4.3 0 2.5.1 5 .2 7.4v.5c-.2-2.4-.3-4.7-.5-7.1.1 3.5.2 7.1.2 10.6l-.9 9.6c-.6-4.1-1.1-8.2-1.6-12.3.3 5.2.8 10.3 1.3 15.5-.5 5.1-1 10.1-1.5 15.2-.1-.3-.2-.7-.3-1-.1-6.2-.4-12.4-.8-18.5-.1 4.7-.2 9.5-.5 14.2-.3-1-.6-2.1-.9-3.1-.1-1-.2-2-.3-3.1 0 .8.1 1.6.1 2.4-.1-.4-.3-.9-.4-1.3-.1-1.5-.3-3-.4-4.5 0-2.9 0-5.8-.1-8.6.8-2.7 1.7-5.5 2.7-8.2l-2.7 6c0-2.6-.1-5.2-.2-7.9.8-36.9 1.7-74-1.8-110.6 1.4 35.9-1.5 71.7-4.3 107.5-1.4-6.6-2.5-13.3-3.2-20.1.4 8.1 1.4 16.2 2.8 24.2-.3 3.8-.6 7.6-.9 11.5-.8-4.6-1.5-9.3-2.2-13.9.5 6.3 1.1 12.6 1.8 18.9 0 .6-.1 1.1-.1 1.7-1.2-4.5-2.399996-9-3.599996-13.5-.2-1.5-.4-2.9-.6-4.4.1 1 .2 2 .2 3-1.1-4-2.3-8-3.5-12 1.4 5.9 2.7 11.8 3.9 17.7.3 3.8.7 7.6 1.1 11.4-.5-3.9-.9-7.9-1.2-11.8.2 8.9.9 17.8 1.799996 26.7C152.2 158.2 150.9 164 149.8 169.8c0-.2-.1-.4-.1-.6 0-20.6-1.5-41.2-2-61.9 1.1-4.9 2.3-9.7 3.6-14.5-1.2 3.7-2.5 7.4-3.6 11.1-.1-7.3-.2-14.6.1-21.8-.7 8.5-1.1 17.1-1.3 25.7-1.5 5-3 10-4.4 15.1-1.2-10-2.9-19.9-5.3-29.7l-.3-7.5c1.8-10.8 3.8-21.5 6.1-32-2.2 8.2-4.3 16.4-6.3 24.8-.5-14-1.1-28-1.4-42.1-.4 12.4-.8 24.8-1.1 37.3l-.6-2.7c-.4-12.5-.9-25-1.2-37.6-.6 19.2-1 38.5-1.5 57.8-1.6-6.5-4-12.9-7.5-19.3 4.3 8.9 6.5 17.9 7.3 26.8-.1 2.5-.1 5-.2 7.6-.2.9-.4 1.9-.6 2.8-.5-5.1-1.2-10.1-2.1-15.2.6 5.5 1 11 1.2 16.5-1.3-5.5-2.6-10.9-3.9-16.4 1.2 6.8 2.5 13.6 3.7 20.5-.9 4.6-1.7 9.1-2.5 13.7-.4-7.1-1-14.3-1.8-21.4.4 8.1.4 16.2.3 24.3-5.5-28.5-10-57-4.5-85.7-3.6 12.9-5.1 25.9-5.4 38.9-2.4-28.3-5.7-56.4-10.2-84.3 3.9 38.5 5.5 77.4 5.7 116.2-1.7 4.2-3.3 8.4-4.7 12.6-.1-.3-.2-.6-.2-.8-.3-3.8-.6-7.6-.9-11.3.1-3.9.1-7.7.1-11.6 1.4-3 2.8-6 4.3-9-1.5 2.6-2.9 5.2-4.3 7.9 0-11.9-.4-23.7-1.3-35.6.2 10.3 0 20.5-.5 30.6-2.4-22.5-5.5-44.8-9.5-67 2.5 21.8 4.1 43.7 5 65.7l-.9-4.8c.3 2.4.6 4.7 1 7.1.2 5.2.3 10.4.4 15.6-1.2 2.4-2.3 4.9-3.4 7.3-.6-4.8-1.4-9.6-2.3-14.4-.2-5.7-.5-11.4-1.1-17.2.1 4.1.1 8.1 0 12.2-.5-2.3-1.1-4.7-1.7-7 .6 3.6 1.2 7.2 1.6 10.8-.1 5.5-.4 11-.8 16.5-2.2-21.2-5.1-42.3-9.1-63.1 2.3 18.8 3.7 37.7 4.4 56.6-.8-2.5-1.6-4.9-2.5-7.3.5-2.8 1-5.5 1.6-8.2-.7 2.4-1.3 4.8-2 7.3-3.6-9.7-7.7-19-12.5-27.7-.1-21.8 2.3-43.6 10.9-65.2C72.4 34.9 68 54 65.8 73.2c-.4-.6-.7-1.2-1.1-1.8.4.7.7 1.4 1.1 2.1-2 17.9-2 35.9-1.8 53.9l1.2 3.6-1.2-3.6c-2.8-8.7-5.4-17.5-7.5-26.2 2.4-11.7 4.8-23.3 7.2-34.9-2.8 9.8-5.6 19.7-8.4 29.6-3.7-17.2-5.4-34.6-3.6-52-3.8 20.5-2.7 40.9.7 61.3-.6 1.2-1.1 2.3-1.6 3.5v-1.8c-.1.7-.1 1.4-.2 2.1-2 4.4-3.7 9-5.1 13.7 0-2.5-.1-5-.2-7.5 1.3-4.7 2.8-9.3 4.6-13.9-1.8 3.7-3.3 7.5-4.7 11.4-.1-3.2-.3-6.3-.5-9.5 0 3.6 0 7.3-.1 10.9-.3.9-.6 1.8-.9 2.8-1.1-4.1-2.2-8.3-3.3-12.4 4.1-28.2 8.9-56.3 13.5-84.3-5.1 22.6-10.4 45.5-15.4 68.6 0-.4-.1-.7-.1-1.1.7-7.8 1.1-15.6 1.1-23.4-.3 5.9-.9 11.8-1.6 17.7-.1-1-.2-1.9-.2-2.9 0 1.4.1 2.9.1 4.3-.3 2.6-.7 5.3-1.1 7.9-.9-3.4-1.9-6.7-2.8-10 .9 3.9 1.7 7.9 2.6 11.8-1.4 9.3-3.1 18.5-4.9 27.7 0-1-.1-1.9-.2-2.9v3.6c-.4 1.8-.7 3.6-1.1 5.4-1.4-4.6-2.9-9.2-4.3-13.8 0-6 0-11.9-.1-17.9-.1 5.1-.4 10.3-.7 15.4-.9-2.7-1.7-5.3-2.6-8 .8 3.3 1.7 6.6 2.5 9.9-.3 5.3-.6 10.6-1 15.9-.8-4.7-1.9-9.4-3.1-14.1-.8-7.1-1.8-14.1-3.1-21 1.5-10.6 3.9-21 7.8-31.3-3.8 8.8-6.6 17.8-8.6 26.9-.9-4.4-1.8-8.7-2.9-13 .9 5.3 1.7 10.6 2.3 15.9-.5 2.2-.9 4.5-1.2 6.7-.7-4.4-1.3-8.8-1.7-13.3.2 5.3.7 10.5 1.3 15.7-.1 1-.3 1.9-.4 2.9-.7-2.1-1.5-4.3-2.2-6.4-1.1-22.1-3.9-44-8.1-65.3C6.8 51.4 8.4 71 8.5 90.6c-1-5.3-1.9-10.5-2.7-15.8.6 9.1 1.6 18.1 2.6 27.2 0 1 0 2.1-.1 3.1-.2-1.8-.5-3.5-.8-5.3.3 3.8.5 7.6.6 11.3-.1 2.3-.2 4.7-.3 7-1-8.2-1.8-16.5-2.4-24.7 0 12 .6 24.1 1.4 36.1-1.2 5.9-2.5 11.8-3.9 17.6-.3-11.4-1-22.8-2.4-34.1.8 10.3.9 20.6.7 30.9-.4-1.4-.8-2.7-1.2-4.1v9.4c.3 1.3.6 2.7 1 4v.4c-.3-1-.6-2.1-.9-3.1v79.7h850.399996V63.4c-.2-9.5-.6-19-1.3-28.5-1.3 7.8-1.2 15.6-1.3 23.3zM8.8 177.1c-.4-1.8-.8-3.6-1.3-5.4.2-1.6.4-3.3.6-4.9.2 3.2.5 6.3.7 9.5.1.2 0 .5 0 .8zm3-62.7c-.2-.8-.3-1.6-.5-2.4-.1-4.3-.2-8.5-.4-12.8.6 2.3 1.2 4.7 1.8 7-.4 2.8-.7 5.5-.9 8.2zm4-15.6c.5 4.8.8 9.6 1 14.3-.6-2.5-1.1-5-1.7-7.5.3-2.3.5-4.6.7-6.8zm.9 40.8c-.8-4.1-1.6-8.3-2.4-12.4 0-4.1.1-8.1.3-12.2.9 4.1 1.7 8.3 2.5 12.4 0 4-.1 8.1-.4 12.2zm4.2-11.1c-.2-3.2-.4-6.4-.7-9.6.6 3.9 1 7.9 1.4 11.8-.3-.7-.5-1.4-.7-2.2zm4.5 15.5c-.2-.8-.5-1.6-.7-2.4-.1-1.1-.3-2.3-.4-3.4.1-7.3.3-14.7.3-22 1.2 4.9 2.4 9.9 3.5 14.8-.9 4.3-1.8 8.6-2.7 13zm12.2-29.8c.3 5.2.7 10.3 1 15.5-.1.5-.2.9-.3 1.4-.6-2.6-1.3-5.1-1.9-7.6.3-3.1.8-6.2 1.2-9.3zM32.2 168c-.2-.6-.3-1.3-.5-1.9.4-4.3.8-8.7 1.2-13 .2 1.1.5 2.2.7 3.4-.5 3.9-.9 7.7-1.4 11.5zm1.7-24.3c.7-6.3 1.4-12.6 2.2-18.9l1.5 9c-1 4.5-1.9 9-2.6 13.6-.4-1.2-.7-2.5-1.1-3.7zm3.6 7.2c.3-3.4.7-6.8 1.2-10.2.1.6.2 1.3.3 1.9-.5 2.8-1 5.6-1.5 8.3zm3.3-29.6v-.1.1zm1.2 8.3c-.2-1.5-.4-3-.6-4.4 0-.2.1-.4.1-.6.3 1.3.5 2.7.8 4-.2.3-.2.6-.3 1zm1-9.7c-.1-.3-.2-.6-.2-1l.3-1.2c0 .8-.1 1.5-.1 2.2zm12.6 8.4c-1.7 2.6-3.4 5.2-5.1 7.9-.1-.6-.1-1.2-.2-1.7l.9-4.2c-.3 1.2-.7 2.3-1 3.5-.2-2-.4-4.1-.5-6.1.9-4.6 1.7-9.2 2.6-13.8 1 4.7 2.1 9.6 3.3 14.4zm-6.4-18.4c.5-1.5 1.1-3 1.7-4.4 0 .1 0 .3.1.4-.6 2.2-1.2 4.4-1.8 6.5-.1-.8 0-1.7 0-2.5zm0 29.9c.2 2.4.3 4.9.5 7.3-.4-1.6-.8-3.2-1.1-4.8.2-.8.3-1.5.5-2.3 0 0 .1-.1.1-.2zm-.1-2.1c-.1.5-.3 1-.4 1.5l-.6.9c-.1-.5-.2-.9-.3-1.4.4-2 .7-4.1 1.1-6.1 0 1.7.1 3.4.2 5.1zm-4.6-11.8c1.2-5.2 2.6-10.4 4.4-15.4-.1 1.1-.1 2.2-.2 3.3-1.3 4.7-2.5 9.4-3.7 14.1-.1-.7-.3-1.4-.5-2zm7.6 82.8c-1.5-17.5-3.9-34.8-6.3-52.2.2-1.3.5-2.6.8-3.9 2.4 14.5 4.5 29 6.2 43.4-.1 4.3-.3 8.5-.7 12.7zm4.2-31.2l-1.8-8.7c-.7-5.8-1.5-11.6-2.3-17.4 2.2 8.1 3.5 16.2 4.2 24.4.1.5 0 1.1-.1 1.7zm.9-8.8c-1.3-5.8-2.9-11.6-4.9-17.4-.6-4.7-1.2-9.4-1.7-14.1 1.6-3 3.3-5.9 5-8.8 1 4.4 2.1 8.8 3.3 13.2-.3 9-.9 18.1-1.7 27.1zm2.4-10.9c.1-4.5.1-8.9 0-13.4.4 1.6.9 3.2 1.3 4.8-.5 2.8-.9 5.7-1.3 8.6zm3.3-1.1c.4 1.3.7 2.6 1.1 3.9-.4-1.3-.7-2.6-1.1-3.9zm4.3-15.1c-.7-2.1-1.5-4.2-2.2-6.3.7 2.1 1.4 4.2 2.2 6.3zm.9 2.7c-.1-.3-.2-.5-.3-.8.1.2.2.5.3.8 0-.1 0 0 0 0zm12.8-28.1c.4 1.5.8 2.9 1.2 4.4-.5-.8-1-1.6-1.5-2.3l.3-2.1zm-8.7 39.4c-.9-2.4-1.7-4.7-2.5-7.1.8 2.4 1.6 4.7 2.5 7.1zm.9-13c-.2-2.6-.4-5.2-.6-7.7-.8-9.5-1.7-19.1-2.4-28.6 1.3 4.8 2.6 9.6 3.8 14.4-.1 7.4-.4 14.7-.8 21.9zm1.5 4.6c.1-5.6.1-11.2 0-16.8.4 3.8.6 7.6.8 11.4-.4 1.8-.6 3.6-.8 5.4zm1.3-9.7c-.4-3.1-.9-6.2-1.5-9.2-.1-2-.1-4-.2-6 .8 3.4 1.7 6.8 2.5 10.2-.3 1.6-.5 3.3-.8 5zm3-19.1l-.9-2.7c.3.5.6 1.1.9 1.6v1.1zm-.1-6.7c0 1.3.1 2.7.1 4-.6-.8-1.2-1.7-1.8-2.5-1.8-5.1-3.6-10.3-5.4-15.3 1.3 4.3 2.5 8.6 3.7 12.9-.9-1.2-1.9-2.5-2.8-3.6 1.1 1.6 2.1 3.2 3.1 4.8 1 3.5 1.9 7 2.8 10.5-.4 1.8-.7 3.6-1 5.4-1.2-3.8-2.3-7.5-3.5-11.3 0-.5 0-1-.1-1.5v1.3c-1.3-4-2.6-7.9-3.9-11.8-.5-7.1-.8-14.2-.9-21.2 4.5 9.8 8.2 20.2 11.2 30.9l-.6 2.7c-.2-.3-.3-.5-.5-.8-.1-1.5-.2-3-.4-4.5zm.6 6.8v-.4l.1.1c-.1.1-.1.2-.1.3zm.5 30.1c.4 1.8.9 3.7 1.3 5.5-.6 1.8-1.1 3.6-1.7 5.4.2-3.6.3-7.2.4-10.9zm0-.8v-1c.3 1.2.5 2.5.8 3.7-.3-.8-.5-1.7-.8-2.7zm2.4 35c0 .3-.1.6-.1.9-.8-2.4-1.7-4.9-2.5-7.3.2-1.3.4-2.6.7-3.9.7-3.8 1.5-7.7 2.4-11.5.3 1.5.5 3 .8 4.4-.5 5.8-.9 11.6-1.3 17.4zm1-35c-1-3.9-2.1-7.7-3.3-11.5 0-2.9-.1-5.9-.2-8.8 1.5 6 2.9 12 4.2 18.1-.2.7-.5 1.5-.7 2.2zm-3.2-25.9c.1-.7.2-1.3.3-2 1.1 2 2.1 4 3 6 .5 2.3 1.1 4.6 1.6 6.9 0 1.6.1 3.1.1 4.7-1.7-5.2-3.3-10.5-5-15.6zm11.2 3.5c0 .6 0 1.3.1 1.9 0 .1-.1.1-.1.2v-2.1zm-.2 12.3v-1.5c0-1.1.1-2.2.1-3.4.1-.2.2-.5.3-.7v6.4c-.2-.3-.3-.6-.4-.8zm5.3 12.8c-.3-.9-.6-1.7-1-2.6-.3-7.3-.9-14.6-1.7-21.9 1-2.6 2-5.2 3.1-7.8.2 8.8.2 17.7.2 26.5-.2 2-.4 3.9-.6 5.8zm9.9 26.8c-.1-3.5-.3-7-.4-10.5.3 1.5.6 3 .9 4.6-.2 1.9-.4 3.9-.5 5.9zm1-14.1l-2.1-7.2c-.3-5.4-.6-10.7-1-16 1.2 5.3 2.3 10.6 3.4 15.8 0 2.4-.1 4.9-.3 7.4zm.8-18.3c-1.2-4.6-2.5-9.2-3.8-13.8 1.2-4.8 2.5-9.5 4.1-14.2v13.3c-.2-1.7-.4-3.5-.6-5.2.3 6.7.4 13.3.3 19.9zm9.5 17c-.1-.6-.2-1.2-.3-1.7v-.1c-.3-7.2-.6-14.3-.9-21.5.8 6.7 1.5 13.4 2.1 20.1-.2 1.1-.5 2.2-.9 3.2zm14.1-80.2c0-1.2-.1-2.3-.1-3.5.1.6.1 1.2.2 1.8-.1.6-.1 1.1-.1 1.7zm7.7 62.8c.1 2.4.1 4.9.1 7.3-.5-1.1-1-2.1-1.4-3.2.3-2 .6-3.9.9-5.9.1.6.3 1.2.4 1.8zm-4.5-50.8v-.1c.7 3.7 1.3 7.4 1.8 11.2-.2.6-.4 1.1-.6 1.7-.3-4.3-.7-8.5-1.2-12.8zm1.8 11.2c1 7.8 1.7 15.6 2.1 23.5-.5 1.9-1 3.7-1.4 5.6-.1-.4-.3-.9-.4-1.3 0-8.5-.2-17-.8-25.5.1-.8.3-1.5.5-2.3zm.4 30.1c-.1.3-.1.5-.2.8v-1.5c.1.3.2.5.2.7zm-.4 51.2c0-3.4.1-6.7.1-10.1.1 1.2.3 2.3.4 3.5-.2 2.2-.3 4.4-.5 6.6zm2.5-22.1c-.6-3.2-1.3-6.3-2-9.5.2-1.4.4-2.7.6-4.1l1.8 5.1v5.9c-.1.9-.2 1.7-.4 2.6zm4.8-8.7c-.4-1.5-.9-3-1.3-4.4-.1-1.3-.2-2.7-.3-4 .2-2.1.4-4.1.6-6.2-.2 1.5-.5 2.9-.7 4.4-.4-4.8-.8-9.7-1.2-14.5 1-5.7 2.2-11.3 3.4-16.9-.2 13.9-.2 27.8-.5 41.6zm9.299996-12.7C153 141 152.8 139.3 152.5 137.6c.3 1.5.6 3 .899996 4.4-.1.2-.1.5-.1.7zm19.5-12V129c.1 1 .1 2.1.2 3.1-.1-.4-.1-.9-.2-1.4zm6 25.6c-.5-5.1-1-10.1-1.7-15.2.8-3.9 1.5-7.9 2.3-11.8.5 2.9 1.1 5.8 1.7 8.7-1.1 6-1.8 12.1-2.3 18.3zm2.6-20c-.7-2.6-1.3-5.1-1.8-7.7.8-4.4 1.6-8.7 2.3-13.1.1 5.6.3 11.1.4 16.7-.3 1.3-.6 2.7-.9 4.1zm5.7-.2c.8-9.8 1.3-19.6.9-29.4 1.1 4.4 2.1 8.7 2.8 13.1-.2.8-.3 1.5-.5 2.3-.4-2-.9-4-1.3-6 .4 2.3.7 4.5 1.1 6.8-1 4.9-2 9.9-3 14.8.1-.6 0-1.1 0-1.6zm1.9 19.1c0 .4-.1.8-.1 1.2 0-.5.1-.9.1-1.2zm2.6 14c-.7-6.4-1.4-12.8-1.9-19.2.7-5.3 1.5-10.6 2.2-15.9l.9 5.7c.2 4.2.3 8.4.2 12.7-.6 5.5-1.1 11.1-1.4 16.7zm2-46.4c.1-.5.2-1.1.2-1.6 0 1 .1 2.1.1 3.1l-.3-1.5zm11.1 93.6c-.2-2.1-.3-4.2-.5-6.3.6-17.3.2-34.4-.9-51.5.4-6.1.7-12.2.8-18.3 1.3 6.4 2.8 12.7 4.2 19.1-.4 19.3-1.5 38.4-3.6 57zm20.1-109.9c0 4.5.1 9 .3 13.4-.3-2.9-.6-5.8-.9-8.8.2-1.4.4-3 .6-4.6zm-1.4 32.5c-.2-5.9-.4-11.7-.7-17.6.1-.4.1-.9.2-1.3.2 5.4.6 10.8 1 16.2-.2.9-.3 1.8-.5 2.7zm1.1 16.7c-.2-1.1-.3-2.2-.5-3.3.2-2.4.4-4.7.6-7.1.2 2 .3 4 .5 5.9-.2 1.6-.4 3.1-.6 4.5zm2.7 18.7v-.3c.1.6.1 1.2.2 1.8v.2c-.1-.6-.1-1.2-.2-1.7zm.4-47.6c-.1-.8-.1-1.6-.2-2.3.2-1 .4-2.1.6-3.1-.2 1.8-.3 3.6-.4 5.4zm1-20.5c-.1 3.4-.2 6.7-.4 10.1l-1.2 4.5c-.6-7.3-1.1-14.6-1.3-21.9.4-3.5.8-6.9 1.2-10.4 1.1 7.4 2 14.8 2.9 22.2l-.9 3-.3-7.5zm1 41.5c0-.3-.1-.6-.1-.8 0 .2.1.4.1.5.1.1 0 .2 0 .3zm.9-16.2c-.1-1.1-.2-2.1-.2-3.2v8.7c-.1 2.9-.3 5.8-.5 8.8-.2-.7-.3-1.4-.5-2-.1-.6-.1-1.3-.2-1.9.2-8.6.2-17.2-.1-25.9.3-1.4.6-2.7 1-4.1.3 3 .7 5.9 1 8.9-.2 3.6-.3 7.2-.5 10.7zm.7-20.4c-.1-.8-.3-1.5-.4-2.3.2-.6.3-1.2.5-1.8-.1 1.4-.1 2.7-.1 4.1zm3.3 72c0-.4-.1-.9-.1-1.3.1-1.5.1-2.9.2-4.4.3 2.3.5 4.7.8 7 .1 1.8.1 3.5.2 5.3-.4-2.3-.7-4.5-1.1-6.6zm2.1-36.2c-.4-3.4-.9-6.8-1.4-10.2.1-2.4.2-4.7.3-7.1.4 2 .8 4.1 1.3 6.1-.1 3.7-.2 7.4-.2 11.2zm2.8-13.1c-.4-5-.7-10-1-15 .8 4.9 1.5 9.8 2.2 14.7.2 2.2.4 4.5.5 6.7-.6-2.1-1.1-4.2-1.7-6.4zm12.6 9.2c-.2-2.8-.4-5.7-.6-8.5-.7-9.4-1.5-18.9-2.4-28.3l3 14.4c.1 6.7.3 13.5.4 20.2-.1.7-.3 1.5-.4 2.2zm13.9 39.8c-.5-3.2-1-6.5-1.6-9.7.1-1.4.1-2.8.2-4.2 0-.3.1-.5.1-.8.7 2.8 1.3 5.5 1.7 8.3-.2 2.1-.3 4.2-.4 6.4zm.6-9.8c-.5-2-1.1-3.9-1.8-5.8 1-7.6 2.2-15.3 3-22.9-.5 3-1.1 6.1-1.7 9.1.7-4.8 1.5-9.6 2.6-14.4-.4 11.3-1.3 22.6-2.1 34zm2.1-34.7c-2.7 7.9-4.8 15.8-6.4 23.8-.7-3.4-1.3-6.8-2-10.1.8-7.3 1.9-14.5 3.6-21.8-1.4 4.8-2.6 9.6-3.7 14.5-.1-8.9-.4-17.7-.7-26.6 1.3-6.8 2.8-13.7 4.5-20.4-1.3 3.6-2.4 7.2-3.5 10.9.7-5.3 1.3-10.5 1.8-15.8-.8 6.1-1.9 12.1-3.1 18.2-.6-12.1-1.4-24.1-2.6-36.2.6 15.5.7 31 .3 46.5-.2.6-.3 1.3-.5 1.9-1.9-23.8-3.5-47.6-2.7-71.5 6.3 12.8 10.1 25.7 12.4 38.6-1.1 15.2.5 30.4 2.7 45.6 0 .7 0 1.5-.1 2.4zm-1.9-44c1.2 8.2 1.9 16.5 2.1 24.8-1.2-8.3-2-16.5-2.1-24.8zm12.9 29.6c-.1-.9-.3-1.8-.4-2.7.2-.6.3-1.3.5-1.9-.1 1.5-.1 3.1-.1 4.6zm3.1 17.8c-.1-.3-.2-.7-.2-1-.2-8.9-.6-17.7-1.2-26.6.8-2.3 1.6-4.6 2.5-6.9.7 7.4 1.4 14.8 1.9 22.2-.8 4.5-1.5 8.9-2.1 13.4-.5-4.6-.9-9.3-1.3-14 .1 4.3.2 8.6.4 12.9zm1.7 7c0-.3-.1-.7-.1-1 .4-5.6 1-11.3 1.6-16.9.8 11.1 1.4 22.3 2 33.4-1.2-5.2-2.3-10.3-3.5-15.5zm8.6 15.1c-.3-2.4-.5-4.8-.8-7.2.3 1.5.6 3.1.9 4.6 0 .9-.1 1.7-.1 2.6zm3.8-92.4c5.6 13.6 9.7 28.1 12.8 43-3.5-6.8-7.6-13.3-12.1-19.3-.3-8-.5-15.8-.7-23.7zm5.7 87.4c0-1.2.1-2.3.1-3.5 0 .8.1 1.7.1 2.5 0 .3-.1.6-.2 1zm4.2-21.8c-.4 3-.7 5.9-.9 8.9-.4 1.8-.9 3.7-1.3 5.5-.4-2.7-.8-5.5-1.2-8.2 0-.5 0-1 .1-1.5 0 .4-.1.7-.1 1.1-.8-5.3-1.6-10.6-2.5-15.9.7 7.5 1.2 15 1.7 22.5-.4 3.1-.8 6.3-1.2 9.5-.5-2.7-.9-5.4-1.4-8-.6-15-1.3-30-2-44.9-.1-3.4-.2-6.8-.3-10.3 5.1 8 9.4 16.6 12.8 25.6-.3 3-.8 6.1-1.3 9.1-.3-2.4-.6-4.8-.9-7.1.2 2.8.4 5.7.6 8.5-.6 3.1-1.2 6.3-1.9 9.4-.1-1.5-.2-2.9-.2-4.2zm3.4 30.1c-.1-.5-.2-1.1-.3-1.6-.4-6.4-.7-12.8-.8-19.1-.1 4-.2 8-.3 12.1-.3-2-.6-4.1-.8-6.1.6-3.3 1.2-6.6 1.7-9.8.5 6.9 1 13.8 1.4 20.7-.3 1.2-.6 2.5-.9 3.8zm2.3-9.6c-.7-6.2-1.5-12.3-2.3-18.5.6-4 1.1-7.9 1.4-11.9.6 8.6 1.3 17.3 2 25.9-.4 1.5-.8 3-1.1 4.5zm-.7-32c1.2 7.2 2.3 14.5 3.1 21.7v1.2c-.1.3-.2.5-.2.8-1-7.9-2-15.8-2.9-23.7zm3.1 68.4v-1c.1-2.5.3-5 .4-7.5 0 4.2.1 8.4.2 12.6-.2-1.4-.4-2.8-.6-4.1zm6-52.8c1.4-6.5 3-13 5.1-19.4-.1 5.6-.1 11.1-.1 16.7l-2.1 12.3c-.9-3.2-1.9-6.4-2.9-9.6zm4.2 14.5c.2-2.5.5-4.9.8-7.4 0 3.6.1 7.2.1 10.9-.3-1.2-.6-2.3-.9-3.5zm7.6-13.4c-1.3-9.2-2.2-18.5-2.9-27.8 1.4 8.7 2.4 17.5 3 26.2 0 .5 0 1.1-.1 1.6zm7.1-8.9c0-.4-.1-.8-.1-1.2v-.6c.1.4.2.7.3 1.1 0 .2-.1.4-.2.7zm.6-2c-.2-.6-.3-1.2-.5-1.7l.3-5.4c.2 1.8.5 3.6.7 5.4-.2.6-.4 1.1-.5 1.7zm15.4-19.3c0 .4 0 .8.1 1.1-.1.2-.2.3-.3.5.1-.5.2-1.1.2-1.6zm.6 26.5c-.1.3-.1.6-.2 1-.5-4.4-1.2-8.9-1.9-13.3.5 5.5.9 11.1 1.1 16.6-1 4.6-2 9.2-2.9 13.8-.3-1.5-.6-3.1-.9-4.6 1-11.8 2.2-23.7 3.7-35.4.2-.6.5-1.2.7-1.8.3 7.9.4 15.8.4 23.7zm8.7 31c0-.4.1-.8.1-1.3.3 2 .6 3.9.9 5.9-.3-1.5-.6-3-1-4.6zm3.2 1.3c-.7-3.3-1.3-6.6-2-9.9.5-3.8 1.1-7.6 1.7-11.5.1 5.9.4 11.9.6 17.8l-.3 3.6zm.3-48.5c-.1-2.4-.2-4.7-.2-7.1l-.3 6.9c-.2-.9-.4-1.8-.5-2.7.2 1.2.3 2.5.5 3.7 0 .8 0 1.6-.1 2.4-1.4 6.6-2.8 13.2-4.2 19.7-.2-3.5-.4-7-.5-10.5 3.3-20.2 7.4-40.3 11.5-60.4-.1 3.4-.2 6.8-.5 10.2-1.2 7.6-2.2 15.3-2.9 23-.9 5-1.8 9.9-2.8 14.8zm9.7 53.6c.3-7.7.7-15.4.9-23.1.4-1.7.8-3.5 1.3-5.2-.3 9.4-1.1 18.9-2.2 28.3zm2.4-30.6l-.9 2.1c.3-1.4.7-2.8 1-4.3 0 .8-.1 1.5-.1 2.2zm2.6-1.2v-.1c-.1-3.1-.2-6.3-.3-9.4.4-1.6.9-3.1 1.3-4.6-.2 4.7-.5 9.4-1 14.1zm1-16.1c-.5 1.4-1 2.7-1.5 4.1-.6-10.5-1.8-21-3.7-31.5 1.6 12.4 2.1 24.7 1.8 37-.5 1.5-1 2.9-1.4 4.4.1-9.3 0-18.6-.6-27.9.1 11.8-.6 23.4-1.6 35.1-.9 3.3-1.8 6.6-2.6 9.9-.8-16.2-1.3-32.4-1-48.7 1.3-10.7 2.2-21.3 2.1-32 .3-2.7.6-5.4 1-8.1-.4 1.8-.7 3.6-1 5.4 0-1.8-.1-3.6-.2-5.4.5-2.2.9-4.4 1.4-6.6 2.8 17.9 5.4 35.9 7.4 53.9.1 3.6 0 7-.1 10.4zm.4-7.2c.2 1.6.4 3.2.5 4.8 0 .1-.1.2-.1.4-.1-1.7-.2-3.4-.4-5.2zm1.3 34.5c0-4.1-.2-8.2-.5-12.3.1-5.4 0-10.7-.3-16.1.1-.2.1-.4.2-.5.8 8.1 1.6 16.3 2.1 24.4l-1.5 4.5zm10.1-15.4zm-.4-35.5c-.1-3.4-.2-6.8-.2-10.2.6 5.7 1.1 11.4 1.6 17.1-.4-2.3-.9-4.6-1.4-6.9zm15.2 42.3c-.1-.7-.2-1.4-.3-2.2.2.4.3.8.5 1.2 0 .3-.1.6-.2 1zm-.7-5.2l-.9-6.6c.7 2.8 1.3 5.6 1.9 8.4-.3-.6-.6-1.2-1-1.8zm11.4 28c-.9-3.1-1.9-6.2-3-9.3 1.3-4 2.6-8 3.7-12 .1 3.4.3 6.7.4 10.1-.4 3.7-.8 7.5-1.1 11.2zm4.4-39.3c-.4 3.8-.9 7.5-1.3 11.3-.4-1.1-.9-2.1-1.3-3.2.4 1.3.9 2.5 1.3 3.8-.3 2.6-.6 5.3-1 7.9-.8-8.9-1.6-17.8-2.5-26.7.4 8.1.8 16.3 1.1 24.4-1.3 3.7-2.7 7.5-4.2 11.2-.3-.7-.5-1.4-.8-2.2.2-8 1-16 2.8-23.8-.9 2.1-1.8 4.2-2.5 6.3 1.9-11.1 4.3-22.1 7.1-33 .7 2.9 1.5 5.8 2.1 8.8-.3 5.1-.6 10.1-.8 15.2zm2.3-32.5c-.4 3.5-.7 7.1-1 10.6-.6-1.7-1.2-3.4-1.8-5.2.9-3.2 1.8-6.4 2.8-9.6v4.2zm.6-5.2v-.7c.1-.2.2-.5.2-.7 0 .4-.1.9-.2 1.4zm2.5 45.3c.5 9.3 1.1 18.7 1.6 28-.3-1.1-.6-2.2-.9-3.2-.3-9.2-.8-18.5-1.2-27.8.1 1 .3 2 .5 3zm.3 61.5c.6-8.7.7-17.5.6-26.3.4 2.3.8 4.6 1.2 7v2.1c-.4 5.7-1 11.5-1.8 17.2zm18-53.4c0-1 .1-2 .1-3 .1.5.2 1.1.2 1.6s-.2.9-.3 1.4zm4.9-17.7c-.9-4.2-1.9-8.3-3-12.5.8-9.6 1.8-19.2 3-28.7 0 10.2.1 20.5.2 30.7l-.3-.9.3 1.8c0 2.8 0 5.6.1 8.3-.2.5-.2.9-.3 1.3zm4.2 1.8c1.1-8 2.4-16 3.8-23.9.2 2 .4 3.9.6 5.9-1.1 8-2.1 16.1-2.8 24.1-.5-2.1-1-4.1-1.6-6.1zm4.1 18.4l-.3-1.5c.4-2.9.9-5.8 1.5-8.7v1.5c-.4 3-.8 5.9-1.2 8.7zm1.2-13.6c-.7 2.1-1.3 4.2-1.9 6.3.1-9.1.5-18.2 1.1-27.3.4 4.1.7 8.2 1 12.3-.1 2.9-.2 5.8-.2 8.7zm1.4-25.7c-.5-3.2-1.1-6.3-1.7-9.5.5-2.3.9-4.5 1.4-6.8.1 4.3.3 8.7.6 13-.1 1.2-.2 2.2-.3 3.3zm.8-21c.3-1.5.7-2.9 1-4.4-.3 3.2-.4 6.3-.5 9.5-.2-1.7-.3-3.4-.5-5.1zm11.9 28.8c.1 3.6.2 7.3.3 10.9-.4-1-.7-1.9-1.1-2.9.2-2.6.5-5.3.8-8zm-2.2-23.1l-.3-.9c.1.4.2.7.3 1.1-.3 1.1-.5 2.2-.8 3.4-.2-1.3-.3-2.6-.5-3.9.1 1.6.2 3.2.3 4.9-1.5 6.7-3 13.4-4.4 20.2-.3-1.8-.6-3.6-.9-5.3.1-14.7 1.4-29.4 3.6-43.9 1.3 7.5 2.4 15.1 3.2 22.7-.2.4-.4 1.1-.5 1.7zm1.9 62.5v.3l-1.2-6.3c.4-7.8.6-15.6.5-23.3 0-.5.1-1 .1-1.4.4 1.3.8 2.5 1.2 3.8 0 8.9-.2 18-.6 26.9zm8.7-58.8c-.1-6.1.1-12.2.6-18.3v.1c0 6-.2 12.1-.6 18.2zm2.7 10.3c-.2-.6-.4-1.3-.7-1.9 0-3.2-.1-6.4-.2-9.6.2.8.3 1.6.4 2.4.3 3.1.4 6.1.5 9.1zm-.5-11.2c-.1-.4-.2-.9-.3-1.3l-.3-7.8c.2 3 .4 6 .6 9.1zm-.2 60.5c-.1-2-.3-3.9-.4-5.9.1-.6.2-1.1.3-1.7.1.9.2 1.9.3 2.8-.1 1.7-.2 3.3-.2 4.8zm.4-31.1c-.2-1.2-.3-2.5-.5-3.7.1-5.2.2-10.5.1-15.7.2.8.5 1.6.7 2.5.1 4.2.2 8.4.2 12.6-.1 1.3-.3 2.8-.5 4.3zm5.4-2.7c.1.5.1 1 .2 1.5-.1-.3-.2-.6-.3-1 0-.2.1-.4.1-.5zm-1.4.6c0 .2.1.4.1.6 0 .1-.1.2-.1.4.1-.3.1-.7 0-1zm.2 1.7c0-.3.1-.5.1-.8.1.4.2.9.3 1.3-.1.6-.2 1.1-.3 1.7-.1-.6-.1-1.4-.1-2.2zm2.4 39.1c-.1.4-.1.8-.2 1.1-.3-2-.7-4-1-5.9-.2-9.1-.4-18.1-.8-27.2.1-1.6.2-3.2.4-4.8 1 4.7 1.9 9.5 2.7 14.2.4 4.4.7 8.7.9 13.1-.5 2.4-1 4.9-1.5 7.3-.3-2.4-.5-4.8-.8-7.1 0 3 .2 6.1.3 9.3zm1.7 9.6c.2-2.9.4-5.9.6-8.8.1 5.7.2 11.3.2 17-.3-2.7-.5-5.5-.8-8.2zm9.9-57.1c-.4-2-.8-4.1-1.1-6.1-.6-3.2-1.1-6.4-1.6-9.6-.2-3.2-.4-6.4-.7-9.6 1.2 3.7 2.2 7.5 3.1 11.4l-.9 7.8c.4 2 .9 4.1 1.2 6.1zm.9-8.9c1.1 5.1 1.9 10.3 2.5 15.6-.8-1.8-1.7-3.6-2.7-5.4 0-3.4.1-6.8.2-10.2zm-.2 12.5c0-.1-.1-.3-.1-.4.1.1.1.2.1.4v-.2c1.2 2.9 2.3 5.9 3.3 9 .3 3.4.6 6.9.7 10.4-1.3-6.5-2.7-12.9-4-19.2zm12.9 3c.5-3.7 1-7.5 1.7-11.2l.9 14.7c-.8 6-1.6 12-2.5 17.9 0-7.1 0-14.3-.1-21.4zm1.8 62c0-3.5-.1-7-.3-10.5v-.7c.5-5.2 1.3-10.3 2.5-15.5-1 2.9-1.9 5.9-2.6 8.8.6-4.5 1.1-9 1.5-13.5-.6 3.8-1.3 7.5-2 11.3-.2-1.9-.4-3.8-.7-5.7.7-10.3 1.6-20.7 2.5-31.1.4 6.7.7 13.5 1 20.2.4 7.7.8 15.2 1.2 22.7-1 4.8-2 9.4-3.1 14zm41.4-88.4c0 1.5.1 2.9.2 4.4-.4 2.1-.9 4.2-1.3 6.3.4-3.5.8-7.1 1.1-10.7zm-17.3 64.2c-.1.6-.3 1.1-.4 1.7-.1-.5-.1-.9-.2-1.4 0-.4-.1-.8-.1-1.2v-13.2l1.2 7.2c-.2 2.3-.3 4.6-.5 6.9zm2.9-19.7c-.4 2.3-.7 4.7-1.1 7 0-4.6.1-9.2.1-13.8-.3 4-.6 8.1-.9 12.1-.5-2.1-.9-4.2-1.4-6.4 1.1-13.1 1.7-26.2 1.9-39.3.6 5.7 1.3 11.4 2.1 17.1-.2 7.8-.5 15.5-.7 23.3zm.9-22.8c.4 3.2.9 6.3 1.3 9.5-.4 2.2-.7 4.4-1.1 6.5-.1-5.3-.2-10.7-.2-16zm1.8 45.3c-.1.5-.2 1.1-.3 1.6v-.2l.3-1.8v.4zm-1.4-19.9c0-.9 0-1.8-.1-2.7.3-4.2.7-8.4 1-12.6.4 2.5.7 4.9 1.1 7.4-.6 2.6-1.3 5.2-2 7.9zm2.5 13.7v-.1c.5-2.6 1-5.1 1.5-7.7-.5 2.7-1 5.3-1.5 8v-.2zm2.5 28.5c-.4-2.6-.8-5.3-1.3-7.9.5-6.4 1.1-12.8 1.5-19.3.4 3.3.7 6.7 1 10-.4 5.7-.8 11.5-1.2 17.2zm2.3-34.1c-.3-1.8-.6-3.5-1-5.3.4-2.4.7-4.7 1.1-7.1.1 2.7.1 5.3.2 8-.1 1.4-.2 2.9-.3 4.4zm2.2-50.1c0-.2-.1-.4-.1-.5-.9-12.8-.7-25.6 1.7-38.3 1.4 13 .5 25.9-1.6 38.8zm2.8 14.6c-.2-.9-.3-1.7-.5-2.6.6-3.3 1.1-6.6 1.6-9.8.1 1.2.2 2.5.3 3.7-.5 2.9-1 5.8-1.4 8.7zm10.1 39.5c-.7 2.6-1.5 5.3-2.2 7.9.3-4.2.7-8.4 1.2-12.6.3 1.5.6 3.1 1 4.7zm-3.2-5.8c0-3.1-.1-6.1 0-9.2.6 3 1.2 5.9 1.9 8.9-.6 2.7-1.1 5.4-1.6 8.1l-.3-7.8zm4.4 31.6l-1.2 7.8c-.5-6.2-1.3-12.4-2.3-18.6.9-4.3 1.8-8.6 2.7-13 .4 1.7.7 3.5 1.1 5.2-.2 6.2-.3 12.4-.3 18.6zm6.1-10c-.1-.4-.2-.8-.3-1.3-.1-3.7-.3-7.3-.4-11 .1-1.1.2-2.2.2-3.3.3 5.1.5 10.2.5 15.3v.3zm1.4-11c-.4-3.6-.9-7.3-1.5-10.9.3-5.8.6-11.6.7-17.4.8 7.5 1.3 14.9 1.6 22.4-.3 2-.6 3.9-.8 5.9zm9-56.9c.1.6.2 1.1.2 1.7-.1.3-.1.5-.2.8v-2.5zm.2 7.2v-.7c.1-.9.2-1.9.4-2.8a28660732526365976 28660732526365976 0 0 1-.4 3.5zm1.2 24.7c0-.3 0-.6-.1-.9.1-3 .3-5.9.4-8.9-.1 3.3-.2 6.5-.3 9.8zm-.4-31.7c.2-1.5.4-3 .7-4.5.1 2.8.1 5.7.2 8.5-.3-1.3-.6-2.6-.9-4zm1.3-3.4c1.2 9.1 2.4 18.1 3.6 27.2-.8-3.8-1.5-7.6-2.3-11.5-.4-5.2-.8-10.4-1.3-15.7zm2.2 36.3c.2 1.8.4 3.6.7 5.4-.1 1-.3 1.9-.4 2.9-.2-2.8-.2-5.6-.3-8.3zm2.6 58.2c-.1.4-.2.8-.3 1.3-.1-.2-.1-.4-.2-.7-.1-7.3-.5-14.7-1-22l-.6-6.6c-.1-4.8-.1-9.7-.2-14.5l.9-5.7c1.3 10.6 2.3 21.2 3.2 31.8-.6 5.5-1.2 11-1.8 16.4zm22.9-40.5c-.3 1.6-.7 3.2-1 4.9.4-3.5.9-7 1.3-10.5 0 1.8-.1 3.7-.3 5.6zm2.2-20c.1-.9.3-1.8.4-2.8.4 2 .7 4 1.1 6.1-.4 1.8-.8 3.7-1.2 5.5-.1-2.9-.2-5.9-.3-8.8zm1.9 51.8c-.2-1-.5-2.1-.7-3.1-.2-3.8-.4-7.5-.5-11.3.2-2.3.5-4.7.8-7 .5 7.2.6 14.3.4 21.4zm.9-15.9c-.3-2.5-.6-5.1-1-7.6.4-2.9.8-5.7 1.2-8.6.1 1.8.2 3.5.3 5.3-.3 3.7-.5 7.3-.5 10.9zm1.6 4.9c0-.7-.1-1.4-.1-2.2 0 .4.1.8.1 1.2v1zm6.3-20.4c-.1-.4-.2-.7-.2-1.1 0-1.9.1-3.7.1-5.6l.3 5.4c-.1.4-.1.9-.2 1.3zm10.5-4.3c-.5-7-1.1-14-1.6-21.1.4-3.3.9-6.5 1.3-9.8.5 4.9 1.1 9.7 1.8 14.6v5.9c-.5 3.5-1 7-1.5 10.4zm6.5-17.2c0-.4.1-.8.1-1.2 0-.1.1-.3.1-.4v.5c0 .4-.1.7-.2 1.1zm1.6-24c.1-1.3.1-2.6.2-3.9.4 3.8.7 7.6 1 11.5-.4 1.5-.7 3-1.1 4.5-.1-4.1-.2-8.1-.1-12.1zm.2 13.6c.3-1.9.7-3.8 1-5.7 0 .4.1.8.1 1.1-.4 1.9-.7 3.7-1.1 5.6v-1zm4.9 42.8c-.9-5.4-1.7-10.7-2.4-16.1v-1.3.8c-.3-2.4-.6-4.9-.9-7.3.2-1 .3-2 .5-3-.2.8-.4 1.7-.6 2.5-.1-1.1-.2-2.3-.4-3.4.3-3 .6-6 1-8.9 1 12.1 2 24.1 2.9 36.2-.1.1-.1.3-.1.5zm10.9-25.8c0-.8-.1-1.5-.1-2.3 0 1.7 0 3.4.1 5.1 0 .9-.1 1.8-.1 2.7-.1.4-.3.8-.4 1.3 0-5.3.1-10.6.5-16l.3 3.9c-.2 1.8-.2 3.5-.3 5.3zm2.4-10.3c0-5.6 0-11.2.1-16.8.3 6.2.4 12.3.5 18.5-.2-1-.3-1.9-.5-2.9.1 1.2.3 2.4.4 3.7 0 .2-.1.3-.1.5-.1-1-.3-2-.4-3zm.6 34.2c0-1.9-.1-3.8-.1-5.7 0 .4.1.7.1 1.1v4.6zm.3-57.9c.3-1.6.7-3.2 1.1-4.8.2 6.1.5 12.2.8 18.4-.2.9-.3 1.8-.5 2.8-.4-5.5-.9-11-1.4-16.4zm1.9 23c0-.2.1-.4.1-.6.1-.6.2-1.3.4-1.9.2 3.5.4 7 .7 10.5-.2-.6-.5-1.1-.7-1.7-.2-2.1-.3-4.2-.5-6.3zm1.4 23c0-.1-.1-.3-.1-.4-.2-4.9-.5-9.9-.8-14.8.3.8.5 1.7.8 2.5.2 2.7.3 5.4.5 8.1-.2 1.5-.3 3.1-.4 4.6zm5.9-67.7c-.5-2.6-1-5.1-1.6-7.7-.2-5.8-.3-11.7-.1-17.5.9 8.8 1.5 17.6 1.9 26.4 0-.5-.1-.9-.2-1.2zm10.6 51.3c-.1-.3-.1-.6-.2-.9.1-.5.1-1 .2-1.5v2.4zm.3-17.7c-.6-2.5-1.2-5.1-1.8-7.6 0-1.4-.1-2.7-.2-4.1.7 3.9 1.3 7.8 2 11.7zm3.5-8.7c-.3.7-.6 1.3-.9 2-.8-3.1-1.5-6.2-2.2-9.3 1 2.4 2.1 4.9 3.1 7.3zm-3 30.3c0-.7-.1-1.4-.1-2.1v-.7c-.1-1.6-.1-3.3-.1-4.9 1 5.2 2.1 10.4 3.1 15.6 0 2.3.1 4.6.1 6.9-1-4.9-1.9-9.9-3-14.8zm7.8-7.3c-1.6-5.5-3.1-11-4.6-16.5.3-1.1.6-2.2 1-3.2 1.4 3.5 2.8 7.1 4 10.6-.1 3-.2 6-.4 9.1zm1.2-30.6c-.3 5.8-.5 11.5-.6 17.3v.8c-1.2-2.9-2.5-5.7-3.8-8.5 1.3-3.7 2.7-7.4 4.4-11v1.4zm3.8 47.5c-.1-.3-.2-.6-.2-.8-.6-5.8-1.1-11.6-1.5-17.4l2.7 8.4c-.4 3.3-.7 6.6-1 9.8zm4.1 14.9c0-.6.1-1.3.1-1.9 0 .8.1 1.7.1 2.5-.1-.2-.1-.4-.2-.6zm3.4 6.2c-.1-1.7-.1-3.3-.2-5l.6 3.3c-.1.5-.2 1.1-.4 1.7zm8.6 19.4c-1.1-10.1-2.2-20.2-3.2-30.2.8-3.8 1.6-7.7 2.4-11.5.3 6 .7 12 1.1 18 0 7.9-.1 15.8-.3 23.7zm9.7-76.2c-.7-4.1-1.5-8.3-2.1-12.5 1.1 2.3 2.1 4.7 3.1 7.2-.3 1.7-.6 3.5-1 5.3zm4 13.2c0-3.3.1-6.7.2-10 .3.8.5 1.6.8 2.3-.3 2.6-.6 5.2-1 7.7zm1.4-11.5c0 .4-.1.7-.1 1.1-.3-.8-.7-1.6-1-2.4.1-1.9.1-3.8.2-5.8.5-4.4 1.2-8.7 1.9-13-.2 6.6-.5 13.4-1 20.1zm2.1 23.7c-.1-1.8-.1-3.6-.2-5.4.1-2 .1-4 .2-6 .3 1 .5 1.9.8 2.9-.3 2.9-.5 5.7-.8 8.5zm2.6 3.6c0-1.3.1-2.5.1-3.8.1.6.3 1.3.4 1.9-.2.6-.4 1.2-.5 1.9zm2.3-11.6c-.1-.3-.3-.6-.4-.9.1.4.3.7.4 1.1v.2c-.1 1.2-.2 2.5-.3 3.7 0 .2-.1.4-.1.5l-1.5-5.1c.3-11.5.5-23 .5-34.5-.6 9.8-1.3 19.6-2.2 29.3-.4-1-.7-2-1.1-3.1.3-11.2.3-22.5.1-33.7 1.2-5.8 2.6-11.5 4.3-17.2.4 14 .7 28.1.8 42.1-.6-7.1-1.2-14.2-1.6-21.3-.1 13.1.4 26 1.1 38.9zm5.3-31.1c1.6 3.2 2.9 6.4 4 9.6-.9 3.5-1.9 7-2.9 10.5-.3-6.7-.7-13.4-1.1-20.1zm4.3 85.3c-.3-1.3-.5-2.7-.8-4-.1-.8-.2-1.6-.2-2.3-.1-6-.3-12-.5-18 1.2 8 1.7 16.2 1.5 24.3zm1.4-16.6c-.7-5.2-1.8-10.4-3.2-15.6 0-1.1-.1-2.2-.1-3.4l1.8-10.5c-.6 2.7-1.3 5.5-1.9 8.2-.1-2.7-.2-5.5-.3-8.2.2-2.5.4-4.9.7-7.4 1.3 5 2.5 10.1 3.6 15.3-.4 7.2-.5 14.4-.6 21.6zm.7-24.6c-1.1-4.2-2.4-8.3-3.7-12.4.6-5 1.5-10 2.7-15-1.5 4.2-2.8 8.4-3.8 12.6-.1-1.3-.1-2.6-.2-3.9 1.1-4.8 2.2-9.5 3.2-14.3 1.5 4.6 2.6 9.2 3.5 13.8-.8 6.5-1.3 12.9-1.7 19.2zm3.4-31.2c-.4 2.2-.7 4.3-1 6.5-.8-2-1.6-4-2.5-6-.4-1.2-.9-2.4-1.4-3.5 1.1-5.2 2-10.4 2.7-15.7.8 5.3 1.6 10.7 2.5 16l-.3 2.7zm6.8 15.1c-.2 2.2-.5 4.3-.8 6.5-.3-1.2-.5-2.5-.8-3.7.1-11.1.3-22.2.7-33.3.1.2.2.4.3.7.3 1.9.7 3.8 1 5.7.1 8-.1 16-.4 24.1zm4.2 28.9c-.1.5-.2.9-.3 1.4-.5-2.6-.9-5.1-1.4-7.7.3-2.9.7-5.9 1.3-8.8-.5 1.5-1 3-1.4 4.4 0-11.4-.1-22.8-.5-34.2 1 7.1 1.9 14.3 2.6 21.4.1 5.3.3 10.6.6 15.9-.5 2.6-.7 5.1-.9 7.6zm.6-57.8c-1.5-6-3.1-11.9-4.9-17.8.2-3 .3-6 .5-9 1.8 6.3 3.4 12.7 4.9 19.1-.1 2.5-.3 5.1-.5 7.7zm3.2 13.5c-.8-3.7-1.7-7.4-2.6-11v-9.9c1.1 4.8 2 9.6 2.9 14.4 0 2.2-.1 4.4-.3 6.5zm1.5 6.1c-.3-1.1-.6-2.3-.9-3.4 0-2.4 0-4.9.1-7.3.5 2.8 1 5.6 1.4 8.4-.2.8-.3 1.6-.5 2.4 0 0 0-.1-.1-.1zm.3.7c.1-.8.2-1.7.4-2.5l.9 6c-.4-1.2-.9-2.3-1.3-3.5zm9.2 20.6c-1.1-6.8-2.3-13.5-3.7-20.2.5-4.1 1.1-8.1 1.7-12.2.9 4.7 1.7 9.5 2.3 14.2-.2 6.1-.3 12.1-.3 18.2zm.7-23.4c-.8-3.3-1.6-6.7-2.5-10 .4-2.9.9-5.8 1.4-8.7.4 5.9.8 11.7 1.2 17.6-.1.4-.1.8-.1 1.1zm.1.5v-.5.5zm.1 8.4l.6 5.4c.3 7.5.6 15.1.9 22.6-.7-9.3-1.3-18.6-1.5-28zm6.3 24.7c-.1-.7-.1-1.3-.2-2 .3-2 .6-4 1-6-.3 2.8-.5 5.4-.8 8zm1-10.2c-.5 2-1 4.1-1.4 6.1-.1-1.4-.3-2.9-.4-4.3.8-4.1 1.6-8.1 2.6-12.1-.3 3.4-.5 6.8-.8 10.3zm1 31.4c.3-3.4.6-6.9.9-10.3.1 3 .1 6 .2 8.9-.3.8-.7 1.7-1 2.5 0-.4-.1-.8-.1-1.1zm.4 3.9c.2-1 .5-2.1.8-3.1.2 5.4.4 10.7.6 16.1-.5-4.3-1-8.6-1.4-13zm3.1.9c-.3-3-.6-6-.8-9 .4-1.1.7-2.2 1.1-3.3-.4.8-.8 1.7-1.2 2.6-.4-5-.8-9.9-1.1-14.9.3-6 .6-11.9.7-17.9.9 6.2 1.7 12.3 2.2 18.6-.4 7.9-.7 15.9-.9 23.9zm1.4-30.7c-.8-4.4-1.7-8.7-2.7-13.1.3-16.1-.3-32.1-1.9-48.1 3 16.7 4.6 33.6 5.4 50.5-.3 3.6-.6 7.2-.8 10.7zm1.3 8.2v-4.4c0 1.8.1 3.6.1 5.5 0-.4 0-.8-.1-1.1zm28.4-52v.8c0-.1 0-.1-.1-.2.1-.2.1-.4.1-.6zm-.3 7.3c.3 1.3.5 2.6.8 4 .1 4.2.2 8.4.3 12.5-.5-2.2-1.1-4.4-1.7-6.6.2-3.2.4-6.6.6-9.9zm-.7 11.3c.4 2.1.8 4.3 1.2 6.4l-.1.1c-.4-1-.9-2-1.4-3 .1-1.2.2-2.3.3-3.5zm.2 8.2c-.3.5-.6 1.1-.9 1.6.1-1.1.2-2.3.2-3.4.3.6.5 1.2.7 1.8zm-19.1 57.4c.1-5.9.3-11.8.5-17.7.2 3.8.4 7.7.7 11.5-.4 2.1-.8 4.1-1.2 6.2zm2.4-12c-.6-5.1-1.1-10.2-1.4-15.3.2-4.6.5-9.2.9-13.8.3 9.5.5 19 .7 28.5-.1.2-.1.4-.2.6zm4.6 10.5c0 .1 0 .2-.1.4 0-1.1-.1-2.2-.1-3.3.1-.8.2-1.5.3-2.3 0 1.7-.1 3.4-.1 5.2zm1.3-44.7c-.9-3.2-1.8-6.3-2.8-9.4.9 4 1.8 8.1 2.7 12.1-.1 4-.3 8-.4 12.1-.7 2.1-1.4 4.3-2 6.5-.7-9.1-1.8-18.1-3.1-27 1.4-16.5 3.2-33.1 5.1-49.5.2 15.3.5 30.6.8 45.9-.1 3-.2 6.2-.3 9.3zm7.8-19c-.9 6.5-1.8 12.9-2.7 19.4-.5 1.1-.9 2.1-1.4 3.2-1.4-20.2-2.8-40.5-3.9-60.7.3-2.2.5-4.3.8-6.5 4 8.6 7.1 17.8 9.4 27.3-.6 5.3-1.3 10.6-2 15.9-1.8-3.3-3.8-6.6-5.9-9.7 2.1 3.5 4 7.2 5.7 11.1zm.9 25.9c.2-3.2.5-6.5.7-9.7.2-.8.3-1.6.5-2.3.5-1.3 1.1-2.6 1.7-3.9.3 1.1.7 2.1 1 3.2v.2c-1.3 4.4-2.6 8.8-3.8 13.2-.1-.3-.1-.5-.1-.7zm.6 14.1c.7-3.4 1.3-6.8 2-10.2-.5 5.8-1.1 11.5-1.8 17.3 0-2.4-.1-4.7-.2-7.1zm3.2-12.6c-.1 5-.2 10.1-.3 15.1-.5 4.5-1 9.1-1.5 13.7v-2.7c.6-9.1 1.1-18.3 1.3-27.5.1-.7.3-1.4.4-2.1.2 1.1.1 2.3.1 3.5zm3.9-27.1v-.2c0-.1.1-.2.2-.3-.1.2-.1.3-.2.5zm.6 3.7s0-.1 0 0v-.3.3zm1.2-9.3c-.3.8-.5 1.6-.8 2.5-.4.5-.7 1.1-1.1 1.6-.4-5.7-.9-11.4-1.4-17.1 1.2 3.7 2.4 7.5 3.5 11.2-.1.5-.1 1.2-.2 1.8zm5.5-35.9c2.3 9.2 3.6 18.5 4.3 27.9-1.6-4.5-3.2-8.9-4.9-13.3.2-4.9.4-9.8.6-14.6zm-2.5 44c.2.6.3 1.1.5 1.7l-.9 4.8c.2-2.2.3-4.4.4-6.5zm1.2 11.9c-.3 10.4-.4 20.9-.5 31.5-.1-.7-.2-1.3-.2-2-.4-12.1-.2-24.3 1-36.4 1.1 4.3 2.2 8.7 3.2 13-.9 7.3-1.7 14.5-2.6 21.8-.4-9.4-.7-18.7-.9-27.9zm3.5 54.1c-.3-1.5-.5-3-.8-4.5.2-4.3.4-8.7.6-13 .1 2.4.3 4.8.4 7.2-.1 3.4-.2 6.9-.2 10.3zm.4-16.6c-.2-1.1-.3-2.2-.5-3.3l.9-24c.2.9.4 1.9.6 2.8-.4 8.1-.8 16.3-1 24.5zm1.8-39.6c-.2-.8-.5-1.6-.8-2.4.1-1 .1-2.1.2-3.1-.1.9-.2 1.7-.3 2.6-1.2-3.6-2.3-7.1-3.6-10.7.4-3.1.9-6.1 1.5-9.2-.7 2.6-1.4 5.2-2 7.8-.4-1.2-.9-2.5-1.3-3.7.1-1 .1-2 .2-3 .1-.1.1-.2.2-.2l-.2.2.6-10.2c0-.1 0-.1.1-.2 0 .1 0 .1-.1.2 0-.8.1-1.5.1-2.3 2.1 6.7 4 13.5 5.8 20.3 0 1.7.1 3.4.1 5.2-.1 2.9-.3 5.8-.5 8.7zm1-36.4c.2.7.3 1.3.5 2 .1.8.2 1.6.3 2.3-.3-1.4-.6-2.9-.8-4.3z"/></svg>
