<svg xmlns="http://www.w3.org/2000/svg" id="Layer_1" viewBox="0 0 32 32"><g id="Symbols"><g id="тексты" transform="translate(-1 -1)"><g id="text"><path id="Shape" d="M22.2 2H2v27h2.1v2.9l2.1-1.3 2.1 1.3V29h13.9c1.1 0 2.1-.9 2.1-2V4c-.1-1.1-1-2-2.1-2zM3 3h14.5v7.5H3V3zm14.5 16.5H3v-8h14.5v8zM7.2 30.1l-1-.7-1 .7V29h2.1v1.1zm1-2.1H3v-7.5h14.5V28H8.2zm10.4 0V3h1.6v25h-1.6zm2.5-16.5h2.1v8h-2.1v-8zM23.2 27c0 .5-.5 1-1 1h-1v-7.5h2.1V27zm-2.1-16.5V3h1c.6 0 1 .4 1 1v6.5h-2z" class="st0"/><path id="Shape_1_" d="M30.5 2h-2.1c-.9 0-1.5.7-1.5 1.5v23.6l2.1 3.5v.9c0 .3.2.5.5.5s.5-.2.5-.5v-.9l2.1-3.5V3.5C32 2.7 31.3 2 30.5 2zm-2.6 4.5H31v1h-3.1v-1zm1.5 23l-1.2-2h2.4l-1.2 2zm1.6-3h-3.1v-18H31v18zm-3.1-21v-2c0-.3.2-.5.5-.5h2.1c.2 0 .5.2.5.5v2h-3.1z" class="st0"/><path id="Rectangle" fill="none" d="M1 1h32v32H1z"/></g></g></g></svg>
