<svg xmlns="http://www.w3.org/2000/svg" id="Layer_1" viewBox="0 0 32 32"><g id="Symbols"><g id="магазин" transform="translate(0 -3)"><g id="photo"><path id="Shape" d="M31.4 6H.6c-.4 0-.6.2-.6.6v24.3c0 .3.2.6.6.6h30.9c.3 0 .6-.2.6-.6V6.6c-.1-.4-.3-.6-.7-.6zm-.5 24.3H1.1V7.1h29.8v23.2z" class="st0"/><path id="Shape_1_" d="M8.8 18.2c1.7 0 3.1-1.4 3.1-3.1 0-1.7-1.4-3.1-3.1-3.1s-3.1 1.4-3.1 3.1c.1 1.7 1.4 3.1 3.1 3.1zm0-5c1.1 0 2 .9 2 2s-.9 2-2 2-2-.9-2-2 .9-2 2-2z" class="st0"/><path id="Shape_2_" d="M3.9 28.1c.1 0 .3 0 .4-.1l9-7.9 5.7 5.7c.2.2.6.2.8 0 .2-.2.2-.6 0-.8L17 22.3l5.1-5.5 6.2 5.7c.2.2.6.2.8 0 .2-.2.2-.6 0-.8l-6.6-6.1c-.1-.1-.3-.1-.4-.1-.1 0-.3.1-.4.2l-5.4 5.9-2.6-2.6c-.2-.2-.5-.2-.8 0l-9.4 8.3c-.2.2-.3.6 0 .8.1-.1.2 0 .4 0z" class="st0"/><path id="Rectangle" fill="none" d="M0 3h32v32H0z"/></g></g></g></svg>
