<svg xmlns="http://www.w3.org/2000/svg" data-name="Layer 1" viewBox="0 0 1792.06 1521.26"><path fill="#0a0a0a" d="M307.65 33.56c-23.79-.71-30.8 11.87-39.85 33.56-15.37 36.35-37.06 150.32-69.23 160.8v1.39c36.38 3.51 55.91 46.86 65.7 91.61L286 422.99c4.9 23.06 19.59 46.14 41.28 41.25v27.27c-14 7.68-34.27 9.08-46.86 9.08-44.74 0-60.12-29.35-68.54-68.52l-20.27-97.18c-9-43.35-25.16-78.31-69.23-78.31h-21v198.58l31.49 21v20.26H0v-20.28l30.74-21V44.74L4.21 26.56V6.29H128v20.27l-26.59 18.18v172.7c88.82 0 62.91-154.53 126.56-199.28 22.37-15.37 53.12-11.87 79.7-11.87zM418.33 3.47l4.89 26.59h2.11C446.28 6.97 477.76 0 507.82 0 591 0 642.06 46.82 642.06 130v242.63c0 88.81-60.85 130.06-139.13 130.06-77.6 0-137.72-37.07-137.72-124.46v-18.86h72.7v18.16c0 49.65 14.69 79 66.38 79 42 0 64.33-25.87 64.33-83.91V266.38H443.49v-45.46h125.13v-90.89c0-61.52-30.06-83.89-62.91-83.21-50.32 0-62.9 36.38-62.9 80.42v7.68h-73.44l.68-131.45zM782.8 45.43l-30.12-18.16V6.97H1024v20.3l-26.58 18.16v407.62h43.33l4.9 115.37h-36.33l-21-72H742.2l-21 72h-36.32l4.21-115.37c32.85 3.5 51.75-3.5 55.9-45.43zm14.63 354.48c-2 22.37-2.79 39.17-23.74 51v2.1h153.08V48.93H831.7zM1162 45.43l-30.11-18.16V6.97h271.33v20.3l-26.59 18.16v407.62h43.33l4.89 115.37h-36.32l-21-72h-246.17l-20.95 72H1064l4.22-115.37c32.85 3.5 51.75-3.5 55.9-45.43zm14.64 354.48c-2 22.37-2.79 39.17-23.74 51v2.1h153.08V48.93h-95.07zm487.5-392.94h123v19.59l-25.85 18.18v410.42l30.74 21.66v19.58h-132.79v-19.58l31.49-21.66c0-101.4-.74-217.45-.74-318.84l-30.75 95.78L1574 456.55l29.38 20.27v19.58h-132.92v-19.58l30.74-21.66V44.74l-25.84-18.18V6.97h123.08v19.59l-25.9 18.18v327.89l28.69-92.29L1690 46.14l-25.85-19.58zM90.21 1057.31l27.79 14.85v17.91H0v-17.91l27.82-14.85V690.9l-23.49-16v-17.96h271.88v17.91l-23.5 16v366.41l27.82 14.85v17.91H163.11v-17.91l27.21-14.85V694.02H90.21zm282.54 2.47l21.63 11.12v19.17h-84.06v-19.17l22.28-11.72c30.89-127.89 65.46-277.42 97-404.7h63.64l99.47 402.83L615 1070.9v19.17H509.9v-16l17.3-13.64-20.37-87.08h-113.7zm28.43-121.7h97L450 729.84h-.61zm369.68-135.94l56.25-116.77-21.64-11.12v-17.31h85.28v17.31l-21 11.72-80.35 165 82.78 210.66 22.24 13v15.45H837c-17.91 0-25.31-1.26-35.22-24.71l-53.13-132.21-61.78 127.89 21.63 11.12v17.91h-86.56v-17.91l21-11.78 87.74-178.55-76.59-197.73-17.91-11.12v-16.05h56.19c17.91 0 23.5 2.47 33.41 24.7zm163.86-127.29v-17.91h109.38v17.91l-23.5 16v160.69h100.12V690.9l-23.5-16v-17.96h109.38v17.91l-23.5 16v366.41l27.83 14.85v17.91H1093.5v-17.91l27.22-14.85v-170.5H1020.6v170.55l27.82 14.85v17.91h-118v-17.91l27.83-14.85V690.9zm561.87 415.22h-232.34v-17.91l27.83-18.57V689.04l-23.5-16v-16.1h220v97h-30.89l-17.31-60.57h-84v162.5h59.32l16-34h18.56v104.4h-18.56l-16-32.71h-59.32v136.55c0 9.86-2.46 15.44-13 19.11v3.12h105.05l21-59.31h27.22zm199.73-394.19v354l27.17 19.12v21h-119.24v-21l27.17-19.12v-354h-46.33l-19.78 71h-29.68l2.52-110h251.45l2.46 110h-29.63l-21-71zM54.33 1230.94l-16.69-10.08v-11.23h150.62v11.27l-14.76 10.08v226.28h24.05l2.72 64h-20.16l-11.66-40H31.82l-11.63 40H0l2.34-64c18.23 1.94 28.73-1.95 31-25.22zm8.15 196.78c-1.14 12.42-1.55 21.74-13.18 28.33v1.17h85v-224.34H81.5zm309.08 53.56H225.62v-11.25l17.47-11.64v-229l-14.76-10.1v-10.08H366.5v60.93h-19.4l-10.87-38h-52.78v102.08h37.26l10.08-21.35h11.66v65.59h-11.66l-10.08-20.57h-37.26v85.74c0 6.21-1.55 9.72-8.15 12v2h66l13.18-37.26h17.1zm190.28-160.29c0 48.51-34.54 61.33-77.24 61.33h-24.08v76.07l17.1 11.64v11.25h-73.76v-11.25l17.47-11.64v-227.83l-14.75-10.1v-11.25h78.78c41.94 0 76.48 15.91 76.48 63.26zm-101.32-87.71v126.52h24.84c26 0 36.09-14 36.09-38.81v-48.52c0-24.84-9.29-39.19-35.71-39.19zm278.02 248H592.59v-11.25l17.48-11.64v-229l-14.76-10.1v-10.08h138.17v60.93h-19.4l-10.88-38h-52.77v102.08h37.26l10.08-21.35h11.66v65.59h-11.66l-10.08-20.57h-37.26v85.74c0 6.21-1.55 9.72-8.16 12v2h66l13.18-37.26h17.1zm32.3 0v-11.25l17.47-11.64v-227.45l-14.76-10.08v-11.23h86.94c36.09 0 60.18 9.7 60.18 49.68v39.21c0 15.13-7.78 29.88-21.75 35.71 17.86 7 29.9 21 29.9 46.19v45.79c0 44.64-31.82 55.11-69.87 55.11zm117.59-100.9c0-22.52-8.91-33.39-33-33.39H827.5v96.26c0 7-1.55 10.48-8.15 12.8v1.94H859c22.91 0 29.48-9.3 29.48-31.82zm-8.15-121.11c0-14.74-8.12-27.16-24-27.16H827.5v95.52h28.73c16.3 0 24-15.14 24-29.1zm242.33 159.14c0 47.36-34.54 62.87-76.48 62.87h-78.79v-10.87l14.76-10.08v-227.84l-17.47-11.63v-11.23h73.76v11.27l-17.1 11.63v79.57h24.08c42.7 0 77.24 12.8 77.24 61.33zm-40.39 0v-45c0-24.84-10.08-38.82-36.09-38.82h-24.84v123h25.22c26.42.04 35.71-14.34 35.71-39.18zm120.78 27.16c-7.74 20.58-10.08 38-34.54 38-8.53 0-20.57-1.16-28.32-5v-15.14c12.42 2.72 19.41-12.42 23.29-22.9l18.24-50.07c4.27-12 9.32-19.41 21-25.62-25.22-5-43.86-23.67-43.86-57v-35.33c0-47.35 34.16-63.26 76.07-63.26h78.78v11.25l-14.35 10.1v227.83l17.07 11.64v11.25h-73.73v-11.29l17.07-11.64v-88.89c-22.88 0-29.87 5.44-37.64 26.39zm31.83-212.29c-26.77 0-35.68 14.35-35.68 39.19v35.33c0 24.84 10.08 39.19 36.09 39.19h24.84v-113.71zm175.94 235.98v12h-60.14v-12l16.27-10.1v-228.6l-15.51-10.1v-10.83h56.28c14.35 0 20.2 3.11 23.67 17.86 14.38 76.46 22.92 127.69 31.83 203.76h.79l34.54-204.93c3.1-14.35 8.15-17.07 22.88-16.69h56.29v10.87l-15.14 10.1v227.83l17.1 11.64v11.25h-74.15v-11.29l17.07-11.64v-182.76l1.17-38.81h-1.55l-42.69 240.63h-32.21c-8.15 0-12-3.49-13.21-10.86-12.8-77.24-25.22-150.21-39.6-227.05h-1.93l1.93 50.06v169.61zm310.28-259.63h68.3v10.87l-14.35 10.1v227.83l17.06 12v10.87h-73.73v-10.87l17.48-12c0-56.29-.41-120.71-.41-177l-17.07 53.18-47.33 124.55 16.31 11.25v10.87h-73.76v-10.87l17.06-12v-227.85l-14.35-10.1v-10.83h68.33v10.87l-14.38 10.1v182l15.93-51.23 49.27-130-14.35-10.87z"/></svg>
