<?xml version="1.0" standalone="no"?>
<!DOCTYPE svg PUBLIC "-//W3C//DTD SVG 20010904//EN"
 "http://www.w3.org/TR/2001/REC-SVG-20010904/DTD/svg10.dtd">
<svg version="1.0" xmlns="http://www.w3.org/2000/svg"
 width="700.000000pt" height="700.000000pt" viewBox="0 0 700.000000 700.000000"
 preserveAspectRatio="xMidYMid meet">
<metadata>
Created by potrace 1.11, written by Peter Selinger 2001-2013
</metadata>
<g transform="translate(0.000000,700.000000) scale(0.100000,-0.100000)"
fill="#000000" stroke="none">
<path d="M2013 6976 c-16 -17 -19 -26 -11 -40 14 -25 1 -34 -16 -11 -12 16
-16 17 -30 6 -9 -7 -16 -10 -17 -5 0 10 -20 -34 -25 -54 -1 -7 4 -16 11 -18
14 -6 14 -15 -3 -57 -15 -37 -15 -45 3 -63 8 -9 15 -20 15 -25 0 -17 -31 -22
-43 -7 -28 33 -46 41 -62 28 -16 -13 -21 -50 -6 -50 15 0 19 -49 5 -54 -8 -3
-14 -1 -14 5 0 6 -4 7 -10 4 -5 -3 -10 -15 -10 -26 0 -10 -4 -19 -9 -19 -5 0
-8 -12 -7 -26 3 -28 29 -49 51 -41 18 7 27 -29 10 -43 -7 -6 -20 -8 -29 -4 -9
3 -23 1 -31 -6 -8 -7 -15 -9 -15 -6 0 4 -7 1 -15 -7 -8 -8 -12 -24 -10 -36 2
-12 0 -19 -5 -16 -6 3 -22 -6 -36 -21 -24 -23 -28 -24 -36 -10 -13 23 -27 20
-20 -6 3 -14 2 -19 -6 -14 -18 11 -25 -19 -12 -45 11 -20 10 -21 -9 -16 -14 3
-24 0 -28 -9 -3 -8 -11 -14 -19 -14 -8 0 -22 -9 -31 -19 -9 -11 -21 -18 -25
-15 -5 3 -17 -1 -27 -10 -11 -10 -25 -14 -36 -10 -13 5 -16 4 -11 -5 5 -8 0
-14 -14 -18 -16 -4 -18 -8 -8 -14 11 -8 11 -10 -1 -18 -14 -9 -3 -41 15 -44 5
-1 8 -7 6 -13 -4 -19 36 -47 58 -41 13 3 28 -2 40 -16 24 -25 24 -31 5 -47
-11 -9 -12 -16 -2 -33 7 -12 16 -25 21 -28 4 -4 3 -10 -4 -14 -6 -4 -12 -5
-13 -4 -28 53 -44 61 -53 25 -7 -28 -18 -33 -30 -14 -5 8 -10 6 -14 -8 -4 -10
-3 -24 2 -31 6 -7 3 -15 -9 -23 -16 -10 -15 -11 7 -6 23 5 25 3 24 -30 -2 -45
-7 -49 -57 -49 -26 0 -41 -4 -40 -11 1 -6 -9 -11 -23 -11 -13 0 -24 5 -23 11
1 6 1 24 0 40 -1 22 -5 27 -18 22 -9 -4 -20 -1 -24 6 -6 10 -11 10 -20 1 -9
-9 -5 -18 16 -39 15 -15 20 -24 11 -21 -9 4 -16 3 -16 -2 0 -12 -43 -6 -48 7
-2 6 -10 8 -18 5 -8 -3 -14 1 -14 8 0 11 -2 11 -10 -1 -7 -12 -12 -12 -22 -2
-17 17 -28 15 -28 -7 0 -11 9 -21 23 -25 21 -6 21 -7 3 -21 -11 -9 -26 -11
-40 -6 -45 16 -82 -18 -48 -44 10 -8 10 -17 -4 -43 -12 -25 -19 -30 -29 -22
-10 9 -15 4 -20 -19 -8 -37 -29 -32 -45 12 -11 30 -12 31 -20 11 -5 -12 -13
-25 -19 -29 -8 -4 -8 -12 -1 -26 7 -13 7 -19 0 -19 -5 0 -10 -5 -10 -11 0 -14
25 -39 39 -39 6 0 11 -4 11 -10 0 -5 -7 -7 -15 -4 -9 4 -15 0 -15 -10 0 -9 -7
-16 -15 -16 -8 0 -16 -7 -16 -15 -3 -32 -4 -36 -19 -45 -8 -5 -11 -10 -7 -10
12 0 -12 -40 -24 -40 -6 0 -8 4 -4 10 3 5 0 18 -6 28 -14 23 -45 18 -52 -8 -3
-13 -11 -16 -32 -13 -24 5 -26 3 -23 -18 2 -13 -2 -24 -9 -24 -20 0 -27 -14
-9 -21 9 -3 16 -15 16 -25 0 -13 5 -17 16 -12 14 5 14 4 -1 -14 -10 -12 -25
-19 -36 -16 -15 4 -19 0 -19 -21 0 -19 5 -26 19 -26 10 0 22 -7 25 -16 3 -8 2
-12 -3 -9 -14 8 -25 -15 -23 -47 1 -15 -5 -36 -15 -47 -17 -20 -17 -20 -27 1
-14 27 -30 25 -36 -4 -4 -16 -8 -19 -14 -10 -4 6 -4 17 0 23 4 7 3 10 -2 7 -5
-2 -26 -12 -47 -21 -29 -13 -37 -23 -37 -43 0 -38 -34 -28 -36 11 -2 49 -4 51
-19 31 -12 -16 -12 -22 -2 -28 7 -5 1 -8 -17 -6 -25 3 -30 -1 -38 -28 -5 -19
-16 -34 -28 -37 -16 -4 -20 -14 -20 -43 0 -36 0 -37 -20 -19 -11 10 -18 20
-16 24 2 3 -1 13 -7 21 -13 17 -47 23 -47 9 0 -5 -9 -18 -19 -28 -13 -13 -22
-16 -30 -8 -7 7 -12 5 -17 -7 -4 -10 -2 -22 5 -29 6 -6 11 -21 11 -33 0 -12 6
-24 13 -27 7 -3 13 -18 12 -33 0 -22 -5 -30 -22 -32 -22 -3 -33 -22 -13 -22 6
0 10 -5 10 -11 0 -6 -8 -9 -19 -6 -31 8 -52 -10 -41 -37 5 -13 6 -27 3 -30
-12 -12 -33 -6 -33 10 0 8 -4 12 -10 9 -5 -3 -10 0 -10 8 0 7 -11 24 -25 37
l-24 23 -12 -27 c-9 -19 -18 -25 -34 -22 -37 7 -50 -8 -31 -37 12 -18 14 -27
6 -32 -8 -5 -4 -12 10 -22 13 -10 20 -22 17 -34 -4 -13 2 -19 25 -24 24 -6 27
-9 17 -21 -10 -12 -8 -18 7 -29 10 -8 26 -12 35 -9 12 3 18 -3 21 -25 4 -27 3
-28 -19 -18 -37 17 -37 2 1 -35 32 -32 34 -36 21 -55 -18 -25 -11 -33 32 -33
18 0 33 -4 33 -10 0 -5 -4 -10 -10 -10 -5 0 -10 -5 -10 -12 0 -9 3 -9 12 0 18
18 31 15 26 -6 -3 -10 1 -23 9 -30 7 -7 13 -22 13 -32 0 -17 7 -20 44 -20 32
0 46 -5 50 -17 6 -15 8 -15 19 1 12 16 14 16 39 -3 14 -12 31 -21 37 -21 5 0
16 -8 23 -19 7 -10 23 -21 35 -25 13 -4 23 -14 23 -21 0 -8 9 -20 21 -28 l20
-15 -22 -16 c-12 -8 -26 -13 -29 -11 -4 3 -10 -6 -12 -20 -3 -14 -1 -25 3 -25
5 0 9 -6 9 -14 0 -8 6 -14 13 -13 43 1 59 -4 50 -15 -8 -12 -10 -34 -3 -40 1
-2 3 -16 4 -31 2 -26 0 -28 -26 -23 -28 5 -28 5 -13 -18 11 -16 13 -26 6 -31
-16 -9 -13 -25 4 -25 8 0 15 4 15 9 0 5 7 12 16 15 13 5 15 1 10 -20 -4 -15
-2 -32 5 -40 6 -8 12 -39 14 -70 1 -48 5 -58 25 -69 12 -7 19 -15 13 -18 -5
-3 -15 -2 -23 3 -16 10 -40 -11 -40 -34 0 -9 -8 -16 -17 -16 -15 -1 -15 -3 5
-20 14 -12 19 -21 11 -25 -6 -4 -21 3 -34 15 l-23 22 -26 -23 c-14 -12 -23
-25 -21 -30 3 -4 1 -18 -4 -31 -6 -12 -10 -17 -10 -10 -1 6 -11 12 -22 12 -17
0 -20 -5 -16 -21 5 -17 2 -20 -14 -16 -54 14 -97 -52 -69 -108 8 -16 19 -33
23 -36 5 -4 2 -19 -6 -35 -8 -16 -12 -35 -10 -41 3 -8 -3 -13 -14 -13 -20 0
-26 -33 -10 -57 8 -13 -1 -43 -14 -43 -11 0 1 -54 13 -58 5 -2 4 -10 -2 -17
-8 -9 -6 -14 6 -19 13 -5 14 -9 5 -20 -9 -11 -7 -20 12 -40 13 -14 30 -26 36
-26 7 0 9 -4 6 -10 -3 -5 -1 -10 6 -10 8 0 9 -3 0 -14 -9 -10 -8 -16 4 -26 20
-17 19 -31 -2 -23 -13 5 -15 2 -10 -11 4 -10 7 -20 7 -22 0 -3 12 -10 28 -16
l27 -12 -31 -4 c-27 -3 -30 -6 -26 -32 2 -17 10 -30 18 -30 13 0 15 -5 18 -42
1 -16 26 -42 40 -44 32 -3 36 -5 36 -13 0 -5 -13 -14 -29 -21 -16 -6 -31 -19
-34 -29 -5 -20 16 -54 27 -43 4 4 14 -1 21 -12 9 -11 20 -16 30 -12 14 5 16 1
10 -27 -4 -17 -12 -38 -17 -45 -8 -9 -6 -12 6 -12 9 0 19 7 22 15 5 11 10 12
18 6 19 -16 72 -17 90 -1 25 20 42 -1 26 -30 -11 -21 -11 -22 11 -16 61 19 96
-6 51 -36 -15 -10 -21 -18 -14 -18 6 0 12 -7 12 -15 0 -8 4 -15 9 -15 5 0 7
-10 3 -22 -3 -14 -1 -19 6 -14 6 4 21 2 33 -4 17 -9 23 -8 33 6 9 11 15 13 20
6 3 -6 2 -13 -4 -17 -14 -9 -12 -45 3 -45 7 0 18 9 25 20 7 12 23 20 38 20 14
0 23 -4 19 -10 -3 -5 -1 -10 5 -10 8 0 8 -6 0 -21 -15 -27 -5 -37 22 -20 19
12 20 11 14 -11 -21 -65 -20 -71 3 -59 11 7 21 17 21 24 0 8 4 6 10 -3 8 -13
11 -11 16 8 8 28 20 28 29 -1 4 -14 8 -17 12 -9 6 16 53 -31 53 -54 0 -24 14
-15 37 24 17 28 22 32 23 17 0 -21 40 -34 40 -13 0 6 6 6 15 -2 12 -10 15 -10
15 1 0 11 2 11 9 -1 6 -8 7 -19 4 -25 -4 -5 6 2 21 17 16 15 32 25 37 22 5 -3
9 -1 9 5 0 20 38 33 61 21 18 -10 20 -9 17 12 -2 17 2 23 17 22 21 0 22 -5 9
-38 -6 -17 -5 -17 17 -6 17 10 24 10 27 1 5 -16 29 -14 36 5 3 8 9 13 14 10
16 -10 35 13 34 43 -1 34 17 41 39 15 11 -14 15 -10 26 30 10 34 19 46 33 46
10 0 22 4 25 10 3 6 12 10 20 10 8 0 26 12 40 26 17 17 32 23 45 19 12 -4 20
-2 20 5 0 7 7 10 15 6 12 -4 15 3 15 30 0 22 6 37 15 41 22 8 27 0 16 -29 -12
-31 0 -51 32 -52 20 -1 24 2 21 20 -5 29 51 92 60 68 3 -9 4 -20 0 -25 -3 -5
0 -9 5 -9 6 0 11 5 11 10 0 11 39 13 64 4 9 -3 16 -15 16 -25 0 -24 9 -24 26
-2 7 10 16 15 20 11 4 -4 1 -14 -6 -23 -16 -19 -6 -45 19 -45 10 0 22 -7 25
-16 6 -15 8 -15 24 -2 29 25 39 28 37 10 0 -10 -4 -23 -9 -30 -4 -7 -2 -12 8
-12 8 0 22 -7 31 -16 11 -12 19 -13 29 -5 19 16 26 3 19 -33 -6 -28 -5 -30 10
-18 9 8 22 12 29 10 7 -3 18 2 25 11 11 14 12 13 13 -7 0 -13 4 -21 9 -17 5 3
12 1 16 -4 3 -6 12 -8 20 -4 10 3 15 -1 15 -13 1 -33 39 27 40 61 1 25 2 27
11 13 13 -23 26 -23 33 0 7 19 66 27 66 8 0 -7 14 -11 31 -11 24 1 34 7 41 25
9 24 10 23 64 -31 43 -43 55 -63 56 -87 1 -31 18 -47 18 -17 0 16 12 20 24 7
4 -4 12 -7 17 -7 14 0 119 -69 119 -78 0 -5 -6 -5 -12 0 -7 4 -28 8 -46 8 -23
0 -31 -4 -27 -14 3 -7 0 -20 -6 -27 -15 -18 -5 -18 33 2 24 13 36 14 49 5 10
-6 25 -8 33 -5 17 6 69 -29 72 -49 23 -148 39 -211 86 -352 27 -82 77 -204
111 -270 156 -307 174 -354 171 -437 -15 -483 -23 -574 -51 -591 -4 -3 -30 -8
-58 -11 -259 -33 -501 -114 -707 -237 l-133 -79 1055 0 c1032 1 1054 1 1010
19 -25 10 -108 50 -185 89 -120 60 -353 149 -435 166 -186 37 -188 38 -199 65
-26 64 -34 155 -34 396 0 306 0 309 85 457 39 68 82 143 96 168 14 25 56 99
94 165 120 209 146 271 213 500 19 65 46 96 132 151 29 19 53 40 53 48 0 18
49 76 50 59 0 -7 9 -13 19 -13 11 0 22 -8 25 -17 3 -10 26 -98 52 -196 39
-149 45 -180 33 -188 -11 -7 -10 -9 6 -10 11 0 -2 -9 -30 -19 -29 -11 -42 -19
-30 -20 18 -1 17 -3 -5 -13 -14 -6 -29 -17 -33 -24 -4 -7 -16 -13 -25 -13 -10
0 -28 -7 -40 -16 -12 -8 -26 -13 -31 -10 -9 6 -37 -21 -30 -28 2 -2 24 -8 49
-14 35 -8 39 -10 16 -11 -21 -1 -27 -5 -22 -16 3 -10 -1 -15 -12 -16 -10 0
-12 -3 -4 -6 6 -2 12 -11 12 -18 0 -8 7 -11 19 -8 11 3 27 -4 39 -17 14 -16
26 -19 46 -14 18 4 26 2 26 -7 0 -10 3 -10 12 -1 16 16 31 15 22 0 -6 -10 -4
-10 8 0 9 7 22 11 29 10 8 -2 19 15 27 42 7 25 17 53 22 62 6 11 6 27 0 43 -6
15 -10 32 -9 38 0 7 7 -6 15 -27 8 -22 23 -45 34 -53 16 -11 20 -25 19 -66 -1
-32 13 -104 35 -185 20 -73 36 -139 36 -147 0 -27 21 -26 84 5 48 24 70 30 88
24 32 -11 42 -11 49 -1 4 5 13 6 20 2 7 -5 25 -9 41 -10 24 -2 32 3 48 36 25
47 27 89 3 44 -32 -60 -58 -57 -59 6 -1 77 -101 189 -168 189 -7 0 -13 -14
-14 -32 -3 -41 -5 -42 -33 -19 -25 20 -23 33 18 91 16 22 16 23 1 12 -30 -24
-95 22 -118 83 -27 69 -23 88 32 155 15 19 28 38 28 42 0 12 -31 9 -78 -7 -24
-9 -48 -12 -54 -9 -6 4 -8 2 -5 -3 4 -6 -4 -14 -18 -17 -21 -5 -24 -11 -20
-34 2 -15 -2 -7 -10 18 -9 25 -17 54 -19 65 -2 11 -22 88 -45 171 -44 162 -47
179 -31 169 6 -3 10 -17 10 -31 0 -13 5 -24 10 -24 6 0 10 -9 10 -20 0 -11 5
-20 10 -20 6 0 10 15 10 33 l0 32 38 -44 c32 -37 40 -42 45 -27 4 9 11 15 16
11 5 -3 13 5 16 16 7 20 8 20 17 5 5 -9 13 -14 18 -11 5 3 19 1 30 -5 18 -10
19 -9 10 16 -12 32 -4 50 16 33 11 -9 18 -8 34 6 10 9 24 14 29 10 6 -3 11 -2
11 4 0 5 -4 12 -9 15 -5 3 -7 15 -4 26 5 19 6 19 34 -2 28 -21 40 -58 19 -58
-16 0 -12 -14 14 -53 14 -20 38 -87 55 -149 17 -62 44 -156 60 -208 16 -52 25
-99 21 -103 -10 -11 -1 -88 11 -102 5 -5 9 -29 9 -54 0 -42 1 -43 19 -27 17
16 19 15 29 -11 45 -115 63 -236 46 -300 -8 -28 -19 -29 -67 -3 -20 11 -46 20
-57 20 -11 0 -20 7 -20 15 0 8 -7 15 -16 15 -8 0 -12 5 -9 10 3 6 -1 10 -10
10 -9 0 -14 -4 -11 -9 3 -5 -6 -12 -21 -16 -20 -5 -31 -2 -40 11 -8 11 -13 13
-13 5 0 -7 -4 -10 -9 -7 -12 8 -41 -3 -41 -15 0 -5 8 -9 18 -9 10 -1 3 -7 -15
-15 -18 -8 -33 -17 -33 -20 0 -4 13 -25 29 -48 15 -23 40 -66 55 -94 14 -29
32 -53 39 -54 23 -1 49 -8 55 -13 3 -4 -12 -5 -34 -4 -30 2 -49 -4 -84 -28
-77 -53 -132 -86 -126 -75 4 6 2 11 -3 11 -14 0 -14 -6 0 -32 11 -20 31 -20
104 -2 16 4 17 3 5 -5 -22 -15 9 -14 91 3 72 15 124 10 174 -18 49 -26 79 -21
93 17 10 27 9 29 -2 14 -20 -25 -27 -21 -15 11 6 15 10 27 9 27 -5 0 21 81 29
94 6 9 7 -3 4 -32 -5 -39 -3 -46 16 -52 25 -8 25 -8 7 -71 -8 -27 -20 -68 -26
-91 -8 -32 -16 -43 -30 -43 -11 0 -24 -9 -30 -19 -15 -30 -11 -39 5 -11 17 30
20 21 4 -14 -7 -14 -17 -23 -22 -19 -6 4 -8 0 -4 -9 3 -9 0 -24 -7 -34 -24
-36 -36 -84 -26 -109 5 -14 15 -22 22 -19 23 9 88 102 110 156 12 29 38 80 57
113 20 33 42 72 50 87 16 30 12 30 129 1 56 -14 67 -21 88 -55 34 -53 69 -66
101 -37 12 13 23 27 23 32 0 6 11 25 26 44 14 18 32 49 40 68 13 31 13 36 -1
41 -8 3 -34 -3 -58 -15 -24 -12 -51 -21 -60 -21 -9 0 -17 -5 -17 -11 0 -6 -6
-9 -12 -6 -7 2 -23 0 -36 -4 -18 -7 -41 -2 -90 20 -37 16 -86 34 -109 40 -28
8 -58 27 -87 56 -24 24 -47 41 -51 37 -14 -15 20 55 53 106 27 41 40 52 60 52
25 1 26 1 7 12 -10 6 -40 11 -66 11 -35 -1 -46 2 -43 12 3 7 -12 41 -34 77
-64 104 -113 260 -100 318 2 11 -4 14 -22 12 -21 -4 -22 -2 -11 12 12 14 11
16 -5 10 -18 -5 -18 -5 0 10 11 9 17 19 13 22 -4 4 -13 1 -22 -6 -20 -17 -19
-1 2 22 15 17 15 19 0 31 -27 19 -149 438 -133 454 4 4 11 2 15 -6 6 -9 10 -7
14 8 3 12 2 21 -1 21 -15 1 -50 37 -56 58 -6 17 -3 22 12 22 29 0 33 10 16 41
-15 30 -5 39 16 14 15 -18 31 -11 24 10 -8 19 43 32 67 16 24 -14 30 -14 28 2
-4 35 3 37 31 7 18 -19 30 -41 28 -53 -2 -15 3 -21 20 -22 30 -2 45 25 32 59
-10 26 -4 31 22 21 10 -4 13 -16 10 -35 -3 -23 0 -30 12 -30 9 0 16 -5 16 -11
0 -6 9 -9 20 -6 13 3 31 -4 49 -19 16 -13 33 -24 39 -24 5 0 15 -7 22 -15 7
-8 16 -12 21 -9 11 6 41 -21 32 -30 -3 -3 -1 -12 5 -19 7 -8 9 -17 5 -20 -13
-13 13 -7 35 9 22 15 22 14 22 -24 0 -26 5 -42 15 -46 8 -3 15 0 16 7 0 7 5 2
11 -10 12 -25 28 -29 46 -11 8 8 15 8 28 -3 19 -15 19 -15 -1 34 -4 9 3 13 20
13 14 0 24 -5 24 -10 -3 -30 1 -38 14 -28 17 14 57 4 57 -15 0 -8 4 -11 10 -8
5 3 20 -3 32 -15 12 -11 24 -16 28 -10 3 5 23 7 44 4 30 -4 37 -2 33 10 -3 8
0 17 7 19 8 3 18 -9 25 -29 12 -33 31 -46 31 -21 0 6 11 25 24 40 17 20 26 24
32 16 5 -9 10 -5 16 12 l9 24 14 -25 c8 -14 14 -19 15 -11 0 11 6 8 21 -7 11
-12 24 -20 29 -17 10 6 2 43 -11 51 -5 3 -9 12 -9 20 0 11 4 12 19 4 34 -17
45 -12 28 13 -12 18 -12 25 -2 34 17 16 54 8 70 -14 10 -13 17 -15 25 -7 8 8
7 15 -5 28 -9 9 -13 21 -9 27 5 9 11 7 20 -6 12 -16 16 -16 30 -4 9 8 19 13
21 12 12 -10 32 -1 27 12 -4 8 -1 15 6 15 7 0 10 6 7 14 -3 8 -1 16 6 19 7 2
2 9 -11 16 -29 15 -29 41 1 42 29 2 29 2 50 -6 15 -6 16 -4 8 19 -12 30 2 44
26 24 20 -17 81 -17 88 0 3 7 9 10 15 7 6 -4 8 -11 5 -16 -4 -5 3 -9 15 -9 14
0 19 4 13 13 -4 6 -8 17 -9 23 -1 6 -5 21 -9 33 -6 19 -4 21 19 15 20 -5 26
-2 26 10 0 9 8 16 20 16 11 0 21 6 21 13 1 6 2 19 3 27 0 8 -12 22 -28 30 -16
8 -27 20 -25 25 2 6 8 9 13 7 4 -1 19 4 33 13 16 11 22 22 18 35 -4 12 2 23
16 34 12 8 23 27 24 41 0 21 -4 25 -28 25 -17 0 -26 4 -22 11 4 6 13 8 20 5 7
-2 18 7 24 20 13 29 14 34 4 33 -23 -4 -24 3 -4 20 18 16 19 20 6 25 -14 5
-12 10 9 31 14 14 29 25 35 25 16 0 25 42 10 51 -11 6 -10 9 4 15 11 4 16 13
13 21 -3 8 1 28 10 45 9 16 11 27 5 23 -14 -8 -32 36 -20 50 14 18 6 54 -14
59 -10 2 -16 9 -13 14 3 6 -1 23 -9 38 -8 16 -11 31 -6 34 23 15 38 64 29 94
-10 33 -49 59 -74 49 -9 -3 -14 2 -14 17 0 18 -4 21 -24 16 -25 -6 -45 17 -26
29 6 4 -4 18 -20 32 l-31 26 -24 -23 c-14 -13 -29 -19 -36 -14 -9 5 -5 10 12
16 22 9 23 10 7 22 -10 7 -15 16 -11 20 13 12 -33 44 -50 35 -10 -6 -18 -5
-22 1 -3 5 1 10 9 10 22 0 30 18 33 79 1 29 8 60 14 67 6 8 9 25 7 39 -6 29
-1 31 23 9 24 -22 48 -14 25 8 -14 15 -14 18 -1 32 21 21 19 27 -9 20 -19 -4
-24 -1 -28 20 -3 14 0 30 6 36 7 7 7 16 -2 30 -11 17 -10 20 8 22 11 0 26 1
33 2 17 1 35 36 30 57 -3 10 -11 15 -17 13 -7 -3 -19 3 -27 12 -11 14 -11 18
5 29 10 8 16 20 13 27 -4 9 -6 9 -6 1 -1 -7 -7 -10 -15 -7 -8 3 -16 -4 -19
-17 -6 -23 -22 -19 -22 4 0 7 -12 13 -28 15 -15 2 -27 0 -26 -5 3 -17 -1 -33
-9 -33 -12 0 -11 104 1 119 10 12 48 30 72 35 6 1 16 5 23 10 19 12 36 -8 25
-29 -5 -9 -7 -30 -5 -46 4 -27 7 -30 31 -24 14 3 32 15 40 25 7 11 21 20 30
20 9 0 22 9 29 20 14 22 38 27 45 8 3 -10 7 -10 20 0 9 8 31 12 49 10 29 -3
33 0 42 30 5 17 13 32 17 32 5 0 6 7 3 15 -7 17 -34 21 -34 4 0 -5 -4 -7 -10
-4 -5 3 -10 1 -10 -5 0 -7 -8 -9 -20 -5 -14 4 -20 2 -20 -8 0 -21 -42 -13 -58
11 -13 20 -13 22 2 22 9 0 16 8 16 18 0 11 9 29 20 42 11 13 20 27 20 32 0 23
24 3 37 -32 13 -32 23 -42 52 -50 49 -14 58 -13 35 5 -18 13 -17 14 18 15 37
0 57 13 38 25 -6 4 -8 11 -5 16 4 5 1 9 -4 9 -6 0 8 18 30 40 40 39 39 51 -2
29 -19 -9 -20 -8 -17 18 2 17 9 28 18 28 8 0 26 6 39 14 17 9 20 15 11 21 -17
11 -3 30 21 30 15 0 19 5 14 19 -4 13 1 25 17 36 16 12 19 19 10 22 -10 4 -9
10 4 30 13 21 14 27 3 34 -8 5 -24 7 -36 4 -16 -4 -23 -1 -23 9 0 8 -5 18 -10
21 -13 8 -60 -21 -60 -36 0 -18 -28 -39 -44 -33 -12 5 -13 10 -5 26 14 26 -6
49 -37 44 -21 -4 -23 -2 -14 14 8 15 5 19 -15 24 -26 7 -32 20 -15 31 15 9 12
27 -2 19 -7 -4 -6 1 3 12 17 21 39 69 39 86 0 6 -9 8 -20 5 -11 -3 -20 -1 -20
4 0 15 -34 45 -50 45 -8 -1 -20 -13 -27 -27 -7 -15 -20 -32 -29 -40 -14 -12
-16 -9 -12 21 2 29 -1 37 -19 45 -15 6 -25 22 -29 42 -6 30 -8 32 -38 27 -21
-4 -27 -3 -17 4 10 7 11 15 3 27 -9 17 -10 17 -20 -1 -6 -12 -7 -26 -2 -34 6
-9 5 -17 -3 -22 -22 -14 -37 -8 -34 13 1 16 -9 28 -40 46 -34 18 -43 20 -43 9
0 -23 -16 -27 -17 -4 -1 11 -4 23 -8 26 -7 7 -35 -31 -29 -40 3 -5 2 -8 -3 -8
-16 1 -45 52 -40 72 8 29 -2 48 -21 40 -15 -5 -15 -4 -3 11 7 9 20 17 27 17 8
0 14 11 14 26 0 21 -4 25 -18 22 -12 -3 -24 2 -31 13 -9 16 -8 19 5 19 8 0 13
4 10 9 -3 5 1 14 9 21 19 16 19 31 0 24 -11 -5 -15 1 -15 25 0 29 -2 30 -26
21 -34 -13 -34 -13 -34 9 0 10 -6 21 -14 24 -19 8 -42 -21 -38 -47 4 -21 4
-21 -12 -1 -8 11 -16 26 -16 33 0 7 -6 15 -14 18 -8 3 -13 11 -10 18 6 17 -41
70 -55 62 -6 -4 -11 -3 -11 1 0 5 10 13 23 18 28 13 33 76 6 108 l-17 22 -12
-27 c-13 -27 -47 -51 -37 -25 3 7 -1 21 -9 32 -8 10 -14 14 -14 7 0 -19 -24
-3 -38 25 -10 23 -10 29 3 36 8 4 15 16 15 26 0 21 -36 32 -66 20 -12 -4 -28
-1 -39 7 -19 14 -19 15 3 20 13 4 22 14 22 25 0 21 -16 26 -23 7 -3 -10 -7
-10 -20 1 -15 12 -17 11 -17 -3 0 -10 -4 -15 -9 -12 -4 3 -21 2 -37 -3 -46
-13 -59 -3 -34 24 24 25 19 55 -5 35 -10 -8 -15 -8 -21 1 -9 15 -22 -13 -23
-51 -1 -28 -35 -40 -44 -16 -4 9 -20 13 -47 11 -31 -2 -43 2 -50 16 -6 10 -6
20 -1 23 5 3 7 15 4 25 -4 16 -1 19 19 14 16 -3 19 -2 10 5 -8 5 -11 20 -8 36
4 24 2 27 -15 23 -16 -4 -24 2 -34 26 l-13 31 -20 -33 c-22 -37 -37 -29 -17 9
11 20 11 28 0 44 -20 30 1 53 50 58 34 3 41 8 50 34 6 17 14 30 20 30 5 -1 11
7 13 17 2 9 -2 17 -8 17 -10 0 -10 3 -1 14 9 11 7 15 -10 19 -13 4 -18 10 -14
17 5 9 1 10 -13 6 -15 -5 -24 -1 -32 15 -10 17 -14 19 -21 8 -7 -12 -10 -11
-21 2 -18 21 -64 49 -83 49 -16 0 -21 25 -5 35 12 8 1 35 -13 32 -7 -1 -11 6
-9 16 4 21 -14 22 -26 1 -8 -14 -12 -13 -33 8 -14 14 -29 23 -35 21 -7 -2 -10
6 -7 20 3 14 -2 29 -11 36 -9 8 -16 10 -16 6 0 -4 -6 -2 -14 4 -7 6 -24 10
-37 9 -20 -3 -24 2 -25 24 -1 24 2 27 22 22 15 -4 24 -2 24 6 0 6 4 9 8 6 5
-3 9 8 10 24 0 17 -4 30 -9 30 -6 0 -8 4 -5 9 10 16 -5 43 -18 32 -6 -5 -18
-6 -25 -2 -9 6 -10 11 -3 15 6 4 9 13 5 21 -3 9 1 15 10 15 13 0 14 5 6 30
-10 28 -39 43 -39 20 0 -5 -6 -10 -13 -10 -7 0 -21 -10 -31 -21 -14 -17 -20
-19 -26 -9 -10 16 -1 41 18 56 13 10 13 15 -2 44 -18 37 -21 60 -7 60 15 0 5
49 -14 70 -23 26 -37 25 -53 -1 -16 -26 -28 -18 -13 9 8 16 6 25 -13 47 l-24
28 -26 -26 c-14 -14 -26 -32 -26 -39 0 -7 -7 -22 -15 -32 -12 -16 -17 -17 -30
-6 -11 9 -15 9 -15 1 0 -7 -10 -11 -24 -9 -13 1 -29 -2 -37 -8 -27 -21 -48
-23 -58 -7 -8 15 -12 13 -27 -14 -14 -21 -25 -29 -39 -25 -11 2 -32 4 -47 3
-21 0 -28 5 -28 18 0 31 -26 45 -50 28 -14 -9 -17 -17 -11 -22 6 -3 11 -14 11
-24 0 -10 7 -24 15 -31 11 -9 15 -9 15 -1 0 7 4 10 8 7 15 -9 -2 -96 -19 -96
-12 0 -23 22 -25 50 -2 33 -1 32 -22 21 -13 -7 -22 -7 -29 0 -7 7 -16 -8 -27
-45 -14 -42 -23 -55 -42 -60 -14 -4 -29 -4 -34 -1 -5 3 -4 -8 1 -25 6 -16 17
-30 25 -30 15 0 39 -38 30 -47 -3 -3 -8 2 -12 11 -7 19 -24 22 -24 3 0 -7 9
-30 21 -51 11 -21 18 -40 15 -43 -8 -8 -36 24 -36 42 0 9 -4 14 -9 10 -6 -3
-13 0 -18 7 -4 7 -14 13 -20 14 -7 1 -25 2 -39 3 -28 1 -29 26 0 26 19 0 36
22 36 47 0 11 -5 15 -15 12 -14 -6 -21 17 -16 49 1 6 -22 11 -41 8 -5 0 -8 11
-8 26 0 25 -1 25 -19 9 -17 -16 -19 -16 -25 6 l-6 23 -18 -28 c-14 -22 -22
-27 -42 -22 -14 4 -29 13 -33 21 -12 22 -50 -2 -44 -27 3 -12 0 -19 -9 -19 -8
0 -14 -9 -14 -19 0 -16 -6 -19 -35 -18 -20 1 -35 7 -35 15 0 6 5 12 10 12 6 0
10 5 10 11 0 6 -8 8 -19 4 -18 -5 -19 -2 -16 40 2 26 9 53 16 61 9 11 8 14 -6
14 -10 0 -15 3 -12 7 4 3 0 15 -10 25 -12 13 -13 18 -3 18 9 0 7 6 -5 20 -11
12 -28 20 -39 18 -16 -2 -20 -10 -20 -36 l1 -33 -45 7 c-29 4 -43 3 -39 -3 4
-6 -1 -19 -11 -30 -19 -22 -63 -24 -70 -4 -3 8 -9 6 -18 -8 -8 -11 -21 -18
-28 -15 -8 3 -16 -3 -19 -15 -6 -23 -14 -26 -35 -12 -14 8 -20 29 -21 69 -1
15 -7 22 -21 22 -16 0 -20 7 -20 30 0 23 -5 30 -19 30 -11 0 -23 -12 -31 -30
-16 -38 -23 -38 -37 1 -15 39 -47 37 -51 -4 -2 -19 -9 -27 -23 -27 -16 0 -19
-7 -19 -40 0 -30 -5 -42 -21 -51 -21 -11 -38 0 -39 24 0 5 -6 7 -12 4 -7 -2
-19 3 -25 12 -8 10 -15 12 -20 6 -23 -29 -83 -7 -83 31 0 14 -7 16 -39 11 -41
-5 -56 7 -45 36 10 26 -19 36 -49 17 -17 -11 -24 -20 -18 -24 16 -10 13 -26
-5 -26 -8 0 -12 -5 -8 -11 3 -6 1 -15 -6 -19 -8 -5 -9 -13 -4 -21 5 -8 9 -33
10 -57 1 -39 0 -42 -20 -36 -21 7 -21 6 -2 -15 23 -25 16 -37 -13 -21 -14 7
-21 7 -21 0 0 -5 -7 -10 -16 -10 -10 0 -14 5 -10 15 3 9 -1 18 -9 21 -8 4 -15
14 -15 25 0 25 -36 44 -47 25 -4 -7 -18 -16 -30 -20 -17 -5 -26 -1 -39 19 -15
23 -18 24 -29 8 -11 -15 -15 -15 -29 -3 -10 7 -16 9 -15 4 5 -27 -2 -46 -16
-40 -18 7 -34 -20 -27 -47 4 -17 1 -19 -16 -15 -16 5 -22 2 -22 -10 0 -26 15
-43 38 -45 12 -1 22 -7 22 -14 0 -11 -26 -17 -67 -16 -7 1 -13 -5 -13 -13 0
-8 -6 -13 -12 -12 -7 2 -12 -5 -12 -14 1 -10 -4 -18 -12 -18 -8 0 -14 -7 -14
-16 0 -8 -4 -13 -9 -9 -6 3 1 28 14 57 27 58 25 70 -5 43 -11 -10 -20 -14 -20
-9 1 14 26 44 37 44 9 0 33 42 33 56 0 3 -9 3 -19 -1 -23 -7 -61 25 -61 53 -1
28 -26 67 -34 53 -6 -9 -11 -9 -21 -1 -20 16 -33 5 -28 -23 3 -14 -2 -29 -11
-36 -13 -11 -17 -9 -26 14 -15 38 -13 75 3 69 8 -3 20 2 27 11 7 8 9 15 6 15
-4 0 -3 8 2 17 14 24 -14 51 -37 36 -9 -6 -17 -15 -17 -22 -1 -6 -2 -16 -3
-22 0 -7 -11 -9 -25 -5 -14 3 -27 2 -30 -3 -10 -16 -34 -6 -57 23 -19 24 -23
26 -31 12 -8 -15 -12 -15 -41 1 -18 9 -40 16 -49 14 -10 -1 -18 3 -18 9 0 7
-6 8 -19 0 -27 -14 -27 -14 -41 23 -13 32 -49 78 -59 76 -3 -1 -16 -11 -28
-23z m56 -151 c9 -22 -4 -36 -26 -28 -8 3 -11 14 -6 31 3 14 2 23 -3 19 -6 -3
-11 6 -12 21 l-2 27 21 -25 c11 -14 24 -34 28 -45z m2908 26 c-7 -8 -11 -22
-9 -31 4 -22 -27 -35 -35 -15 -7 20 39 88 49 72 4 -6 1 -18 -5 -26z m-1600
-120 c14 -23 5 -35 -14 -20 -14 12 -18 39 -5 39 4 0 13 -9 19 -19z m271 2 c-2
-10 -12 -19 -23 -20 -11 -2 -14 0 -7 3 6 3 12 12 12 20 0 8 5 14 11 14 6 0 9
-8 7 -17z m-1185 -46 c6 -17 -23 -36 -43 -28 -8 3 -16 14 -16 24 -1 12 6 17
26 17 15 0 30 -6 33 -13z m2134 -8 c2 -16 -3 -20 -24 -17 -37 4 -41 38 -4 38
20 0 27 -5 28 -21z m-1541 -66 c-4 -4 -14 1 -22 11 -22 31 -17 43 8 19 12 -13
18 -26 14 -30z m915 14 c-11 -12 -23 -18 -26 -15 -9 9 27 48 38 41 5 -3 0 -15
-12 -26z m-2231 -272 c-7 -8 -9 -24 -5 -37 7 -21 6 -22 -10 -7 -20 20 -12 59
12 59 12 0 13 -3 3 -15z m3548 -9 c7 -17 7 -27 -1 -35 -18 -18 -29 -13 -17 8
7 13 7 22 0 26 -12 7 -13 25 -2 25 5 0 14 -11 20 -24z m-3465 -49 c4 -10 -2
-13 -19 -9 -33 6 -41 22 -11 22 14 0 27 -6 30 -13z m3403 4 c-10 -16 -46 -20
-46 -5 0 8 10 14 26 14 14 0 23 -4 20 -9z m-3615 -566 c24 -8 24 -16 -1 -43
-20 -21 -33 -27 -54 -23 -5 1 -13 -4 -17 -11 -5 -8 -7 2 -6 24 4 41 49 103 55
74 2 -8 12 -18 23 -21z m3855 -31 c-2 -6 1 -17 7 -23 8 -8 8 -14 -1 -23 -9 -9
-12 -9 -12 1 0 7 -6 11 -15 8 -8 -4 -17 -2 -20 4 -4 5 -10 7 -15 4 -4 -3 -15
6 -24 20 -15 23 -15 25 4 35 11 6 20 18 20 27 0 13 7 10 30 -12 17 -16 29 -34
26 -41z m-4407 -236 c12 -19 12 -20 -17 -3 -16 10 -29 23 -29 30 0 17 29 0 46
-27z m4931 27 c0 -8 -15 -22 -32 -31 -32 -17 -33 -17 -18 2 14 17 41 43 48 44
1 0 2 -7 2 -15z m-5153 -171 c-9 -9 -28 6 -21 18 4 6 10 6 17 -1 6 -6 8 -13 4
-17z m5353 18 c0 -13 -12 -22 -22 -16 -10 6 -1 24 13 24 5 0 9 -4 9 -8z
m-5370 -63 c0 -5 -7 -6 -15 -3 -8 4 -15 13 -15 21 0 13 3 13 15 3 8 -7 15 -16
15 -21z m5400 12 c0 -13 -28 -22 -35 -11 -3 4 1 11 7 13 20 8 28 8 28 -2z
m-5415 -58 c0 -26 -5 -29 -35 -24 -18 2 10 50 30 51 3 0 6 -12 5 -27z m5426 6
c9 -17 8 -23 -2 -30 -15 -10 -31 -8 -30 4 1 4 1 16 1 27 0 26 16 26 31 -1z
m-2911 -768 c0 -20 -19 -41 -37 -41 -18 0 -16 30 3 51 19 21 34 16 34 -10z
m403 -1 c16 -27 16 -31 3 -36 -22 -8 -49 22 -41 46 9 27 18 25 38 -10z m-3433
-38 c0 -5 -5 -13 -11 -19 -7 -7 -8 -13 0 -17 11 -7 -6 -56 -19 -56 -15 0 -19
14 -9 27 9 10 8 17 -1 28 -10 12 -10 18 0 30 6 8 9 19 5 26 -6 8 -2 8 14 0 11
-7 21 -15 21 -19z m115 19 c3 -5 1 -12 -5 -16 -5 -3 -10 -15 -10 -26 0 -12 -7
-19 -20 -19 -14 0 -20 7 -20 23 0 36 39 63 55 38z m6239 -10 c14 -15 15 -24 7
-40 -12 -22 -46 -18 -37 5 3 7 1 16 -4 19 -15 9 -12 35 3 35 8 0 22 -9 31 -19z
m106 -7 c7 -16 7 -32 0 -44 -7 -13 -6 -20 3 -23 9 -4 9 -7 0 -18 -17 -17 -24
-8 -28 36 -2 20 -6 40 -9 43 -6 5 12 32 20 32 3 0 9 -12 14 -26z m-6398 -71
c12 -21 22 -44 20 -51 -2 -7 1 -11 5 -10 11 4 14 -13 7 -34 -6 -19 -24 -25
-24 -8 0 17 -18 11 -23 -7 -4 -14 -5 -13 -6 4 -1 16 -6 21 -16 17 -8 -4 -15
-1 -15 6 0 7 -6 10 -14 7 -7 -3 -19 0 -25 6 -14 14 -15 30 -1 22 5 -3 18 11
27 32 15 31 30 52 40 53 1 0 12 -17 25 -37z m3195 -78 c8 -24 9 -46 2 -62 -5
-13 -9 -34 -9 -46 0 -33 -32 -49 -59 -30 -12 8 -20 20 -18 26 2 7 -1 28 -8 47
-22 64 20 133 66 109 8 -4 20 -24 26 -44z m-3087 6 c0 -4 -12 -14 -26 -21 -22
-12 -24 -16 -10 -26 19 -14 21 -31 3 -31 -7 0 -18 11 -24 24 -10 21 -9 25 12
35 14 6 21 16 18 24 -4 10 0 12 11 8 9 -3 16 -9 16 -13z m6133 -24 c22 -8 10
-47 -14 -47 -23 0 -24 9 -3 25 14 10 13 13 -11 29 -22 14 -25 20 -14 27 9 5
16 2 21 -10 3 -10 13 -21 21 -24z m-6069 -15 c7 -11 -23 -70 -40 -76 -18 -7
-28 12 -15 28 6 7 8 16 5 19 -4 3 -4 13 -1 22 7 16 42 21 51 7z m6012 -3 c3
-6 1 -16 -5 -22 -7 -7 -7 -14 1 -24 8 -10 8 -17 1 -24 -13 -13 -53 35 -53 62
0 21 44 27 56 8z m-5960 -28 c5 -5 26 -14 46 -20 40 -13 49 -29 50 -91 0 -47
-10 -65 -19 -32 -8 30 -53 31 -53 1 0 -18 -2 -19 -15 -9 -8 7 -15 20 -15 29 0
13 -2 13 -9 2 -14 -23 -23 5 -16 53 5 29 3 46 -5 51 -9 6 -9 10 1 16 18 11 23
11 35 0z m2874 -100 c0 -11 -50 -24 -58 -16 -8 8 19 25 41 25 9 0 17 -4 17 -9z
m150 -1 c8 -5 12 -12 8 -15 -9 -9 -48 4 -48 16 0 12 21 11 40 -1z m-420 -76
c0 -12 -30 -34 -47 -34 -16 1 -15 3 6 20 23 20 41 26 41 14z m685 -14 c14 -15
15 -20 4 -20 -15 1 -49 23 -49 34 0 13 28 5 45 -14z m-708 -76 c3 -8 -1 -22
-9 -30 -12 -12 -17 -12 -33 0 -16 12 -17 16 -6 30 17 20 40 21 48 0z m727 10
c20 -8 21 -28 2 -43 -11 -9 -18 -8 -30 4 -30 31 -13 55 28 39z m-1326 -106 c8
-8 8 -17 1 -30 -8 -15 -14 -16 -30 -8 -15 9 -17 15 -9 30 12 23 21 25 38 8z
m1923 -32 c-16 -19 -41 -10 -41 14 0 24 21 31 39 14 11 -10 12 -16 2 -28z
m1834 -230 c1 -24 -14 -25 -42 -3 -18 14 -16 38 2 31 9 -4 15 -1 15 7 0 24 23
-9 25 -35z m-5568 18 c2 -5 -10 -17 -26 -27 -28 -17 -29 -16 -33 8 -3 13 -3
27 0 30 9 8 55 0 59 -11z m1917 -85 c47 2 55 -1 61 -18 7 -24 -4 -47 -38 -79
l-25 -24 -46 27 c-25 15 -46 34 -46 43 0 10 -6 29 -14 44 -13 24 -12 27 2 31
10 2 25 -3 35 -11 11 -10 35 -15 71 -13z m1799 14 c-7 -2 -17 -22 -23 -44 -8
-29 -21 -46 -51 -64 -37 -24 -40 -25 -65 -9 -35 23 -55 65 -42 88 8 13 20 17
57 15 25 -1 55 3 66 9 11 6 31 11 45 11 14 0 19 -3 13 -6z m-922 -60 c53 -38
56 -53 20 -85 -17 -15 -31 -32 -31 -38 0 -5 -4 -10 -10 -10 -5 0 -10 -12 -10
-26 0 -14 -4 -23 -10 -19 -5 3 -10 15 -10 26 0 10 -4 19 -10 19 -5 0 -9 4 -7
8 1 4 -14 22 -33 39 l-35 31 43 41 c23 23 45 41 48 41 3 0 23 -12 45 -27z
m-1013 -55 c13 -13 -2 -38 -23 -38 -21 0 -36 25 -23 38 7 7 17 12 23 12 6 0
16 -5 23 -12z m1999 -4 c5 -14 -11 -34 -27 -34 -3 0 -11 4 -19 9 -19 12 -6 41
19 41 11 0 23 -7 27 -16z m-1897 -59 c0 -8 -7 -15 -15 -15 -8 0 -15 7 -15 15
0 8 7 15 15 15 8 0 15 -7 15 -15z m1780 5 c0 -12 -28 -25 -36 -17 -9 9 6 27
22 27 8 0 14 -5 14 -10z m2140 -80 c0 -5 -2 -10 -4 -10 -3 0 -8 5 -11 10 -3 6
-1 10 4 10 6 0 11 -4 11 -10z m-3030 -28 c0 -14 -11 -21 -26 -15 -21 8 -17 23
6 23 11 0 20 -4 20 -8z m-3113 -43 c-8 -21 -13 -26 -15 -15 -2 10 2 23 8 31
18 22 20 18 7 -16z m6213 -20 c0 -18 -10 -8 -25 24 l-16 32 21 -24 c11 -13 20
-27 20 -32z m-3976 9 c26 -37 20 -50 -21 -46 -30 3 -38 9 -44 30 -11 42 39 54
65 16z m1772 14 c6 -4 11 -16 11 -27 0 -25 -14 -35 -49 -35 -23 0 -28 5 -28
23 0 38 36 60 66 39z m-941 -20 c-3 -3 -11 0 -18 7 -9 10 -8 11 6 5 10 -3 15
-9 12 -12z m75 8 c0 -5 -5 -10 -11 -10 -5 0 -7 5 -4 10 3 6 8 10 11 10 2 0 4
-4 4 -10z m-722 -37 c19 -27 14 -47 -21 -88 -33 -38 -56 -42 -94 -17 -15 9
-33 96 -24 110 18 27 117 24 139 -5z m1484 9 c4 -4 4 -29 -1 -56 -15 -79 -64
-98 -112 -44 -36 39 -43 62 -30 87 16 29 118 38 143 13z m-927 -15 c11 -17 15
-45 13 -95 -1 -66 1 -75 30 -116 l32 -44 -20 -24 c-14 -19 -16 -28 -8 -36 9
-9 8 -18 0 -37 -16 -34 -15 -45 3 -45 26 0 16 -19 -12 -26 -41 -10 -85 -34
-103 -57 -19 -22 -43 -15 -33 9 5 13 1 15 -18 9 -13 -4 -36 -15 -50 -25 -24
-17 -27 -17 -52 -2 -37 22 -60 73 -48 104 5 14 32 44 61 68 46 38 51 46 47 75
-3 20 5 54 20 91 14 32 27 73 30 89 6 35 21 67 37 77 22 15 56 8 71 -15z m307
11 c9 -7 23 -35 31 -63 8 -27 23 -72 34 -100 10 -27 19 -68 19 -90 -1 -36 3
-43 46 -73 79 -57 86 -124 17 -172 l-28 -20 -36 24 c-37 25 -65 25 -65 0 0
-20 -18 -17 -30 5 -5 11 -37 30 -70 42 -63 23 -73 34 -41 44 18 5 18 8 6 32
-9 18 -11 32 -5 44 7 12 5 21 -5 29 -22 18 -18 39 12 79 24 31 27 44 28 119 1
70 4 87 20 98 23 17 46 18 67 2z m-1131 -27 c-12 -8 -51 -4 -51 5 0 2 15 4 33
4 22 0 28 -3 18 -9z m537 -13 c-3 -25 -17 -32 -37 -19 -19 12 -6 41 19 41 16
0 21 -5 18 -22z m846 16 c22 -8 20 -21 -5 -35 -17 -9 -23 -8 -30 2 -21 33 -4
48 35 33z m533 -5 c-14 -8 -22 -8 -30 0 -8 8 -3 11 19 11 25 -1 27 -2 11 -11z
m-4007 -9 c25 -1 25 -1 2 -10 -13 -6 -32 -6 -47 0 -31 12 -33 24 -2 16 12 -3
33 -6 47 -6z m1149 -54 c-19 -20 -77 -30 -99 -16 -10 6 -5 16 24 44 l37 37 28
-23 c26 -22 26 -24 10 -42z m3855 15 c27 -28 28 -31 10 -32 -61 -4 -82 -1
-100 17 -19 19 -19 19 6 41 28 24 40 21 84 -26z m1128 37 c-9 -9 -44 -13 -77
-8 -11 2 -2 6 20 9 57 9 67 9 57 -1z m-3139 -51 c6 -16 -8 -44 -15 -31 -15 27
-16 44 -4 44 8 0 16 -6 19 -13z m101 -20 c-3 -9 -10 -17 -15 -17 -11 0 -12 34
-2 44 11 11 24 -9 17 -27z m-1693 -31 c-12 -5 -21 -14 -21 -20 0 -6 -4 -5 -9
3 -13 21 18 54 37 39 12 -10 11 -14 -7 -22z m2130 -13 c18 -47 11 -89 -17
-107 -41 -27 -76 -17 -99 28 l-20 39 33 33 c18 18 38 34 45 37 23 7 49 -6 58
-30z m1158 16 c11 -19 11 -21 -4 -15 -9 3 -21 6 -26 6 -5 0 -9 7 -9 15 0 22
23 18 39 -6z m-2056 -23 c28 -29 31 -37 22 -58 -26 -63 -74 -77 -115 -33 -19
20 -22 31 -16 67 11 69 57 79 109 24z m71 18 c11 -27 7 -37 -9 -24 -16 14 -20
40 -6 40 5 0 12 -7 15 -16z m672 -20 c-3 -8 -10 -12 -16 -9 -7 4 -6 14 2 28
12 24 24 8 14 -19z m-2261 4 c8 -7 -37 -7 -63 1 -2 1 0 6 3 11 7 12 43 4 60
-12z m3879 16 c25 -10 8 -24 -27 -24 -30 1 -31 1 -13 15 23 17 20 17 40 9z
m-2700 -63 c10 -16 -5 -41 -24 -41 -23 0 -34 16 -26 35 6 16 42 20 50 6z
m1524 -13 c-2 -15 -10 -23 -23 -23 -13 0 -21 8 -23 23 -3 18 1 22 23 22 22 0
26 -4 23 -22z m-94 -54 c3 -8 14 -14 24 -14 11 0 26 -7 33 -16 7 -9 23 -20 36
-25 14 -5 23 -17 23 -29 0 -17 4 -19 25 -14 18 4 25 2 25 -8 0 -10 -12 -14
-42 -14 -39 1 -43 -1 -43 -24 0 -40 -29 -54 -40 -20 -11 35 -25 22 -25 -23 0
-24 -6 -52 -14 -62 -13 -18 -16 -18 -52 -3 -22 9 -49 16 -62 16 -12 1 -44 18
-71 39 -40 31 -50 45 -54 78 -5 36 -2 44 27 74 20 19 49 37 72 42 22 4 55 12
74 17 40 10 56 6 64 -14z m-1257 -1 c28 -5 56 -21 83 -46 34 -33 38 -42 29
-59 -6 -11 -8 -26 -5 -34 4 -9 -16 -30 -56 -59 -33 -25 -63 -43 -66 -40 -3 3
3 12 14 20 10 9 -9 2 -42 -15 -34 -16 -66 -30 -72 -30 -19 0 -34 40 -29 76 6
42 -6 52 -27 22 -18 -25 -32 -17 -38 22 -3 22 -8 25 -42 25 -25 0 -41 5 -44
14 -3 10 2 13 21 9 21 -4 27 0 31 19 4 12 13 23 21 23 8 0 23 9 32 20 10 11
25 20 34 20 9 0 22 7 30 16 13 16 28 16 126 -3z m589 -24 c9 -15 -13 -28 -36
-22 -23 6 -15 33 10 33 11 0 22 -5 26 -11z m-1320 -74 c4 -16 0 -34 -10 -49
l-16 -25 36 6 c35 6 36 5 23 -16 -12 -19 -12 -24 3 -35 16 -12 16 -14 -5 -34
-16 -15 -26 -18 -39 -11 -21 12 -32 -3 -23 -34 6 -18 0 -15 -32 16 -32 30 -39
43 -35 64 4 20 2 25 -10 21 -10 -4 -14 0 -12 15 1 12 3 32 3 45 1 12 7 22 15
22 8 0 17 6 20 13 3 9 9 7 19 -5 13 -16 15 -16 27 7 17 32 28 32 36 0z m2656
-8 c22 19 51 -11 55 -57 3 -33 1 -38 -13 -33 -14 5 -16 1 -12 -20 4 -20 -3
-34 -34 -64 -22 -21 -36 -30 -33 -20 12 29 -2 50 -23 38 -15 -8 -24 -5 -42 14
-21 22 -21 25 -5 25 14 0 16 6 11 31 -6 30 -5 30 24 24 l30 -7 -16 36 c-15 30
-15 38 -4 51 13 15 15 15 31 -6 13 -18 20 -20 31 -12z m-1347 -17 c-3 -5 -10
-10 -16 -10 -5 0 -9 5 -9 10 0 6 7 10 16 10 8 0 12 -4 9 -10z m-3015 -28 c0
-10 -7 -19 -15 -19 -18 0 -19 9 -3 25 16 16 18 15 18 -6z m6030 -13 c0 -5 -7
-6 -15 -3 -8 4 -15 13 -15 21 0 13 3 13 15 3 8 -7 15 -16 15 -21z m-2983 -52
c8 -15 11 -37 8 -48 -5 -15 -2 -22 14 -26 22 -6 37 -66 27 -115 -2 -16 0 -28
5 -28 12 0 4 -119 -11 -170 -8 -28 -65 -90 -102 -111 -14 -8 -18 -6 -18 9 0
10 -4 22 -9 28 -10 11 -43 97 -40 104 1 3 -3 15 -10 28 -10 18 -9 22 4 22 13
0 13 4 -2 33 -13 24 -17 49 -15 96 3 55 6 62 22 58 15 -4 17 0 13 17 -9 39 -4
58 28 112 32 52 34 53 52 36 10 -9 26 -30 34 -45z m1408 19 c-4 -31 21 -67 40
-60 21 8 19 -20 -2 -37 -23 -19 -59 -18 -54 1 8 33 5 45 -11 44 -18 -2 -15 14
10 54 18 28 20 28 17 -2z m-2880 -16 c9 -16 13 -31 10 -31 -3 -1 -9 -2 -14 -3
-19 -2 -24 -16 -12 -30 26 -31 -20 -44 -53 -17 -22 19 -20 36 6 38 27 2 40 21
35 51 -6 31 10 27 28 -8z m-687 8 c-2 -6 -14 -15 -26 -19 -18 -7 -22 -5 -22
11 0 15 7 20 26 20 15 0 24 -5 22 -12z m4275 -2 c3 -8 1 -17 -6 -19 -15 -5
-47 10 -47 23 0 16 47 12 53 -4z m-3332 -79 c-16 -16 -20 -5 -8 23 9 22 11 23
14 6 3 -10 0 -23 -6 -29z m2354 3 c-9 -14 -25 5 -25 30 0 12 3 12 16 -2 9 -9
13 -21 9 -28z m-1355 -22 c0 -26 -2 -29 -15 -18 -15 13 -20 42 -9 53 13 12 24
-4 24 -35z m368 -4 c-6 -13 -15 -24 -19 -24 -6 0 -6 43 0 69 1 2 7 -2 15 -9
12 -9 13 -17 4 -36z m-944 -16 c-3 -4 -11 -5 -19 -1 -16 5 -20 34 -8 47 8 8
33 -35 27 -46z m119 -16 c-47 -6 -75 20 -33 31 11 3 20 13 20 24 1 12 7 7 20
-17 l18 -35 -25 -3z m1294 28 c21 0 11 -22 -13 -31 -34 -12 -46 2 -31 40 11
30 12 31 21 11 5 -11 15 -20 23 -20z m113 6 c-14 -14 -24 0 -16 21 6 15 8 15
16 3 6 -9 5 -19 0 -24z m-2333 -36 c-1 -11 -9 -23 -19 -26 -23 -7 -23 -24 -1
-63 14 -24 15 -33 6 -42 -18 -18 -28 -3 -12 18 12 15 12 16 -3 10 -14 -5 -23
3 -39 35 l-21 41 29 23 c35 29 62 31 60 4z m3174 -10 c19 -16 28 -30 22 -30
-7 0 -13 -6 -13 -14 0 -8 -9 -24 -19 -37 -16 -20 -22 -22 -33 -11 -11 11 -10
15 4 23 18 10 14 35 -7 54 -7 6 -15 18 -18 28 -10 28 26 21 64 -13z m64 -37
c-4 -17 -10 -22 -16 -16 -6 6 -5 22 3 44 9 25 13 29 16 16 2 -10 1 -30 -3 -44z
m-3332 -30 c4 -6 3 -14 -3 -18 -5 -3 -10 1 -10 9 0 9 -4 16 -9 16 -12 0 -21
39 -13 58 5 13 9 8 17 -18 5 -19 13 -40 18 -47z m-1313 27 c0 -5 -2 -10 -4
-10 -3 0 -8 5 -11 10 -3 6 -1 10 4 10 6 0 11 -4 11 -10z m1874 -5 c-4 -8 -10
-15 -15 -15 -5 0 -9 7 -9 15 0 8 7 15 15 15 9 0 12 -6 9 -15z m2196 0 c0 -8
-4 -15 -10 -15 -5 0 -10 7 -10 15 0 8 5 15 10 15 6 0 10 -7 10 -15z m1870 5
c0 -5 -5 -10 -11 -10 -5 0 -7 5 -4 10 3 6 8 10 11 10 2 0 4 -4 4 -10z m-4033
-45 c-4 -8 -11 -15 -17 -15 -7 0 -7 6 0 21 13 23 26 19 17 -6z m768 16 c7 -12
-12 -24 -25 -16 -11 7 -4 25 10 25 5 0 11 -4 15 -9z m605 -8 c0 -7 -7 -13 -15
-13 -8 0 -15 6 -15 13 0 8 7 14 15 14 8 0 15 -6 15 -14z m754 1 c4 -9 4 -19 2
-21 -8 -8 -26 8 -26 23 0 19 16 18 24 -2z m590 1 c3 -8 1 -15 -4 -15 -6 0 -10
7 -10 15 0 8 2 15 4 15 2 0 6 -7 10 -15z m1230 -46 c-9 -15 -34 -10 -34 6 0 9
6 22 13 29 10 12 13 10 20 -6 4 -11 5 -24 1 -29z m-5761 35 c14 -5 13 -44 -2
-44 -17 1 -31 18 -25 33 7 19 7 19 27 11z m4452 -24 c3 -5 3 -15 -1 -21 -6
-11 -23 6 -24 24 0 10 18 9 25 -3z m-765 -31 c0 -5 -7 -6 -15 -3 -8 4 -23 3
-32 0 -15 -6 -15 -8 -3 -16 8 -5 11 -12 8 -15 -11 -11 -28 4 -28 24 0 23 40
43 58 29 6 -6 12 -14 12 -19z m218 -30 c-2 -26 -6 -29 -33 -27 -26 1 -30 6
-29 27 0 18 8 27 25 32 33 8 40 3 37 -32z m-2028 -1 c-20 -16 -21 -21 -9 -29
12 -7 12 -9 -1 -10 -8 0 -25 -2 -36 -5 -16 -2 -23 2 -27 17 -9 35 1 44 50 45
l47 1 -24 -19z m-1697 -19 c4 -15 2 -19 -9 -15 -11 4 -13 -1 -9 -22 l5 -27
-11 28 c-8 21 -8 31 1 42 16 19 17 19 23 -6z m5407 -26 c0 -13 -4 -23 -9 -23
-5 0 -7 10 -4 23 4 18 3 19 -6 7 -9 -13 -11 -12 -11 6 0 11 3 24 7 27 9 10 23
-14 23 -40z m-3930 18 c0 -12 -39 -21 -45 -11 -3 5 1 11 7 13 21 9 38 8 38 -2z
m304 0 c3 -5 -5 -11 -18 -13 -17 -4 -23 -1 -19 9 6 15 29 18 37 4z m2163 -8
c3 -7 -3 -9 -17 -6 -29 8 -37 25 -9 21 12 -1 24 -8 26 -15z m-2437 -24 c0 -6
-4 -7 -10 -4 -5 3 -10 11 -10 16 0 6 5 7 10 4 6 -3 10 -11 10 -16z m2384 0
c-3 -5 -10 -7 -15 -3 -5 3 -7 10 -3 15 3 5 10 7 15 3 5 -3 7 -10 3 -15z
m-2072 -3 c16 -12 16 -14 -6 -24 -22 -10 -24 -8 -22 14 1 27 4 28 28 10z
m1648 -12 c0 -2 -13 -10 -30 -19 -29 -15 -35 -11 -24 18 3 9 14 12 30 9 13 -2
24 -6 24 -8z m-2680 -41 c0 -11 -4 -11 -20 -3 -11 6 -17 16 -13 25 4 12 9 13
19 4 8 -6 14 -18 14 -26z m3826 -5 c-18 -12 -30 10 -16 28 13 15 15 14 21 -3
3 -10 1 -21 -5 -25z m-1338 -20 c2 -56 -16 -95 -49 -107 -16 -5 -30 -9 -30 -8
-1 1 -3 19 -4 40 -1 25 3 41 12 44 7 3 13 9 13 15 0 5 -4 6 -10 3 -5 -3 -10
-1 -10 4 0 19 28 12 35 -9 5 -16 9 -17 20 -7 7 6 11 16 8 20 -5 8 3 37 10 37
2 0 4 -15 5 -32z m-1123 -6 c-3 -8 0 -21 7 -30 11 -13 13 -12 18 8 5 21 49 41
51 22 0 -4 2 -18 3 -32 6 -46 -3 -51 -47 -27 -31 17 -43 32 -48 54 -5 25 -3
30 8 26 8 -3 12 -12 8 -21z m258 -8 c-2 -19 0 -24 6 -15 6 9 10 10 16 2 5 -9
10 -9 20 -1 9 8 15 3 25 -20 7 -16 18 -35 26 -41 8 -6 14 -26 14 -43 l-1 -31
-15 28 c-17 32 -29 36 -21 7 3 -11 1 -23 -4 -26 -14 -8 1 -26 17 -20 19 7 22
-1 29 -94 l7 -85 -36 35 c-36 34 -96 139 -96 167 0 7 7 16 15 19 12 5 13 10 4
20 -6 7 -8 19 -4 26 4 7 -1 4 -9 -6 -9 -11 -16 -16 -17 -10 -4 33 -4 110 -1
117 9 19 27 -2 25 -29z m646 0 c-9 -11 -8 -15 4 -20 24 -9 29 -33 16 -93 -15
-73 -48 -137 -93 -180 -32 -31 -36 -32 -36 -15 0 12 7 43 16 70 9 27 17 86 19
130 3 73 6 85 31 113 21 24 30 28 41 20 10 -9 10 -15 2 -25z m-2794 -10 c-22
-16 -45 -18 -45 -4 0 6 5 10 10 10 6 0 10 7 10 15 0 13 4 14 22 4 21 -11 21
-12 3 -25z m4886 6 c5 0 9 -4 9 -10 0 -15 -26 -12 -41 6 -10 13 -10 17 2 24 9
7 15 5 17 -5 2 -8 8 -15 13 -15z m-2298 -98 c-2 -26 -6 -56 -8 -67 -2 -11 -4
-24 -4 -28 -1 -5 -28 13 -61 38 -67 52 -67 44 -6 113 17 18 36 30 43 28 7 -3
16 0 20 7 11 19 22 -40 16 -91z m-75 -179 c12 -17 23 -48 23 -70 2 -35 -44
-230 -57 -242 -19 -19 -63 135 -70 247 -6 77 -4 90 10 95 13 5 14 10 5 25 -7
11 -9 27 -6 36 5 14 13 10 40 -21 18 -21 43 -52 55 -70z m440 -5 c-28 -106
-50 -147 -165 -312 -185 -266 -218 -281 -161 -76 25 92 69 163 140 224 34 29
70 74 94 117 21 38 45 69 52 69 6 0 12 4 12 9 0 12 28 41 39 41 5 0 0 -32 -11
-72z m559 -130 c-3 -8 -6 -5 -6 6 -1 11 2 17 5 13 3 -3 4 -12 1 -19z m-1232
-173 c30 -52 52 -133 60 -220 8 -81 8 -77 6 -89 -2 -19 -121 234 -145 309 -44
140 -44 136 9 85 25 -25 57 -63 70 -85z m2335 -695 c-6 -11 -13 -20 -16 -20
-2 0 0 9 6 20 6 11 13 20 16 20 2 0 0 -9 -6 -20z m-96 -135 c-15 -22 -31 -36
-21 -17 2 4 7 15 10 25 4 9 11 17 17 17 6 0 3 -11 -6 -25z m-429 -185 c3 -5 1
-10 -4 -10 -6 0 -11 5 -11 10 0 6 2 10 4 10 3 0 8 -4 11 -10z"/>
<path d="M4060 2696 c0 -2 8 -10 18 -17 15 -13 16 -12 3 4 -13 16 -21 21 -21
13z"/>
<path d="M3546 2285 c-9 -26 -7 -32 5 -12 6 10 9 21 6 23 -2 3 -7 -2 -11 -11z"/>
<path d="M3005 2210 c3 -5 8 -10 11 -10 2 0 4 5 4 10 0 6 -5 10 -11 10 -5 0
-7 -4 -4 -10z"/>
<path d="M3550 2120 c0 -5 5 -10 11 -10 5 0 7 5 4 10 -3 6 -8 10 -11 10 -2 0
-4 -4 -4 -10z"/>
<path d="M317 5038 c-5 -14 19 -42 27 -30 2 4 -2 15 -9 25 -9 13 -14 14 -18 5z"/>
<path d="M6662 5030 c-10 -16 -10 -20 2 -20 7 0 16 9 19 20 3 11 2 20 -2 20
-3 0 -12 -9 -19 -20z"/>
<path d="M105 4915 c-15 -37 -17 -38 -29 -22 -13 16 -14 16 -20 1 -3 -9 -1
-23 5 -31 7 -7 9 -16 5 -20 -8 -9 24 -44 35 -37 5 3 6 -2 3 -10 -4 -11 0 -13
18 -9 13 3 29 10 36 16 8 7 18 5 30 -7 22 -19 46 -21 38 -3 -3 6 -9 20 -12 30
-4 9 -10 17 -16 17 -5 0 -4 9 2 20 8 16 8 20 -4 20 -8 0 -17 14 -21 30 -5 24
-10 29 -20 20 -10 -8 -16 -7 -23 6 -9 16 -12 12 -27 -21z"/>
<path d="M6865 4930 c-3 -5 -12 -7 -19 -4 -14 6 -30 -22 -20 -37 3 -5 -2 -9
-12 -9 -11 0 -15 -6 -11 -20 3 -11 0 -20 -6 -20 -6 0 -7 -3 -4 -7 4 -3 0 -15
-10 -25 -23 -26 -7 -36 27 -16 16 9 32 13 35 9 2 -5 16 -11 30 -14 19 -3 25
-1 21 9 -3 8 -2 13 2 12 20 -4 42 16 37 33 -4 11 -2 19 4 19 6 0 10 11 9 25
-3 30 -6 31 -24 8 -12 -16 -14 -15 -24 15 -12 32 -24 40 -35 22z"/>
<path d="M106 4382 c-4 -6 -2 -21 4 -33 15 -28 21 -20 12 16 -5 18 -11 25 -16
17z"/>
<path d="M6887 4378 c-19 -50 -19 -54 -2 -37 9 9 15 25 13 35 -5 18 -5 18 -11
2z"/>
<path d="M395 4168 c-4 -9 -20 -19 -37 -22 -17 -3 -28 -9 -25 -13 11 -11 56
-12 63 -2 3 6 12 5 21 -3 14 -11 15 -10 8 12 -10 35 -23 47 -30 28z"/>
<path d="M6581 4149 c-9 -28 -9 -30 5 -19 10 9 18 10 25 3 12 -12 61 -5 53 8
-3 5 -14 9 -25 9 -11 0 -22 7 -25 15 -9 24 -21 18 -33 -16z"/>
<path d="M278 3392 c-3 -10 1 -27 8 -37 13 -18 14 -17 14 8 0 15 0 30 1 34 1
17 -19 12 -23 -5z"/>
<path d="M6702 3375 c1 -20 5 -32 9 -28 15 16 14 63 -1 63 -5 0 -9 -16 -8 -35z"/>
<path d="M2041 2271 c-12 -11 -18 -22 -12 -25 16 -10 41 5 41 25 0 24 -2 24
-29 0z"/>
<path d="M4937 2283 c-12 -12 -7 -31 10 -37 25 -10 36 8 15 27 -10 9 -22 14
-25 10z"/>
<path d="M2108 2258 c-16 -11 -28 -29 -28 -40 0 -18 2 -19 16 -7 15 12 19 11
32 -9 l15 -23 13 31 c12 27 11 34 -4 50 -17 18 -18 18 -44 -2z"/>
<path d="M2193 2231 c-10 -15 -8 -22 6 -35 22 -20 28 -20 33 2 3 9 -3 25 -12
34 -15 16 -16 16 -27 -1z"/>
<path d="M4779 2229 c-13 -13 -14 -21 -5 -37 11 -20 11 -20 29 4 10 13 14 24
8 24 -5 0 -11 6 -13 13 -2 9 -7 8 -19 -4z"/>
<path d="M2690 2231 c0 -5 5 -13 10 -16 6 -3 10 -2 10 4 0 5 -4 13 -10 16 -5
3 -10 2 -10 -4z"/>
<path d="M5325 2230 c3 -5 10 -10 16 -10 5 0 9 5 9 10 0 6 -7 10 -16 10 -8 0
-12 -4 -9 -10z"/>
<path d="M1640 2158 c-20 -32 -23 -58 -5 -58 9 0 12 -6 9 -15 -4 -8 -2 -15 3
-15 5 0 9 25 9 55 0 30 0 55 -1 55 0 0 -7 -10 -15 -22z"/>
<path d="M5345 2123 c0 -36 5 -52 20 -65 11 -9 24 -13 29 -8 10 10 -2 32 -14
25 -5 -3 -12 0 -16 6 -3 6 -1 15 7 20 10 6 11 15 4 35 -16 44 -30 38 -30 -13z"/>
<path d="M1610 2070 c-10 -6 -11 -13 -5 -19 6 -6 16 -7 25 -1 10 6 11 13 5 19
-6 6 -16 7 -25 1z"/>
<path d="M5744 2046 c-13 -10 -23 -11 -31 -4 -17 14 -17 -3 0 -25 9 -13 20
-16 45 -11 30 6 31 8 17 24 -8 9 -12 20 -8 23 12 12 -3 7 -23 -7z"/>
<path d="M5948 2038 c-7 -18 28 -73 37 -59 3 7 -2 25 -13 42 -13 20 -21 26
-24 17z"/>
<path d="M1026 2013 c-12 -17 -15 -28 -8 -35 7 -7 15 -1 26 20 20 38 8 49 -18
15z"/>
<path d="M5820 2010 c-13 -8 -12 -10 3 -10 9 0 17 5 17 10 0 12 -1 12 -20 0z"/>
<path d="M3000 1975 c0 -16 16 -20 24 -6 3 5 -1 11 -9 15 -9 3 -15 0 -15 -9z"/>
<path d="M4747 1902 c-25 -27 -21 -32 22 -32 42 0 55 -10 65 -51 4 -21 2 -26
-11 -25 -23 2 -28 -23 -6 -31 27 -10 32 -23 22 -52 -9 -25 -8 -25 6 -7 8 11
15 29 16 40 0 12 2 29 4 38 2 10 0 20 -5 23 -4 2 -6 15 -4 27 5 25 -8 45 -46
71 -31 22 -43 21 -63 -1z"/>
<path d="M4714 1789 c-9 -16 20 -41 39 -33 21 8 22 30 1 38 -23 9 -32 7 -40
-5z"/>
<path d="M4785 1720 c-3 -5 1 -10 9 -10 9 0 16 5 16 10 0 6 -4 10 -9 10 -6 0
-13 -4 -16 -10z"/>
<path d="M4787 1683 c3 -7 9 -13 15 -13 5 0 7 4 4 9 -4 5 0 11 6 14 7 3 3 4
-8 4 -14 -1 -20 -6 -17 -14z"/>
<path d="M4587 1613 c-4 -3 -7 -14 -7 -23 0 -9 -13 -29 -29 -44 -30 -29 -34
-43 -46 -176 l-5 -55 24 39 c13 21 22 45 19 52 -7 18 8 18 33 -1 17 -13 17
-14 2 -15 -16 0 -16 -2 2 -20 19 -19 19 -21 3 -62 -24 -61 -64 -110 -85 -104
-22 5 -23 -7 -4 -24 12 -9 24 -2 64 38 l49 50 29 -23 c28 -22 30 -22 59 -7 17
10 31 17 32 17 1 1 -9 43 -23 95 -14 52 -27 105 -30 117 -2 12 -9 35 -15 50
-10 26 -12 27 -19 8 -7 -15 -9 -11 -10 20 -1 50 -25 87 -43 68z"/>
<path d="M4873 1311 c0 -11 6 -17 14 -14 18 7 17 33 -1 33 -8 0 -14 -8 -13
-19z"/>
<path d="M4695 1230 c-3 -5 -2 -10 4 -10 5 0 13 5 16 10 3 6 2 10 -4 10 -5 0
-13 -4 -16 -10z"/>
<path d="M4696 1200 c-20 -18 -34 -36 -29 -39 4 -3 9 -33 10 -66 1 -33 6 -71
12 -85 9 -21 10 -19 5 15 -4 22 -3 36 2 32 9 -9 14 -29 16 -70 0 -15 5 -30 9
-33 11 -6 129 73 129 87 0 18 -58 124 -87 158 l-29 34 -38 -33z"/>
<path d="M5250 1145 c-16 -29 -20 -24 51 -64 59 -33 67 -32 82 14 7 19 7 19
-7 1 -21 -26 -60 -14 -76 24 -19 46 -35 54 -50 25z"/>
</g>
</svg>
