<svg version="1" xmlns="http://www.w3.org/2000/svg" width="933.333" height="933.333" viewBox="0 0 700.000000 700.000000"><path d="M201.3 2.4c-1.6 1.7-1.9 2.6-1.1 4 1.4 2.5.1 3.4-1.6 1.1-1.2-1.6-1.6-1.7-3-.6-.9.7-1.6 1-1.7.5 0-1-2 3.4-2.5 5.4-.1.7.4 1.6 1.1 1.8 1.4.6 1.4 1.5-.3 5.7-1.5 3.7-1.5 4.5.3 6.3.8.9 1.5 2 1.5 2.5 0 1.7-3.1 2.2-4.3.7-2.8-3.3-4.6-4.1-6.2-2.8-1.6 1.3-2.1 5-.6 5s1.9 4.9.5 5.4c-.8.3-1.4.1-1.4-.5s-.4-.7-1-.4c-.5.3-1 1.5-1 2.6 0 1-.4 1.9-.9 1.9s-.8 1.2-.7 2.6c.3 2.8 2.9 4.9 5.1 4.1 1.8-.7 2.7 2.9 1 4.3-.7.6-2 .8-2.9.4-.9-.3-2.3-.1-3.1.6-.8.7-1.5.9-1.5.6 0-.4-.7-.1-1.5.7-.8.8-1.2 2.4-1 3.6.2 1.2 0 1.9-.5 1.6-.6-.3-2.2.6-3.6 2.1-2.4 2.3-2.8 2.4-3.6 1-1.3-2.3-2.7-2-2 .6.3 1.4.2 1.9-.6 1.4-1.8-1.1-2.5 1.9-1.2 4.5 1.1 2 1 2.1-.9 1.6-1.4-.3-2.4 0-2.8.9-.3.8-1.1 1.4-1.9 1.4-.8 0-2.2.9-3.1 1.9-.9 1.1-2.1 1.8-2.5 1.5-.5-.3-1.7.1-2.7 1-1.1 1-2.5 1.4-3.6 1-1.3-.5-1.6-.4-1.1.5.5.8 0 1.4-1.4 1.8-1.6.4-1.8.8-.8 1.4 1.1.8 1.1 1-.1 1.8-1.4.9-.3 4.1 1.5 4.4.5.1.8.7.6 1.3-.4 1.9 3.6 4.7 5.8 4.1 1.3-.3 2.8.2 4 1.6 2.4 2.5 2.4 3.1.5 4.7-1.1.9-1.2 1.6-.2 3.3.7 1.2 1.6 2.5 2.1 2.8.4.4.3 1-.4 1.4-.6.4-1.2.5-1.3.4-2.8-5.3-4.4-6.1-5.3-2.5-.7 2.8-1.8 3.3-3 1.4-.5-.8-1-.6-1.4.8-.4 1-.3 2.4.2 3.1.6.7.3 1.5-.9 2.3-1.6 1-1.5 1.1.7.6 2.3-.5 2.5-.3 2.4 3-.2 4.5-.7 4.9-5.7 4.9-2.6 0-4.1.4-4 1.1.1.6-.9 1.1-2.3 1.1-1.3 0-2.4-.5-2.3-1.1.1-.6.1-2.4 0-4-.1-2.2-.5-2.7-1.8-2.2-.9.4-2 .1-2.4-.6-.6-1-1.1-1-2-.1-.9.9-.5 1.8 1.6 3.9 1.5 1.5 2 2.4 1.1 2.1-.9-.4-1.6-.3-1.6.2 0 1.2-4.3.6-4.8-.7-.2-.6-1-.8-1.8-.5-.8.3-1.4-.1-1.4-.8 0-1.1-.2-1.1-1 .1-.7 1.2-1.2 1.2-2.2.2-1.7-1.7-2.8-1.5-2.8.7 0 1.1.9 2.1 2.3 2.5 2.1.6 2.1.7.3 2.1-1.1.9-2.6 1.1-4 .6-4.5-1.6-8.2 1.8-4.8 4.4 1 .8 1 1.7-.4 4.3-1.2 2.5-1.9 3-2.9 2.2-1-.9-1.5-.4-2 1.9-.8 3.7-2.9 3.2-4.5-1.2-1.1-3-1.2-3.1-2-1.1-.5 1.2-1.3 2.5-1.9 2.9-.8.4-.8 1.2-.1 2.6.7 1.3.7 1.9 0 1.9-.5 0-1 .5-1 1.1 0 1.4 2.5 3.9 3.9 3.9.6 0 1.1.4 1.1 1 0 .5-.7.7-1.5.4-.9-.4-1.5 0-1.5 1 0 .9-.7 1.6-1.5 1.6s-1.6.7-1.6 1.5c-.3 3.2-.4 3.6-1.9 4.5-.8.5-1.1 1-.7 1 1.2 0-1.2 4-2.4 4-.6 0-.8-.4-.4-1 .3-.5 0-1.8-.6-2.8-1.4-2.3-4.5-1.8-5.2.8-.3 1.3-1.1 1.6-3.2 1.3-2.4-.5-2.6-.3-2.3 1.8.2 1.3-.2 2.4-.9 2.4-2 0-2.7 1.4-.9 2.1.9.3 1.6 1.5 1.6 2.5 0 1.3.5 1.7 1.6 1.2 1.4-.5 1.4-.4-.1 1.4-1 1.2-2.5 1.9-3.6 1.6-1.5-.4-1.9 0-1.9 2.1 0 1.9.5 2.6 1.9 2.6 1 0 2.2.7 2.5 1.6.3.8.2 1.2-.3.9-1.4-.8-2.5 1.5-2.3 4.7.1 1.5-.5 3.6-1.5 4.7-1.7 2-1.7 2-2.7-.1-1.4-2.7-3-2.5-3.6.4-.4 1.6-.8 1.9-1.4 1-.4-.6-.4-1.7 0-2.3.4-.7.3-1-.2-.7-.5.2-2.6 1.2-4.7 2.1-2.9 1.3-3.7 2.3-3.7 4.3 0 3.8-3.4 2.8-3.6-1.1-.2-4.9-.4-5.1-1.9-3.1-1.2 1.6-1.2 2.2-.2 2.8.7.5.1.8-1.7.6-2.5-.3-3 .1-3.8 2.8-.5 1.9-1.6 3.4-2.8 3.7-1.6.4-2 1.4-2 4.3 0 3.6 0 3.7-2 1.9-1.1-1-1.8-2-1.6-2.4.2-.3-.1-1.3-.7-2.1-1.3-1.7-4.7-2.3-4.7-.9 0 .5-.9 1.8-1.9 2.8-1.3 1.3-2.2 1.6-3 .8-.7-.7-1.2-.5-1.7.7-.4 1-.2 2.2.5 2.9.6.6 1.1 2.1 1.1 3.3 0 1.2.6 2.4 1.3 2.7.7.3 1.3 1.8 1.2 3.3 0 2.2-.5 3-2.2 3.2-2.2.3-3.3 2.2-1.3 2.2.6 0 1 .5 1 1.1 0 .6-.8.9-1.9.6-3.1-.8-5.2 1-4.1 3.7.5 1.3.6 2.7.3 3-1.2 1.2-3.3.6-3.3-1 0-.8-.4-1.2-1-.9-.5.3-1 0-1-.8 0-.7-1.1-2.4-2.5-3.7l-2.4-2.3-1.2 2.7c-.9 1.9-1.8 2.5-3.4 2.2-3.7-.7-5 .8-3.1 3.7 1.2 1.8 1.4 2.7.6 3.2-.8.5-.4 1.2 1 2.2 1.3 1 2 2.2 1.7 3.4-.4 1.3.2 1.9 2.5 2.4 2.4.6 2.7.9 1.7 2.1-1 1.2-.8 1.8.7 2.9 1 .8 2.6 1.2 3.5.9 1.2-.3 1.8.3 2.1 2.5.4 2.7.3 2.8-1.9 1.8-3.7-1.7-3.7-.2.1 3.5 3.2 3.2 3.4 3.6 2.1 5.5-1.8 2.5-1.1 3.3 3.2 3.3 1.8 0 3.3.4 3.3 1 0 .5-.4 1-1 1-.5 0-1 .5-1 1.2 0 .9.3.9 1.2 0 1.8-1.8 3.1-1.5 2.6.6-.3 1 .1 2.3.9 3 .7.7 1.3 2.2 1.3 3.2 0 1.7.7 2 4.4 2 3.2 0 4.6.5 5 1.7.6 1.5.8 1.5 1.9-.1 1.2-1.6 1.4-1.6 3.9.3 1.4 1.2 3.1 2.1 3.7 2.1.5 0 1.6.8 2.3 1.9.7 1 2.3 2.1 3.5 2.5 1.3.4 2.3 1.4 2.3 2.1 0 .8.9 2 2.1 2.8l2 1.5-2.2 1.6c-1.2.8-2.6 1.3-2.9 1.1-.4-.3-1 .6-1.2 2-.3 1.4-.1 2.5.3 2.5.5 0 .9.6.9 1.4 0 .8.6 1.4 1.3 1.3 4.3-.1 5.9.4 5 1.5-.8 1.2-1 3.4-.3 4 .1.2.3 1.6.4 3.1.2 2.6 0 2.8-2.6 2.3-2.8-.5-2.8-.5-1.3 1.8 1.1 1.6 1.3 2.6.6 3.1-1.6.9-1.3 2.5.4 2.5.8 0 1.5-.4 1.5-.9s.7-1.2 1.6-1.5c1.3-.5 1.5-.1 1 2-.4 1.5-.2 3.2.5 4 .6.8 1.2 3.9 1.4 7 .1 4.8.5 5.8 2.5 6.9 1.2.7 1.9 1.5 1.3 1.8-.5.3-1.5.2-2.3-.3-1.6-1-4 1.1-4 3.4 0 .9-.8 1.6-1.7 1.6-1.5.1-1.5.3.5 2 1.4 1.2 1.9 2.1 1.1 2.5-.6.4-2.1-.3-3.4-1.5l-2.3-2.2-2.6 2.3c-1.4 1.2-2.3 2.5-2.1 3 .3.4.1 1.8-.4 3.1-.6 1.2-1 1.7-1 1-.1-.6-1.1-1.2-2.2-1.2-1.7 0-2 .5-1.6 2.1.5 1.7.2 2-1.4 1.6-5.4-1.4-9.7 5.2-6.9 10.8.8 1.6 1.9 3.3 2.3 3.6.5.4.2 1.9-.6 3.5s-1.2 3.5-1 4.1c.3.8-.3 1.3-1.4 1.3-2 0-2.6 3.3-1 5.7.8 1.3-.1 4.3-1.4 4.3-1.1 0 .1 5.4 1.3 5.8.5.2.4 1-.2 1.7-.8.9-.6 1.4.6 1.9 1.3.5 1.4.9.5 2-.9 1.1-.7 2 1.2 4 1.3 1.4 3 2.6 3.6 2.6.7 0 .9.4.6 1-.3.5-.1 1 .6 1 .8 0 .9.3 0 1.4-.9 1-.8 1.6.4 2.6 2 1.7 1.9 3.1-.2 2.3-1.3-.5-1.5-.2-1 1.1.4 1 .7 2 .7 2.2 0 .3 1.2 1 2.8 1.6l2.7 1.2-3.1.4c-2.7.3-3 .6-2.6 3.2.2 1.7 1 3 1.8 3 1.3 0 1.5.5 1.8 4.2.1 1.6 2.6 4.2 4 4.4 3.2.3 3.6.5 3.6 1.3 0 .5-1.3 1.4-2.9 2.1-1.6.6-3.1 1.9-3.4 2.9-.5 2 1.6 5.4 2.7 4.3.4-.4 1.4.1 2.1 1.2.9 1.1 2 1.6 3 1.2 1.4-.5 1.6-.1 1 2.7-.4 1.7-1.2 3.8-1.7 4.5-.8.9-.6 1.2.6 1.2.9 0 1.9-.7 2.2-1.5.5-1.1 1-1.2 1.8-.6 1.9 1.6 7.2 1.7 9 .1 2.5-2 4.2.1 2.6 3-1.1 2.1-1.1 2.2 1.1 1.6 6.1-1.9 9.6.6 5.1 3.6-1.5 1-2.1 1.8-1.4 1.8.6 0 1.2.7 1.2 1.5s.4 1.5.9 1.5.7 1 .3 2.2c-.3 1.4-.1 1.9.6 1.4.6-.4 2.1-.2 3.3.4 1.7.9 2.3.8 3.3-.6.9-1.1 1.5-1.3 2-.6.3.6.2 1.3-.4 1.7-1.4.9-1.2 4.5.3 4.5.7 0 1.8-.9 2.5-2 .7-1.2 2.3-2 3.8-2 1.4 0 2.3.4 1.9 1-.3.5-.1 1 .5 1 .8 0 .8.6 0 2.1-1.5 2.7-.5 3.7 2.2 2 1.9-1.2 2-1.1 1.4 1.1-2.1 6.5-2 7.1.3 5.9 1.1-.7 2.1-1.7 2.1-2.4 0-.8.4-.6 1 .3.8 1.3 1.1 1.1 1.6-.8.8-2.8 2-2.8 2.9.1.4 1.4.8 1.7 1.2.9.6-1.6 5.3 3.1 5.3 5.4 0 2.4 1.4 1.5 3.7-2.4 1.7-2.8 2.2-3.2 2.3-1.7 0 2.1 4 3.4 4 1.3 0-.6.6-.6 1.5.2 1.2 1 1.5 1 1.5-.1s.2-1.1.9.1c.6.8.7 1.9.4 2.5-.4.5.6-.2 2.1-1.7 1.6-1.5 3.2-2.5 3.7-2.2.5.3.9.1.9-.5 0-2 3.8-3.3 6.1-2.1 1.8 1 2 .9 1.7-1.2-.2-1.7.2-2.3 1.7-2.2 2.1 0 2.2.5.9 3.8-.6 1.7-.5 1.7 1.7.6 1.7-1 2.4-1 2.7-.1.5 1.6 2.9 1.4 3.6-.5.3-.8.9-1.3 1.4-1 1.6 1 3.5-1.3 3.4-4.3-.1-3.4 1.7-4.1 3.9-1.5 1.1 1.4 1.5 1 2.6-3 1-3.4 1.9-4.6 3.3-4.6 1 0 2.2-.4 2.5-1 .3-.6 1.2-1 2-1s2.6-1.2 4-2.6c1.7-1.7 3.2-2.3 4.5-1.9 1.2.4 2 .2 2-.5s.7-1 1.5-.6c1.2.4 1.5-.3 1.5-3 0-2.2.6-3.7 1.5-4.1 2.2-.8 2.7 0 1.6 2.9-1.2 3.1 0 5.1 3.2 5.2 2 .1 2.4-.2 2.1-2-.5-2.9 5.1-9.2 6-6.8.3.9.4 2 0 2.5-.3.5 0 .9.5.9.6 0 1.1-.5 1.1-1 0-1.1 3.9-1.3 6.4-.4.9.3 1.6 1.5 1.6 2.5 0 2.4.9 2.4 2.6.2.7-1 1.6-1.5 2-1.1.4.4.1 1.4-.6 2.3-1.6 1.9-.6 4.5 1.9 4.5 1 0 2.2.7 2.5 1.6.6 1.5.8 1.5 2.4.2 2.9-2.5 3.9-2.8 3.7-1 0 1-.4 2.3-.9 3-.4.7-.2 1.2.8 1.2.8 0 2.2.7 3.1 1.6 1.1 1.2 1.9 1.3 2.9.5 1.9-1.6 2.6-.3 1.9 3.3-.6 2.8-.5 3 1 1.8.9-.8 2.2-1.2 2.9-1 .7.3 1.8-.2 2.5-1.1 1.1-1.4 1.2-1.3 1.3.7 0 1.3.4 2.1.9 1.7.5-.3 1.2-.1 1.6.4.3.6 1.2.8 2 .4 1-.3 1.5.1 1.5 1.3.1 3.3 3.9-2.7 4-6.1.1-2.5.2-2.7 1.1-1.3 1.3 2.3 2.6 2.3 3.3 0 .7-1.9 6.6-2.7 6.6-.8 0 .7 1.4 1.1 3.1 1.1 2.4-.1 3.4-.7 4.1-2.5.9-2.4 1-2.3 6.4 3.1 4.3 4.3 5.5 6.3 5.6 8.7.1 3.1 1.8 4.7 1.8 1.7 0-1.6 1.2-2 2.4-.7.4.4 1.2.7 1.7.7 1.4 0 11.9 6.9 11.9 7.8 0 .5-.6.5-1.2 0-.7-.4-2.8-.8-4.6-.8-2.3 0-3.1.4-2.7 1.4.3.7 0 2-.6 2.7-1.5 1.8-.5 1.8 3.3-.2 2.4-1.3 3.6-1.4 4.9-.5 1 .6 2.5.8 3.3.5 1.7-.6 6.9 2.9 7.2 4.9 2.3 14.8 3.9 21.1 8.6 35.2 2.7 8.2 7.7 20.4 11.1 27 15.6 30.7 17.4 35.4 17.1 43.7-1.5 48.3-2.3 57.4-5.1 59.1-.4.3-3 .8-5.8 1.1-25.9 3.3-50.1 11.4-70.7 23.7l-13.3 7.9H352c103.2-.1 105.4-.1 101-1.9-2.5-1-10.8-5-18.5-8.9-12-6-35.3-14.9-43.5-16.6-18.6-3.7-18.8-3.8-19.9-6.5-2.6-6.4-3.4-15.5-3.4-39.6 0-30.6 0-30.9 8.5-45.7 3.9-6.8 8.2-14.3 9.6-16.8 1.4-2.5 5.6-9.9 9.4-16.5 12-20.9 14.6-27.1 21.3-50 1.9-6.5 4.6-9.6 13.2-15.1 2.9-1.9 5.3-4 5.3-4.8 0-1.8 4.9-7.6 5-5.9 0 .7.9 1.3 1.9 1.3 1.1 0 2.2.8 2.5 1.7.3 1 2.6 9.8 5.2 19.6 3.9 14.9 4.5 18 3.3 18.8-1.1.7-1 .9.6 1 1.1 0-.2.9-3 1.9-2.9 1.1-4.2 1.9-3 2 1.8.1 1.7.3-.5 1.3-1.4.6-2.9 1.7-3.3 2.4-.4.7-1.6 1.3-2.5 1.3-1 0-2.8.7-4 1.6-1.2.8-2.6 1.3-3.1 1-.9-.6-3.7 2.1-3 2.8.2.2 2.4.8 4.9 1.4 3.5.8 3.9 1 1.6 1.1-2.1.1-2.7.5-2.2 1.6.3 1-.1 1.5-1.2 1.6-1 0-1.2.3-.4.6.6.2 1.2 1.1 1.2 1.8 0 .8.7 1.1 1.9.8 1.1-.3 2.7.4 3.9 1.7 1.4 1.6 2.6 1.9 4.6 1.4 1.8-.4 2.6-.2 2.6.7 0 1 .3 1 1.2.1 1.6-1.6 3.1-1.5 2.2 0-.6 1-.4 1 .8 0 .9-.7 2.2-1.1 2.9-1 .8.2 1.9-1.5 2.7-4.2.7-2.5 1.7-5.3 2.2-6.2.6-1.1.6-2.7 0-4.3-.6-1.5-1-3.2-.9-3.8 0-.7.7.6 1.5 2.7.8 2.2 2.3 4.5 3.4 5.3 1.6 1.1 2 2.5 1.9 6.6-.1 3.2 1.3 10.4 3.5 18.5 2 7.3 3.6 13.9 3.6 14.7 0 2.7 2.1 2.6 8.4-.5 4.8-2.4 7-3 8.8-2.4 3.2 1.1 4.2 1.1 4.9.1.4-.5 1.3-.6 2-.2.7.5 2.5.9 4.1 1 2.4.2 3.2-.3 4.8-3.6 2.5-4.7 2.7-8.9.3-4.4-3.2 6-5.8 5.7-5.9-.6-.1-7.7-10.1-18.9-16.8-18.9-.7 0-1.3 1.4-1.4 3.2-.3 4.1-.5 4.2-3.3 1.9-2.5-2-2.3-3.3 1.8-9.1 1.6-2.2 1.6-2.3.1-1.2-3 2.4-9.5-2.2-11.8-8.3-2.7-6.9-2.3-8.8 3.2-15.5 1.5-1.9 2.8-3.8 2.8-4.2 0-1.2-3.1-.9-7.8.7-2.4.9-4.8 1.2-5.4.9-.6-.4-.8-.2-.5.3.4.6-.4 1.4-1.8 1.7-2.1.5-2.4 1.1-2 3.4.2 1.5-.2.7-1-1.8-.9-2.5-1.7-5.4-1.9-6.5-.2-1.1-2.2-8.8-4.5-17.1-4.4-16.2-4.7-17.9-3.1-16.9.6.3 1 1.7 1 3.1 0 1.3.5 2.4 1 2.4.6 0 1 .9 1 2s.5 2 1 2c.6 0 1-1.5 1-3.3v-3.2l3.8 4.4c3.2 3.7 4 4.2 4.5 2.7.4-.9 1.1-1.5 1.6-1.1.5.3 1.3-.5 1.6-1.6.7-2 .8-2 1.7-.5.5.9 1.3 1.4 1.8 1.1.5-.3 1.9-.1 3 .5 1.8 1 1.9.9 1-1.6-1.2-3.2-.4-5 1.6-3.3 1.1.9 1.8.8 3.4-.6 1-.9 2.4-1.4 2.9-1 .6.3 1.1.2 1.1-.4 0-.5-.4-1.2-.9-1.5-.5-.3-.7-1.5-.4-2.6.5-1.9.6-1.9 3.4.2s4 5.8 1.9 5.8c-1.6 0-1.2 1.4 1.4 5.3 1.4 2 3.8 8.7 5.5 14.9 1.7 6.2 4.4 15.6 6 20.8 1.6 5.2 2.5 9.9 2.1 10.3-1 1.1-.1 8.8 1.1 10.2.5.5.9 2.9.9 5.4 0 4.2.1 4.3 1.9 2.7 1.7-1.6 1.9-1.5 2.9 1.1 4.5 11.5 6.3 23.6 4.6 30-.8 2.8-1.9 2.9-6.7.3-2-1.1-4.6-2-5.7-2-1.1 0-2-.7-2-1.5s-.7-1.5-1.6-1.5c-.8 0-1.2-.5-.9-1 .3-.6-.1-1-1-1s-1.4.4-1.1.9c.3.5-.6 1.2-2.1 1.6-2 .5-3.1.2-4-1.1-.8-1.1-1.3-1.3-1.3-.5 0 .7-.4 1-.9.7-1.2-.8-4.1.3-4.1 1.5 0 .5.8.9 1.8.9 1 .1.3.7-1.5 1.5s-3.3 1.7-3.3 2c0 .4 1.3 2.5 2.9 4.8 1.5 2.3 4 6.6 5.5 9.4 1.4 2.9 3.2 5.3 3.9 5.4 2.3.1 4.9.8 5.5 1.3.3.4-1.2.5-3.4.4-3-.2-4.9.4-8.4 2.8-7.7 5.3-13.2 8.6-12.6 7.5.4-.6.2-1.1-.3-1.1-1.4 0-1.4.6 0 3.2 1.1 2 3.1 2 10.4.2 1.6-.4 1.7-.3.5.5-2.2 1.5.9 1.4 9.1-.3 7.2-1.5 12.4-1 17.4 1.8 4.9 2.6 7.9 2.1 9.3-1.7 1-2.7.9-2.9-.2-1.4-2 2.5-2.7 2.1-1.5-1.1.6-1.5 1-2.7.9-2.7-.5 0 2.1-8.1 2.9-9.4.6-.9.7.3.4 3.2-.5 3.9-.3 4.6 1.6 5.2 2.5.8 2.5.8.7 7.1-.8 2.7-2 6.8-2.6 9.1-.8 3.2-1.6 4.3-3 4.3-1.1 0-2.4.9-3 1.9-1.5 3-1.1 3.9.5 1.1 1.7-3 2-2.1.4 1.4-.7 1.4-1.7 2.3-2.2 1.9-.6-.4-.8 0-.4.9.3.9 0 2.4-.7 3.4-2.4 3.6-3.6 8.4-2.6 10.9.5 1.4 1.5 2.2 2.2 1.9 2.3-.9 8.8-10.2 11-15.6 1.2-2.9 3.8-8 5.7-11.3 2-3.3 4.2-7.2 5-8.7 1.6-3 1.2-3 12.9-.1 5.6 1.4 6.7 2.1 8.8 5.5 3.4 5.3 6.9 6.6 10.1 3.7 1.2-1.3 2.3-2.7 2.3-3.2 0-.6 1.1-2.5 2.6-4.4 1.4-1.8 3.2-4.9 4-6.8 1.3-3.1 1.3-3.6-.1-4.1-.8-.3-3.4.3-5.8 1.5s-5.1 2.1-6 2.1c-.9 0-1.7.5-1.7 1.1 0 .6-.6.9-1.2.6-.7-.2-2.3 0-3.6.4-1.8.7-4.1.2-9-2-3.7-1.6-8.6-3.4-10.9-4-2.8-.8-5.8-2.7-8.7-5.6-2.4-2.4-4.7-4.1-5.1-3.7-1.4 1.5 2-5.5 5.3-10.6 2.7-4.1 4-5.2 6-5.2 2.5-.1 2.6-.1.7-1.2-1-.6-4-1.1-6.6-1.1-3.5.1-4.6-.2-4.3-1.2.3-.7-1.2-4.1-3.4-7.7-6.4-10.4-11.3-26-10-31.8.2-1.1-.4-1.4-2.2-1.2-2.1.4-2.2.2-1.1-1.2 1.2-1.4 1.1-1.6-.5-1-1.8.5-1.8.5 0-1 1.1-.9 1.7-1.9 1.3-2.2-.4-.4-1.3-.1-2.2.6-2 1.7-1.9.1.2-2.2 1.5-1.7 1.5-1.9 0-3.1-2.7-1.9-14.9-43.8-13.3-45.4.4-.4 1.1-.2 1.5.6.6.9 1 .7 1.4-.8.3-1.2.2-2.1-.1-2.1-1.5-.1-5-3.7-5.6-5.8-.6-1.7-.3-2.2 1.2-2.2 2.9 0 3.3-1 1.6-4.1-1.5-3-.5-3.9 1.6-1.4 1.5 1.8 3.1 1.1 2.4-1-.8-1.9 4.3-3.2 6.7-1.6 2.4 1.4 3 1.4 2.8-.2-.4-3.5.3-3.7 3.1-.7 1.8 1.9 3 4.1 2.8 5.3-.2 1.5.3 2.1 2 2.2 3 .2 4.5-2.5 3.2-5.9-1-2.6-.4-3.1 2.2-2.1 1 .4 1.3 1.6 1 3.5-.3 2.3 0 3 1.2 3 .9 0 1.6.5 1.6 1.1 0 .6.9.9 2 .6 1.3-.3 3.1.4 4.9 1.9 1.6 1.3 3.3 2.4 3.9 2.4.5 0 1.5.7 2.2 1.5.7.8 1.6 1.2 2.1.9 1.1-.6 4.1 2.1 3.2 3-.3.3-.1 1.2.5 1.9.7.8.9 1.7.5 2-1.3 1.3 1.3.7 3.5-.9 2.2-1.5 2.2-1.4 2.2 2.4 0 2.6.5 4.2 1.5 4.6.8.3 1.5 0 1.6-.7 0-.7.5-.2 1.1 1 1.2 2.5 2.8 2.9 4.6 1.1.8-.8 1.5-.8 2.8.3 1.9 1.5 1.9 1.5-.1-3.4-.4-.9.3-1.3 2-1.3 1.4 0 2.4.5 2.4 1-.3 3 .1 3.8 1.4 2.8 1.7-1.4 5.7-.4 5.7 1.5 0 .8.4 1.1 1 .8.5-.3 2 .3 3.2 1.5 1.2 1.1 2.4 1.6 2.8 1 .3-.5 2.3-.7 4.4-.4 3 .4 3.7.2 3.3-1-.3-.8 0-1.7.7-1.9.8-.3 1.8.9 2.5 2.9 1.2 3.3 3.1 4.6 3.1 2.1 0-.6 1.1-2.5 2.4-4 1.7-2 2.6-2.4 3.2-1.6.5.9 1 .5 1.6-1.2l.9-2.4 1.4 2.5c.8 1.4 1.4 1.9 1.5 1.1 0-1.1.6-.8 2.1.7 1.1 1.2 2.4 2 2.9 1.7 1-.6.2-4.3-1.1-5.1-.5-.3-.9-1.2-.9-2 0-1.1.4-1.2 1.9-.4 3.4 1.7 4.5 1.2 2.8-1.3-1.2-1.8-1.2-2.5-.2-3.4 1.7-1.6 5.4-.8 7 1.4 1 1.3 1.7 1.5 2.5.7s.7-1.5-.5-2.8c-.9-.9-1.3-2.1-.9-2.7.5-.9 1.1-.7 2 .6 1.2 1.6 1.6 1.6 3 .4.9-.8 1.9-1.3 2.1-1.2 1.2 1 3.2.1 2.7-1.2-.4-.8-.1-1.5.6-1.5s1-.6.7-1.4c-.3-.8-.1-1.6.6-1.9.7-.2.2-.9-1.1-1.6-2.9-1.5-2.9-4.1.1-4.2 2.9-.2 2.9-.2 5 .6 1.5.6 1.6.4.8-1.9-1.2-3 .2-4.4 2.6-2.4 2 1.7 8.1 1.7 8.8 0 .3-.7.9-1 1.5-.7.6.4.8 1.1.5 1.6-.4.5.3.9 1.5.9 1.4 0 1.9-.4 1.3-1.3-.4-.6-.8-1.7-.9-2.3-.1-.6-.5-2.1-.9-3.3-.6-1.9-.4-2.1 1.9-1.5 2 .5 2.6.2 2.6-1 0-.9.8-1.6 2-1.6 1.1 0 2.1-.6 2.1-1.3.1-.6.2-1.9.3-2.7 0-.8-1.2-2.2-2.8-3-1.6-.8-2.7-2-2.5-2.5.2-.6.8-.9 1.3-.7.4.1 1.9-.4 3.3-1.3 1.6-1.1 2.2-2.2 1.8-3.5-.4-1.2.2-2.3 1.6-3.4 1.2-.8 2.3-2.7 2.4-4.1 0-2.1-.4-2.5-2.8-2.5-1.7 0-2.6-.4-2.2-1.1.4-.6 1.3-.8 2-.5.7.2 1.8-.7 2.4-2 1.3-2.9 1.4-3.4.4-3.3-2.3.4-2.4-.3-.4-2 1.8-1.6 1.9-2 .6-2.5-1.4-.5-1.2-1 .9-3.1 1.4-1.4 2.9-2.5 3.5-2.5 1.6 0 2.5-4.2 1-5.1-1.1-.6-1-.9.4-1.5 1.1-.4 1.6-1.3 1.3-2.1-.3-.8.1-2.8 1-4.5.9-1.6 1.1-2.7.5-2.3-1.4.8-3.2-3.6-2-5 1.4-1.8.6-5.4-1.4-5.9-1-.2-1.6-.9-1.3-1.4.3-.6-.1-2.3-.9-3.8-.8-1.6-1.1-3.1-.6-3.4 2.3-1.5 3.8-6.4 2.9-9.4-1-3.3-4.9-5.9-7.4-4.9-.9.3-1.4-.2-1.4-1.7 0-1.8-.4-2.1-2.4-1.6-2.5.6-4.5-1.7-2.6-2.9.6-.4-.4-1.8-2-3.2l-3.1-2.6-2.4 2.3c-1.4 1.3-2.9 1.9-3.6 1.4-.9-.5-.5-1 1.2-1.6 2.2-.9 2.3-1 .7-2.2-1-.7-1.5-1.6-1.1-2 1.3-1.2-3.3-4.4-5-3.5-1 .6-1.8.5-2.2-.1-.3-.5.1-1 .9-1 2.2 0 3-1.8 3.3-7.9.1-2.9.8-6 1.4-6.7.6-.8.9-2.5.7-3.9-.6-2.9-.1-3.1 2.3-.9s4.8 1.4 2.5-.8c-1.4-1.5-1.4-1.8-.1-3.2 2.1-2.1 1.9-2.7-.9-2-1.9.4-2.4.1-2.8-2-.3-1.4 0-3 .6-3.6.7-.7.7-1.6-.2-3-1.1-1.7-1-2 .8-2.2 1.1 0 2.6-.1 3.3-.2 1.7-.1 3.5-3.6 3-5.7-.3-1-1.1-1.5-1.7-1.3-.7.3-1.9-.3-2.7-1.2-1.1-1.4-1.1-1.8.5-2.9 1-.8 1.6-2 1.3-2.7-.4-.9-.6-.9-.6-.1-.1.7-.7 1-1.5.7-.8-.3-1.6.4-1.9 1.7-.6 2.3-2.2 1.9-2.2-.4 0-.7-1.2-1.3-2.8-1.5-1.5-.2-2.7 0-2.6.5.3 1.7-.1 3.3-.9 3.3-1.2 0-1.1-10.4.1-11.9 1-1.2 4.8-3 7.2-3.5.6-.1 1.6-.5 2.3-1 1.9-1.2 3.6.8 2.5 2.9-.5.9-.7 3-.5 4.6.4 2.7.7 3 3.1 2.4 1.4-.3 3.2-1.5 4-2.5.7-1.1 2.1-2 3-2 .9 0 2.2-.9 2.9-2 1.4-2.2 3.8-2.7 4.5-.8.3 1 .7 1 2 0 .9-.8 3.1-1.2 4.9-1 2.9.3 3.3 0 4.2-3 .5-1.7 1.3-3.2 1.7-3.2.5 0 .6-.7.3-1.5-.7-1.7-3.4-2.1-3.4-.4 0 .5-.4.7-1 .4-.5-.3-1-.1-1 .5 0 .7-.8.9-2 .5-1.4-.4-2-.2-2 .8 0 2.1-4.2 1.3-5.8-1.1-1.3-2-1.3-2.2.2-2.2.9 0 1.6-.8 1.6-1.8 0-1.1.9-2.9 2-4.2 1.1-1.3 2-2.7 2-3.2 0-2.3 2.4-.3 3.7 3.2 1.3 3.2 2.3 4.2 5.2 5 4.9 1.4 5.8 1.3 3.5-.5-1.8-1.3-1.7-1.4 1.8-1.5 3.7 0 5.7-1.3 3.8-2.5-.6-.4-.8-1.1-.5-1.6.4-.5.1-.9-.4-.9-.6 0 .8-1.8 3-4 4-3.9 3.9-5.1-.2-2.9-1.9.9-2 .8-1.7-1.8.2-1.7.9-2.8 1.8-2.8.8 0 2.6-.6 3.9-1.4 1.7-.9 2-1.5 1.1-2.1-1.7-1.1-.3-3 2.1-3 1.5 0 1.9-.5 1.4-1.9-.4-1.3.1-2.5 1.7-3.6 1.6-1.2 1.9-1.9 1-2.2-1-.4-.9-1 .4-3 1.3-2.1 1.4-2.7.3-3.4-.8-.5-2.4-.7-3.6-.4-1.6.4-2.3.1-2.3-.9 0-.8-.5-1.8-1-2.1-1.3-.8-6 2.1-6 3.6 0 1.8-2.8 3.9-4.4 3.3-1.2-.5-1.3-1-.5-2.6 1.4-2.6-.6-4.9-3.7-4.4-2.1.4-2.3.2-1.4-1.4.8-1.5.5-1.9-1.5-2.4-2.6-.7-3.2-2-1.5-3.1 1.5-.9 1.2-2.7-.2-1.9-.7.4-.6-.1.3-1.2 1.7-2.1 3.9-6.9 3.9-8.6 0-.6-.9-.8-2-.5-1.1.3-2 .1-2-.4 0-1.5-3.4-4.5-5-4.5-.8.1-2 1.3-2.7 2.7-.7 1.5-2 3.2-2.9 4-1.4 1.2-1.6.9-1.2-2.1.2-2.9-.1-3.7-1.9-4.5-1.5-.6-2.5-2.2-2.9-4.2-.6-3-.8-3.2-3.8-2.7-2.1.4-2.7.3-1.7-.4 1-.7 1.1-1.5.3-2.7-.9-1.7-1-1.7-2 .1-.6 1.2-.7 2.6-.2 3.4.6.9.5 1.7-.3 2.2-2.2 1.4-3.7.8-3.4-1.3.1-1.6-.9-2.8-4-4.6-3.4-1.8-4.3-2-4.3-.9 0 2.3-1.6 2.7-1.7.4-.1-1.1-.4-2.3-.8-2.6-.7-.7-3.5 3.1-2.9 4 .3.5.2.8-.3.8-1.6-.1-4.5-5.2-4-7.2.8-2.9-.2-4.8-2.1-4-1.5.5-1.5.4-.3-1.1.7-.9 2-1.7 2.7-1.7.8 0 1.4-1.1 1.4-2.6 0-2.1-.4-2.5-1.8-2.2-1.2.3-2.4-.2-3.1-1.3-.9-1.6-.8-1.9.5-1.9.8 0 1.3-.4 1-.9-.3-.5.1-1.4.9-2.1 1.9-1.6 1.9-3.1 0-2.4-1.1.5-1.5-.1-1.5-2.5 0-2.9-.2-3-2.6-2.1-3.4 1.3-3.4 1.3-3.4-.9 0-1-.6-2.1-1.4-2.4-1.9-.8-4.2 2.1-3.8 4.7.4 2.1.4 2.1-1.2.1-.8-1.1-1.6-2.6-1.6-3.3 0-.7-.6-1.5-1.4-1.8-.8-.3-1.3-1.1-1-1.8.6-1.7-4.1-7-5.5-6.2-.6.4-1.1.3-1.1-.1 0-.5 1-1.3 2.3-1.8 2.8-1.3 3.3-7.6.6-10.8l-1.7-2.2-1.2 2.7c-1.3 2.7-4.7 5.1-3.7 2.5.3-.7-.1-2.1-.9-3.2-.8-1-1.4-1.4-1.4-.7 0 1.9-2.4.3-3.8-2.5-1-2.3-1-2.9.3-3.6.8-.4 1.5-1.6 1.5-2.6 0-2.1-3.6-3.2-6.6-2-1.2.4-2.8.1-3.9-.7-1.9-1.4-1.9-1.5.3-2 1.3-.4 2.2-1.4 2.2-2.5 0-2.1-1.6-2.6-2.3-.7-.3 1-.7 1-2-.1-1.5-1.2-1.7-1.1-1.7.3 0 1-.4 1.5-.9 1.2-.4-.3-2.1-.2-3.7.3-4.6 1.3-5.9.3-3.4-2.4 2.4-2.5 1.9-5.5-.5-3.5-1 .8-1.5.8-2.1-.1-.9-1.5-2.2 1.3-2.3 5.1-.1 2.8-3.5 4-4.4 1.6-.4-.9-2-1.3-4.7-1.1-3.1.2-4.3-.2-5-1.6-.6-1-.6-2-.1-2.3.5-.3.7-1.5.4-2.5-.4-1.6-.1-1.9 1.9-1.4 1.6.3 1.9.2 1-.5-.8-.5-1.1-2-.8-3.6.4-2.4.2-2.7-1.5-2.3-1.6.4-2.4-.2-3.4-2.6l-1.3-3.1-2 3.3c-2.2 3.7-3.7 2.9-1.7-.9 1.1-2 1.1-2.8 0-4.4-2-3 .1-5.3 5-5.8 3.4-.3 4.1-.8 5-3.4.6-1.7 1.4-3 2-3 .5.1 1.1-.7 1.3-1.7.2-.9-.2-1.7-.8-1.7-1 0-1-.3-.1-1.4.9-1.1.7-1.5-1-1.9-1.3-.4-1.8-1-1.4-1.7.5-.9.1-1-1.3-.6-1.5.5-2.4.1-3.2-1.5-1-1.7-1.4-1.9-2.1-.8-.7 1.2-1 1.1-2.1-.2-1.8-2.1-6.4-4.9-8.3-4.9-1.6 0-2.1-2.5-.5-3.5 1.2-.8.1-3.5-1.3-3.2-.7.1-1.1-.6-.9-1.6.4-2.1-1.4-2.2-2.6-.1-.8 1.4-1.2 1.3-3.3-.8-1.4-1.4-2.9-2.3-3.5-2.1-.7.2-1-.6-.7-2 .3-1.4-.2-2.9-1.1-3.6-.9-.8-1.6-1-1.6-.6s-.6.2-1.4-.4c-.7-.6-2.4-1-3.7-.9-2 .3-2.4-.2-2.5-2.4-.1-2.4.2-2.7 2.2-2.2 1.5.4 2.4.2 2.4-.6 0-.6.4-.9.8-.6.5.3.9-.8 1-2.4 0-1.7-.4-3-.9-3-.6 0-.8-.4-.5-.9 1-1.6-.5-4.3-1.8-3.2-.6.5-1.8.6-2.5.2-.9-.6-1-1.1-.3-1.5.6-.4.9-1.3.5-2.1-.3-.9.1-1.5 1-1.5 1.3 0 1.4-.5.6-3-1-2.8-3.9-4.3-3.9-2 0 .5-.6 1-1.3 1-.7 0-2.1 1-3.1 2.1-1.4 1.7-2 1.9-2.6.9-1-1.6-.1-4.1 1.8-5.6 1.3-1 1.3-1.5-.2-4.4-1.8-3.7-2.1-6-.7-6 1.5 0 .5-4.9-1.4-7-2.3-2.6-3.7-2.5-5.3.1-1.6 2.6-2.8 1.8-1.3-.9.8-1.6.6-2.5-1.3-4.7l-2.4-2.8-2.6 2.6c-1.4 1.4-2.6 3.2-2.6 3.9 0 .7-.7 2.2-1.5 3.2-1.2 1.6-1.7 1.7-3 .6-1.1-.9-1.5-.9-1.5-.1 0 .7-1 1.1-2.4.9-1.3-.1-2.9.2-3.7.8-2.7 2.1-4.8 2.3-5.8.7-.8-1.5-1.2-1.3-2.7 1.4-1.4 2.1-2.5 2.9-3.9 2.5-1.1-.2-3.2-.4-4.7-.3-2.1 0-2.8-.5-2.8-1.8 0-3.1-2.6-4.5-5-2.8-1.4.9-1.7 1.7-1.1 2.2.6.3 1.1 1.4 1.1 2.4s.7 2.4 1.5 3.1c1.1.9 1.5.9 1.5.1 0-.7.4-1 .8-.7 1.5.9-.2 9.6-1.9 9.6-1.2 0-2.3-2.2-2.5-5-.2-3.3-.1-3.2-2.2-2.1-1.3.7-2.2.7-2.9 0-.7-.7-1.6.8-2.7 4.5-1.4 4.2-2.3 5.5-4.2 6-1.4.4-2.9.4-3.4.1-.5-.3-.4.8.1 2.5.6 1.6 1.7 3 2.5 3 1.5 0 3.9 3.8 3 4.7-.3.3-.8-.2-1.2-1.1-.7-1.9-2.4-2.2-2.4-.3 0 .7.9 3 2.1 5.1 1.1 2.1 1.8 4 1.5 4.3-.8.8-3.6-2.4-3.6-4.2 0-.9-.4-1.4-.9-1-.6.3-1.3 0-1.8-.7-.4-.7-1.4-1.3-2-1.4-.7-.1-2.5-.2-3.9-.3-2.8-.1-2.9-2.6 0-2.6 1.9 0 3.6-2.2 3.6-4.7 0-1.1-.5-1.5-1.5-1.2-1.4.6-2.1-1.7-1.6-4.9.1-.6-2.2-1.1-4.1-.8-.5 0-.8-1.1-.8-2.6 0-2.5-.1-2.5-1.9-.9-1.7 1.6-1.9 1.6-2.5-.6l-.6-2.3-1.8 2.8c-1.4 2.2-2.2 2.7-4.2 2.2-1.4-.4-2.9-1.3-3.3-2.1-1.2-2.2-5 .2-4.4 2.7.3 1.2 0 1.9-.9 1.9-.8 0-1.4.9-1.4 1.9 0 1.6-.6 1.9-3.5 1.8-2-.1-3.5-.7-3.5-1.5 0-.6.5-1.2 1-1.2.6 0 1-.5 1-1.1 0-.6-.8-.8-1.9-.4-1.8.5-1.9.2-1.6-4 .2-2.6.9-5.3 1.6-6.1.9-1.1.8-1.4-.6-1.4-1 0-1.5-.3-1.2-.7.4-.3 0-1.5-1-2.5-1.2-1.3-1.3-1.8-.3-1.8.9 0 .7-.6-.5-2-1.1-1.2-2.8-2-3.9-1.8-1.6.2-2 1-2 3.6l.1 3.3-4.5-.7c-2.9-.4-4.3-.3-3.9.3.4.6-.1 1.9-1.1 3-1.9 2.2-6.3 2.4-7 .4-.3-.8-.9-.6-1.8.8-.8 1.1-2.1 1.8-2.8 1.5-.8-.3-1.6.3-1.9 1.5-.6 2.3-1.4 2.6-3.5 1.2-1.4-.8-2-2.9-2.1-6.9-.1-1.5-.7-2.2-2.1-2.2-1.6 0-2-.7-2-3s-.5-3-1.9-3c-1.1 0-2.3 1.2-3.1 3-1.6 3.8-2.3 3.8-3.7-.1-1.5-3.9-4.7-3.7-5.1.4-.2 1.9-.9 2.7-2.3 2.7-1.6 0-1.9.7-1.9 4 0 3-.5 4.2-2.1 5.1-2.1 1.1-3.8 0-3.9-2.4 0-.5-.6-.7-1.2-.4-.7.2-1.9-.3-2.5-1.2-.8-1-1.5-1.2-2-.6-2.3 2.9-8.3.7-8.3-3.1 0-1.4-.7-1.6-3.9-1.1-4.1.5-5.6-.7-4.5-3.6 1-2.6-1.9-3.6-4.9-1.7-1.7 1.1-2.4 2-1.8 2.4 1.6 1 1.3 2.6-.5 2.6-.8 0-1.2.5-.8 1.1.3.6.1 1.5-.6 1.9-.8.5-.9 1.3-.4 2.1s.9 3.3 1 5.7c.1 3.9 0 4.2-2 3.6-2.1-.7-2.1-.6-.2 1.5 2.3 2.5 1.6 3.7-1.3 2.1-1.4-.7-2.1-.7-2.1 0 0 .5-.7 1-1.6 1-1 0-1.4-.5-1-1.5.3-.9-.1-1.8-.9-2.1-.8-.4-1.5-1.4-1.5-2.5 0-2.5-3.6-4.4-4.7-2.5-.4.7-1.8 1.6-3 2-1.7.5-2.6.1-3.9-1.9-1.5-2.3-1.8-2.4-2.9-.8-1.1 1.5-1.5 1.5-2.9.3-1-.7-1.6-.9-1.5-.4.5 2.7-.2 4.6-1.6 4-1.8-.7-3.4 2-2.7 4.7.4 1.7.1 1.9-1.6 1.5-1.6-.5-2.2-.2-2.2 1 0 2.6 1.5 4.3 3.8 4.5 1.2.1 2.2.7 2.2 1.4 0 1.1-2.6 1.7-6.7 1.6-.7-.1-1.3.5-1.3 1.3s-.6 1.3-1.2 1.2c-.7-.2-1.2.5-1.2 1.4.1 1-.4 1.8-1.2 1.8-.8 0-1.4.7-1.4 1.6 0 .8-.4 1.3-.9.9-.6-.3.1-2.8 1.4-5.7 2.7-5.8 2.5-7-.5-4.3-1.1 1-2 1.4-2 .9.1-1.4 2.6-4.4 3.7-4.4.9 0 3.3-4.2 3.3-5.6 0-.3-.9-.3-1.9.1-2.3.7-6.1-2.5-6.1-5.3-.1-2.8-2.6-6.7-3.4-5.3-.6.9-1.1.9-2.1.1-2-1.6-3.3-.5-2.8 2.3.3 1.4-.2 2.9-1.1 3.6-1.3 1.1-1.7.9-2.6-1.4-1.5-3.8-1.3-7.5.3-6.9.8.3 2-.2 2.7-1.1.7-.8.9-1.5.6-1.5-.4 0-.3-.8.2-1.7 1.4-2.4-1.4-5.1-3.7-3.6-.9.6-1.7 1.5-1.7 2.2-.1.6-.2 1.6-.3 2.2 0 .7-1.1.9-2.5.5-1.4-.3-2.7-.2-3 .3-1 1.6-3.4.6-5.7-2.3-1.9-2.4-2.3-2.6-3.1-1.2-.8 1.5-1.2 1.5-4.1-.1-1.8-.9-4-1.6-4.9-1.4-1 .1-1.8-.3-1.8-.9 0-.7-.6-.8-1.9 0-2.7 1.4-2.7 1.4-4.1-2.3-1.3-3.2-4.9-7.8-5.9-7.6-.3.1-1.6 1.1-2.8 2.3zm5.6 15.1c.9 2.2-.4 3.6-2.6 2.8-.8-.3-1.1-1.4-.6-3.1.3-1.4.2-2.3-.3-1.9-.6.3-1.1-.6-1.2-2.1l-.2-2.7 2.1 2.5c1.1 1.4 2.4 3.4 2.8 4.5zm290.8-2.6c-.7.8-1.1 2.2-.9 3.1.4 2.2-2.7 3.5-3.5 1.5-.7-2 3.9-8.8 4.9-7.2.4.6.1 1.8-.5 2.6zm-160 12c1.4 2.3.5 3.5-1.4 2-1.4-1.2-1.8-3.9-.5-3.9.4 0 1.3.9 1.9 1.9zm27.1-.2c-.2 1-1.2 1.9-2.3 2-1.1.2-1.4 0-.7-.3.6-.3 1.2-1.2 1.2-2s.5-1.4 1.1-1.4c.6 0 .9.8.7 1.7zm-118.5 4.6c.6 1.7-2.3 3.6-4.3 2.8-.8-.3-1.6-1.4-1.6-2.4-.1-1.2.6-1.7 2.6-1.7 1.5 0 3 .6 3.3 1.3zm213.4.8c.2 1.6-.3 2-2.4 1.7-3.7-.4-4.1-3.8-.4-3.8 2 0 2.7.5 2.8 2.1zm-154.1 6.6c-.4.4-1.4-.1-2.2-1.1-2.2-3.1-1.7-4.3.8-1.9 1.2 1.3 1.8 2.6 1.4 3zm91.5-1.4c-1.1 1.2-2.3 1.8-2.6 1.5-.9-.9 2.7-4.8 3.8-4.1.5.3 0 1.5-1.2 2.6zM174 64.5c-.7.8-.9 2.4-.5 3.7.7 2.1.6 2.2-1 .7-2-2-1.2-5.9 1.2-5.9 1.2 0 1.3.3.3 1.5zm354.8.9c.7 1.7.7 2.7-.1 3.5-1.8 1.8-2.9 1.3-1.7-.8.7-1.3.7-2.2 0-2.6-1.2-.7-1.3-2.5-.2-2.5.5 0 1.4 1.1 2 2.4zm-346.5 4.9c.4 1-.2 1.3-1.9.9-3.3-.6-4.1-2.2-1.1-2.2 1.4 0 2.7.6 3 1.3zm340.3-.4c-1 1.6-4.6 2-4.6.5 0-.8 1-1.4 2.6-1.4 1.4 0 2.3.4 2 .9zm-361.5 56.6c2.4.8 2.4 1.6-.1 4.3-2 2.1-3.3 2.7-5.4 2.3-.5-.1-1.3.4-1.7 1.1-.5.8-.7-.2-.6-2.4.4-4.1 4.9-10.3 5.5-7.4.2.8 1.2 1.8 2.3 2.1zm385.5 3.1c-.2.6.1 1.7.7 2.3.8.8.8 1.4-.1 2.3-.9.9-1.2.9-1.2-.1 0-.7-.6-1.1-1.5-.8-.8.4-1.7.2-2-.4-.4-.5-1-.7-1.5-.4-.4.3-1.5-.6-2.4-2-1.5-2.3-1.5-2.5.4-3.5 1.1-.6 2-1.8 2-2.7 0-1.3.7-1 3 1.2 1.7 1.6 2.9 3.4 2.6 4.1zm-440.7 23.6c1.2 1.9 1.2 2-1.7.3-1.6-1-2.9-2.3-2.9-3 0-1.7 2.9 0 4.6 2.7zm493.1-2.7c0 .8-1.5 2.2-3.2 3.1-3.2 1.7-3.3 1.7-1.8-.2 1.4-1.7 4.1-4.3 4.8-4.4.1 0 .2.7.2 1.5zM83.7 167.6c-.9.9-2.8-.6-2.1-1.8.4-.6 1-.6 1.7.1.6.6.8 1.3.4 1.7zm535.3-1.8c0 1.3-1.2 2.2-2.2 1.6-1-.6-.1-2.4 1.3-2.4.5 0 .9.4.9.8zm-537 6.3c0 .5-.7.6-1.5.3-.8-.4-1.5-1.3-1.5-2.1 0-1.3.3-1.3 1.5-.3.8.7 1.5 1.6 1.5 2.1zm540-1.2c0 1.3-2.8 2.2-3.5 1.1-.3-.4.1-1.1.7-1.3 2-.8 2.8-.8 2.8.2zm-541.5 5.8c0 2.6-.5 2.9-3.5 2.4-1.8-.2 1-5 3-5.1.3 0 .6 1.2.5 2.7zm542.6-.6c.9 1.7.8 2.3-.2 3-1.5 1-3.1.8-3-.4.1-.4.1-1.6.1-2.7 0-2.6 1.6-2.6 3.1.1zM332 252.9c0 2-1.9 4.1-3.7 4.1-1.8 0-1.6-3 .3-5.1 1.9-2.1 3.4-1.6 3.4 1zm40.3.1c1.6 2.7 1.6 3.1.3 3.6-2.2.8-4.9-2.2-4.1-4.6.9-2.7 1.8-2.5 3.8 1zM29 256.8c0 .5-.5 1.3-1.1 1.9-.7.7-.8 1.3 0 1.7 1.1.7-.6 5.6-1.9 5.6-1.5 0-1.9-1.4-.9-2.7.9-1 .8-1.7-.1-2.8-1-1.2-1-1.8 0-3 .6-.8.9-1.9.5-2.6-.6-.8-.2-.8 1.4 0 1.1.7 2.1 1.5 2.1 1.9zm11.5-1.9c.3.5.1 1.2-.5 1.6-.5.3-1 1.5-1 2.6 0 1.2-.7 1.9-2 1.9-1.4 0-2-.7-2-2.3 0-3.6 3.9-6.3 5.5-3.8zm623.9 1c1.4 1.5 1.5 2.4.7 4-1.2 2.2-4.6 1.8-3.7-.5.3-.7.1-1.6-.4-1.9-1.5-.9-1.2-3.5.3-3.5.8 0 2.2.9 3.1 1.9zm10.6.7c.7 1.6.7 3.2 0 4.4-.7 1.3-.6 2 .3 2.3.9.4.9.7 0 1.8-1.7 1.7-2.4.8-2.8-3.6-.2-2-.6-4-.9-4.3-.6-.5 1.2-3.2 2-3.2.3 0 .9 1.2 1.4 2.6zm-639.8 7.1c1.2 2.1 2.2 4.4 2 5.1-.2.7.1 1.1.5 1 1.1-.4 1.4 1.3.7 3.4-.6 1.9-2.4 2.5-2.4.8s-1.8-1.1-2.3.7c-.4 1.4-.5 1.3-.6-.4-.1-1.6-.6-2.1-1.6-1.7-.8.4-1.5.1-1.5-.6s-.6-1-1.4-.7c-.7.3-1.9 0-2.5-.6-1.4-1.4-1.5-3-.1-2.2.5.3 1.8-1.1 2.7-3.2 1.5-3.1 3-5.2 4-5.3.1 0 1.2 1.7 2.5 3.7zm319.5 7.8c.8 2.4.9 4.6.2 6.2-.5 1.3-.9 3.4-.9 4.6 0 3.3-3.2 4.9-5.9 3-1.2-.8-2-2-1.8-2.6.2-.7-.1-2.8-.8-4.7-2.2-6.4 2-13.3 6.6-10.9.8.4 2 2.4 2.6 4.4zM46 270.9c0 .4-1.2 1.4-2.6 2.1-2.2 1.2-2.4 1.6-1 2.6 1.9 1.4 2.1 3.1.3 3.1-.7 0-1.8-1.1-2.4-2.4-1-2.1-.9-2.5 1.2-3.5 1.4-.6 2.1-1.6 1.8-2.4-.4-1 0-1.2 1.1-.8.9.3 1.6.9 1.6 1.3zm613.3 2.4c2.2.8 1 4.7-1.4 4.7-2.3 0-2.4-.9-.3-2.5 1.4-1 1.3-1.3-1.1-2.9-2.2-1.4-2.5-2-1.4-2.7.9-.5 1.6-.2 2.1 1 .3 1 1.3 2.1 2.1 2.4zm-606.9 1.5c.7 1.1-2.3 7-4 7.6-1.8.7-2.8-1.2-1.5-2.8.6-.7.8-1.6.5-1.9-.4-.3-.4-1.3-.1-2.2.7-1.6 4.2-2.1 5.1-.7zm601.2.3c.3.6.1 1.6-.5 2.2-.7.7-.7 1.4.1 2.4.8 1 .8 1.7.1 2.4-1.3 1.3-5.3-3.5-5.3-6.2 0-2.1 4.4-2.7 5.6-.8zm-596 2.8c.5.5 2.6 1.4 4.6 2 4 1.3 4.9 2.9 5 9.1 0 4.7-1 6.5-1.9 3.2-.8-3-5.3-3.1-5.3-.1 0 1.8-.2 1.9-1.5.9-.8-.7-1.5-2-1.5-2.9 0-1.3-.2-1.3-.9-.2-1.4 2.3-2.3-.5-1.6-5.3.5-2.9.3-4.6-.5-5.1-.9-.6-.9-1 .1-1.6 1.8-1.1 2.3-1.1 3.5 0zm287.4 10c0 1.1-5 2.4-5.8 1.6-.8-.8 1.9-2.5 4.1-2.5.9 0 1.7.4 1.7.9zm15 .1c.8.5 1.2 1.2.8 1.5-.9.9-4.8-.4-4.8-1.6 0-1.2 2.1-1.1 4 .1zm-42 7.6c0 1.2-3 3.4-4.7 3.4-1.6-.1-1.5-.3.6-2 2.3-2 4.1-2.6 4.1-1.4zm68.5 1.4c1.4 1.5 1.5 2 .4 2-1.5-.1-4.9-2.3-4.9-3.4 0-1.3 2.8-.5 4.5 1.4zm-70.8 7.6c.3.8-.1 2.2-.9 3-1.2 1.2-1.7 1.2-3.3 0-1.6-1.2-1.7-1.6-.6-3 1.7-2 4-2.1 4.8 0zm72.7-1c2 .8 2.1 2.8.2 4.3-1.1.9-1.8.8-3-.4-3-3.1-1.3-5.5 2.8-3.9zm-132.6 10.6c.8.8.8 1.7.1 3-.8 1.5-1.4 1.6-3 .8-1.5-.9-1.7-1.5-.9-3 1.2-2.3 2.1-2.5 3.8-.8zm192.3 3.2c-1.6 1.9-4.1 1-4.1-1.4s2.1-3.1 3.9-1.4c1.1 1 1.2 1.6.2 2.8zm183.4 23c.1 2.4-1.4 2.5-4.2.3-1.8-1.4-1.6-3.8.2-3.1.9.4 1.5.1 1.5-.7 0-2.4 2.3.9 2.5 3.5zm-556.8-1.8c.2.5-1 1.7-2.6 2.7-2.8 1.7-2.9 1.6-3.3-.8-.3-1.3-.3-2.7 0-3 .9-.8 5.5 0 5.9 1.1zm191.7 8.5c4.7-.2 5.5.1 6.1 1.8.7 2.4-.4 4.7-3.8 7.9l-2.5 2.4-4.6-2.7c-2.5-1.5-4.6-3.4-4.6-4.3 0-1-.6-2.9-1.4-4.4-1.3-2.4-1.2-2.7.2-3.1 1-.2 2.5.3 3.5 1.1 1.1 1 3.5 1.5 7.1 1.3zm179.9-1.4c-.7.2-1.7 2.2-2.3 4.4-.8 2.9-2.1 4.6-5.1 6.4-3.7 2.4-4 2.5-6.5.9-3.5-2.3-5.5-6.5-4.2-8.8.8-1.3 2-1.7 5.7-1.5 2.5.1 5.5-.3 6.6-.9 1.1-.6 3.1-1.1 4.5-1.1s1.9.3 1.3.6zm-92.2 6c5.3 3.8 5.6 5.3 2 8.5-1.7 1.5-3.1 3.2-3.1 3.8 0 .5-.4 1-1 1-.5 0-1 1.2-1 2.6 0 1.4-.4 2.3-1 1.9-.5-.3-1-1.5-1-2.6 0-1-.4-1.9-1-1.9-.5 0-.9-.4-.7-.8.1-.4-1.4-2.2-3.3-3.9l-3.5-3.1 4.3-4.1c2.3-2.3 4.5-4.1 4.8-4.1.3 0 2.3 1.2 4.5 2.7zm-101.3 5.5c1.3 1.3-.2 3.8-2.3 3.8-2.1 0-3.6-2.5-2.3-3.8.7-.7 1.7-1.2 2.3-1.2.6 0 1.6.5 2.3 1.2zm199.9.4c.5 1.4-1.1 3.4-2.7 3.4-.3 0-1.1-.4-1.9-.9-1.9-1.2-.6-4.1 1.9-4.1 1.1 0 2.3.7 2.7 1.6zM263 363.5c0 .8-.7 1.5-1.5 1.5s-1.5-.7-1.5-1.5.7-1.5 1.5-1.5 1.5.7 1.5 1.5zm178-.5c0 1.2-2.8 2.5-3.6 1.7-.9-.9.6-2.7 2.2-2.7.8 0 1.4.5 1.4 1zm214 8c0 .5-.2 1-.4 1-.3 0-.8-.5-1.1-1-.3-.6-.1-1 .4-1 .6 0 1.1.4 1.1 1zm-303 2.8c0 1.4-1.1 2.1-2.6 1.5-2.1-.8-1.7-2.3.6-2.3 1.1 0 2 .4 2 .8zm-311.3 4.3c-.8 2.1-1.3 2.6-1.5 1.5-.2-1 .2-2.3.8-3.1 1.8-2.2 2-1.8.7 1.6zm621.3 2c0 1.8-1 .8-2.5-2.4l-1.6-3.2 2.1 2.4c1.1 1.3 2 2.7 2 3.2zm-397.6-.9c2.6 3.7 2 5-2.1 4.6-3-.3-3.8-.9-4.4-3-1.1-4.2 3.9-5.4 6.5-1.6zm177.2-1.4c.6.4 1.1 1.6 1.1 2.7 0 2.5-1.4 3.5-4.9 3.5-2.3 0-2.8-.5-2.8-2.3 0-3.8 3.6-6 6.6-3.9zm-94.1 2c-.3.3-1.1 0-1.8-.7-.9-1-.8-1.1.6-.5 1 .3 1.5.9 1.2 1.2zm7.5-.8c0 .5-.5 1-1.1 1-.5 0-.7-.5-.4-1 .3-.6.8-1 1.1-1 .2 0 .4.4.4 1zm-72.2 3.7c1.9 2.7 1.4 4.7-2.1 8.8-3.3 3.8-5.6 4.2-9.4 1.7-1.5-.9-3.3-9.6-2.4-11 1.8-2.7 11.7-2.4 13.9.5zm148.4-.9c.4.4.4 2.9-.1 5.6-1.5 7.9-6.4 9.8-11.2 4.4-3.6-3.9-4.3-6.2-3-8.7 1.6-2.9 11.8-3.8 14.3-1.3zm-92.7 1.5c1.1 1.7 1.5 4.5 1.3 9.5-.1 6.6.1 7.5 3 11.6l3.2 4.4-2 2.4c-1.4 1.9-1.6 2.8-.8 3.6.9.9.8 1.8 0 3.7-1.6 3.4-1.5 4.5.3 4.5 2.6 0 1.6 1.9-1.2 2.6-4.1 1-8.5 3.4-10.3 5.7-1.9 2.2-4.3 1.5-3.3-.9.5-1.3.1-1.5-1.8-.9-1.3.4-3.6 1.5-5 2.5-2.4 1.7-2.7 1.7-5.2.2-3.7-2.2-6-7.3-4.8-10.4.5-1.4 3.2-4.4 6.1-6.8 4.6-3.8 5.1-4.6 4.7-7.5-.3-2 .5-5.4 2-9.1 1.4-3.2 2.7-7.3 3-8.9.6-3.5 2.1-6.7 3.7-7.7 2.2-1.5 5.6-.8 7.1 1.5zm30.7-1.1c.9.7 2.3 3.5 3.1 6.3.8 2.7 2.3 7.2 3.4 10 1 2.7 1.9 6.8 1.9 9-.1 3.6.3 4.3 4.6 7.3 7.9 5.7 8.6 12.4 1.7 17.2l-2.8 2-3.6-2.4c-3.7-2.5-6.5-2.5-6.5 0 0 2-1.8 1.7-3-.5-.5-1.1-3.7-3-7-4.2-6.3-2.3-7.3-3.4-4.1-4.4 1.8-.5 1.8-.8.6-3.2-.9-1.8-1.1-3.2-.5-4.4.7-1.2.5-2.1-.5-2.9-2.2-1.8-1.8-3.9 1.2-7.9 2.4-3.1 2.7-4.4 2.8-11.9.1-7 .4-8.7 2-9.8 2.3-1.7 4.6-1.8 6.7-.2zm-113.1 2.7c-1.2.8-5.1.4-5.1-.5 0-.2 1.5-.4 3.3-.4 2.2 0 2.8.3 1.8.9zm53.7 1.3c-.3 2.5-1.7 3.2-3.7 1.9-1.9-1.2-.6-4.1 1.9-4.1 1.6 0 2.1.5 1.8 2.2zm84.6-1.6c2.2.8 2 2.1-.5 3.5-1.7.9-2.3.8-3-.2-2.1-3.3-.4-4.8 3.5-3.3zm53.3.5c-1.4.8-2.2.8-3 0-.8-.8-.3-1.1 1.9-1.1 2.5.1 2.7.2 1.1 1.1zM47 386c2.5.1 2.5.1.2 1-1.3.6-3.2.6-4.7 0-3.1-1.2-3.3-2.4-.2-1.6 1.2.3 3.3.6 4.7.6zm114.9 5.4c-1.9 2-7.7 3-9.9 1.6-1-.6-.5-1.6 2.4-4.4l3.7-3.7 2.8 2.3c2.6 2.2 2.6 2.4 1 4.2zm385.5-1.5c2.7 2.8 2.8 3.1 1 3.2-6.1.4-8.2.1-10-1.7-1.9-1.9-1.9-1.9.6-4.1 2.8-2.4 4-2.1 8.4 2.6zm112.8-3.7c-.9.9-4.4 1.3-7.7.8-1.1-.2-.2-.6 2-.9 5.7-.9 6.7-.9 5.7.1zm-313.9 5.1c.6 1.6-.8 4.4-1.5 3.1-1.5-2.7-1.6-4.4-.4-4.4.8 0 1.6.6 1.9 1.3zm10.1 2c-.3.9-1 1.7-1.5 1.7-1.1 0-1.2-3.4-.2-4.4 1.1-1.1 2.4.9 1.7 2.7zm-169.3 3.1c-1.2.5-2.1 1.4-2.1 2 0 .6-.4.5-.9-.3-1.3-2.1 1.8-5.4 3.7-3.9 1.2 1 1.1 1.4-.7 2.2zm213 1.3c1.8 4.7 1.1 8.9-1.7 10.7-4.1 2.7-7.6 1.7-9.9-2.8l-2-3.9 3.3-3.3c1.8-1.8 3.8-3.4 4.5-3.7 2.3-.7 4.9.6 5.8 3zm115.8-1.6c1.1 1.9 1.1 2.1-.4 1.5-.9-.3-2.1-.6-2.6-.6s-.9-.7-.9-1.5c0-2.2 2.3-1.8 3.9.6zm-205.6 2.3c2.8 2.9 3.1 3.7 2.2 5.8-2.6 6.3-7.4 7.7-11.5 3.3-1.9-2-2.2-3.1-1.6-6.7 1.1-6.9 5.7-7.9 10.9-2.4zm7.1-1.8c1.1 2.7.7 3.7-.9 2.4-1.6-1.4-2-4-.6-4 .5 0 1.2.7 1.5 1.6zm67.2 2c-.3.8-1 1.2-1.6.9-.7-.4-.6-1.4.2-2.8 1.2-2.4 2.4-.8 1.4 1.9zm-226.1-.4c.8.7-3.7.7-6.3-.1-.2-.1 0-.6.3-1.1.7-1.2 4.3-.4 6 1.2zm387.9-1.6c2.5 1 .8 2.4-2.7 2.4-3-.1-3.1-.1-1.3-1.5 2.3-1.7 2-1.7 4-.9zm-270 6.3c1 1.6-.5 4.1-2.4 4.1-2.3 0-3.4-1.6-2.6-3.5.6-1.6 4.2-2 5-.6zm152.4 1.3c-.2 1.5-1 2.3-2.3 2.3-1.3 0-2.1-.8-2.3-2.3-.3-1.8.1-2.2 2.3-2.2 2.2 0 2.6.4 2.3 2.2zm-9.4 5.4c.3.8 1.4 1.4 2.4 1.4 1.1 0 2.6.7 3.3 1.6.7.9 2.3 2 3.6 2.5 1.4.5 2.3 1.7 2.3 2.9 0 1.7.4 1.9 2.5 1.4 1.8-.4 2.5-.2 2.5.8s-1.2 1.4-4.2 1.4c-3.9-.1-4.3.1-4.3 2.4 0 4-2.9 5.4-4 2-1.1-3.5-2.5-2.2-2.5 2.3 0 2.4-.6 5.2-1.4 6.2-1.3 1.8-1.6 1.8-5.2.3-2.2-.9-4.9-1.6-6.2-1.6-1.2-.1-4.4-1.8-7.1-3.9-4-3.1-5-4.5-5.4-7.8-.5-3.6-.2-4.4 2.7-7.4 2-1.9 4.9-3.7 7.2-4.2 2.2-.4 5.5-1.2 7.4-1.7 4-1 5.6-.6 6.4 1.4zm-125.7.1c2.8.5 5.6 2.1 8.3 4.6 3.4 3.3 3.8 4.2 2.9 5.9-.6 1.1-.8 2.6-.5 3.4.4.9-1.6 3-5.6 5.9-3.3 2.5-6.3 4.3-6.6 4-.3-.3.3-1.2 1.4-2 1-.9-.9-.2-4.2 1.5-3.4 1.6-6.6 3-7.2 3-1.9 0-3.4-4-2.9-7.6.6-4.2-.6-5.2-2.7-2.2-1.8 2.5-3.2 1.7-3.8-2.2-.3-2.2-.8-2.5-4.2-2.5-2.5 0-4.1-.5-4.4-1.4-.3-1 .2-1.3 2.1-.9 2.1.4 2.7 0 3.1-1.9.4-1.2 1.3-2.3 2.1-2.3s2.3-.9 3.2-2c1-1.1 2.5-2 3.4-2 .9 0 2.2-.7 3-1.6 1.3-1.6 2.8-1.6 12.6.3zm58.9 2.4c.9 1.5-1.3 2.8-3.6 2.2-2.3-.6-1.5-3.3 1-3.3 1.1 0 2.2.5 2.6 1.1zm-132 7.4c.4 1.6 0 3.4-1 4.9l-1.6 2.5 3.6-.6c3.5-.6 3.6-.5 2.3 1.6-1.2 1.9-1.2 2.4.3 3.5 1.6 1.2 1.6 1.4-.5 3.4-1.6 1.5-2.6 1.8-3.9 1.1-2.1-1.2-3.2.3-2.3 3.4.6 1.8 0 1.5-3.2-1.6-3.2-3-3.9-4.3-3.5-6.4.4-2 .2-2.5-1-2.1-1 .4-1.4 0-1.2-1.5.1-1.2.3-3.2.3-4.5.1-1.2.7-2.2 1.5-2.2s1.7-.6 2-1.3c.3-.9.9-.7 1.9.5 1.3 1.6 1.5 1.6 2.7-.7 1.7-3.2 2.8-3.2 3.6 0zm265.6.8c2.2-1.9 5.1 1.1 5.5 5.7.3 3.3.1 3.8-1.3 3.3-1.4-.5-1.6-.1-1.2 2 .4 2-.3 3.4-3.4 6.4-2.2 2.1-3.6 3-3.3 2 1.2-2.9-.2-5-2.3-3.8-1.5.8-2.4.5-4.2-1.4-2.1-2.2-2.1-2.5-.5-2.5 1.4 0 1.6-.6 1.1-3.1-.6-3-.5-3 2.4-2.4l3 .7-1.6-3.6c-1.5-3-1.5-3.8-.4-5.1 1.3-1.5 1.5-1.5 3.1.6 1.3 1.8 2 2 3.1 1.2zM351.5 422c-.3.5-1 1-1.6 1-.5 0-.9-.5-.9-1 0-.6.7-1 1.6-1 .8 0 1.2.4.9 1zM50 424.8c0 1-.7 1.9-1.5 1.9-1.8 0-1.9-.9-.3-2.5 1.6-1.6 1.8-1.5 1.8.6zm603 1.3c0 .5-.7.6-1.5.3-.8-.4-1.5-1.3-1.5-2.1 0-1.3.3-1.3 1.5-.3.8.7 1.5 1.6 1.5 2.1zm-298.3 5.2c.8 1.5 1.1 3.7.8 4.8-.5 1.5-.2 2.2 1.4 2.6 2.2.6 3.7 6.6 2.7 11.5-.2 1.6 0 2.8.5 2.8 1.2 0 .4 11.9-1.1 17-.8 2.8-6.5 9-10.2 11.1-1.4.8-1.8.6-1.8-.9 0-1-.4-2.2-.9-2.8-1-1.1-4.3-9.7-4-10.4.1-.3-.3-1.5-1-2.8-1-1.8-.9-2.2.4-2.2s1.3-.4-.2-3.3c-1.3-2.4-1.7-4.9-1.5-9.6.3-5.5.6-6.2 2.2-5.8 1.5.4 1.7 0 1.3-1.7-.9-3.9-.4-5.8 2.8-11.2 3.2-5.2 3.4-5.3 5.2-3.6 1 .9 2.6 3 3.4 4.5zm140.8-1.9c-.4 3.1 2.1 6.7 4 6 2.1-.8 1.9 2-.2 3.7-2.3 1.9-5.9 1.8-5.4-.1.8-3.3.5-4.5-1.1-4.4-1.8.2-1.5-1.4 1-5.4 1.8-2.8 2-2.8 1.7.2zm-288 1.6c.9 1.6 1.3 3.1 1 3.1-.3.1-.9.2-1.4.3-1.9.2-2.4 1.6-1.2 3 2.6 3.1-2 4.4-5.3 1.7-2.2-1.9-2-3.6.6-3.8 2.7-.2 4-2.1 3.5-5.1-.6-3.1 1-2.7 2.8.8zm-68.7-.8c-.2.6-1.4 1.5-2.6 1.9-1.8.7-2.2.5-2.2-1.1 0-1.5.7-2 2.6-2 1.5 0 2.4.5 2.2 1.2zm427.5.2c.3.8.1 1.7-.6 1.9-1.5.5-4.7-1-4.7-2.3 0-1.6 4.7-1.2 5.3.4zm-333.2 7.9c-1.6 1.6-2 .5-.8-2.3.9-2.2 1.1-2.3 1.4-.6.3 1 0 2.3-.6 2.9zm235.4-.3c-.9 1.4-2.5-.5-2.5-3 0-1.2.3-1.2 1.6.2.9.9 1.3 2.1.9 2.8zM333 440.2c0 2.6-.2 2.9-1.5 1.8-1.5-1.3-2-4.2-.9-5.3 1.3-1.2 2.4.4 2.4 3.5zm36.8.4c-.6 1.3-1.5 2.4-1.9 2.4-.6 0-.6-4.3 0-6.9.1-.2.7.2 1.5.9 1.2.9 1.3 1.7.4 3.6zm-94.4 1.6c-.3.4-1.1.5-1.9.1-1.6-.5-2-3.4-.8-4.7.8-.8 3.3 3.5 2.7 4.6zm11.9 1.6c-4.7.6-7.5-2-3.3-3.1 1.1-.3 2-1.3 2-2.4.1-1.2.7-.7 2 1.7l1.8 3.5-2.5.3zm129.4-2.8c2.1 0 1.1 2.2-1.3 3.1-3.4 1.2-4.6-.2-3.1-4 1.1-3 1.2-3.1 2.1-1.1.5 1.1 1.5 2 2.3 2zm11.3-.6c-1.4 1.4-2.4 0-1.6-2.1.6-1.5.8-1.5 1.6-.3.6.9.5 1.9 0 2.4zM194.7 444c-.1 1.1-.9 2.3-1.9 2.6-2.3.7-2.3 2.4-.1 6.3 1.4 2.4 1.5 3.3.6 4.2-1.8 1.8-2.8.3-1.2-1.8 1.2-1.5 1.2-1.6-.3-1-1.4.5-2.3-.3-3.9-3.5l-2.1-4.1 2.9-2.3c3.5-2.9 6.2-3.1 6-.4zm317.4 1c1.9 1.6 2.8 3 2.2 3-.7 0-1.3.6-1.3 1.4 0 .8-.9 2.4-1.9 3.7-1.6 2-2.2 2.2-3.3 1.1-1.1-1.1-1-1.5.4-2.3 1.8-1 1.4-3.5-.7-5.4-.7-.6-1.5-1.8-1.8-2.8-1-2.8 2.6-2.1 6.4 1.3zm6.4 3.7c-.4 1.7-1 2.2-1.6 1.6-.6-.6-.5-2.2.3-4.4.9-2.5 1.3-2.9 1.6-1.6.2 1 .1 3-.3 4.4zm-333.2 3c.4.6.3 1.4-.3 1.8-.5.3-1-.1-1-.9 0-.9-.4-1.6-.9-1.6-1.2 0-2.1-3.9-1.3-5.8.5-1.3.9-.8 1.7 1.8.5 1.9 1.3 4 1.8 4.7zM54 449c0 .5-.2 1-.4 1-.3 0-.8-.5-1.1-1-.3-.6-.1-1 .4-1 .6 0 1.1.4 1.1 1zm187.4.5c-.4.8-1 1.5-1.5 1.5s-.9-.7-.9-1.5.7-1.5 1.5-1.5c.9 0 1.2.6.9 1.5zm219.6 0c0 .8-.4 1.5-1 1.5-.5 0-1-.7-1-1.5s.5-1.5 1-1.5c.6 0 1 .7 1 1.5zm187-.5c0 .5-.5 1-1.1 1-.5 0-.7-.5-.4-1 .3-.6.8-1 1.1-1 .2 0 .4.4.4 1zm-403.3 4.5c-.4.8-1.1 1.5-1.7 1.5-.7 0-.7-.6 0-2.1 1.3-2.3 2.6-1.9 1.7.6zm76.8-1.6c.7 1.2-1.2 2.4-2.5 1.6-1.1-.7-.4-2.5 1-2.5.5 0 1.1.4 1.5.9zm60.5.8c0 .7-.7 1.3-1.5 1.3s-1.5-.6-1.5-1.3c0-.8.7-1.4 1.5-1.4s1.5.6 1.5 1.4zm75.4-.1c.4.9.4 1.9.2 2.1-.8.8-2.6-.8-2.6-2.3 0-1.9 1.6-1.8 2.4.2zm59-.1c.3.8.1 1.5-.4 1.5-.6 0-1-.7-1-1.5s.2-1.5.4-1.5.6.7 1 1.5zm123 4.6c-.9 1.5-3.4 1-3.4-.6 0-.9.6-2.2 1.3-2.9 1-1.2 1.3-1 2 .6.4 1.1.5 2.4.1 2.9zm-576.1-3.5c1.4.5 1.3 4.4-.2 4.4-1.7-.1-3.1-1.8-2.5-3.3.7-1.9.7-1.9 2.7-1.1zm445.2 2.4c.3.5.3 1.5-.1 2.1-.6 1.1-2.3-.6-2.4-2.4 0-1 1.8-.9 2.5.3zm-76.5 3.1c0 .5-.7.6-1.5.3-.8-.4-2.3-.3-3.2 0-1.5.6-1.5.8-.3 1.6.8.5 1.1 1.2.8 1.5-1.1 1.1-2.8-.4-2.8-2.4 0-2.3 4-4.3 5.8-2.9.6.6 1.2 1.4 1.2 1.9zm21.8 3c-.2 2.6-.6 2.9-3.3 2.7-2.6-.1-3-.6-2.9-2.7 0-1.8.8-2.7 2.5-3.2 3.3-.8 4-.3 3.7 3.2zm-202.8.1c-2 1.6-2.1 2.1-.9 2.9 1.2.7 1.2.9-.1 1-.8 0-2.5.2-3.6.5-1.6.2-2.3-.2-2.7-1.7-.9-3.5.1-4.4 5-4.5l4.7-.1-2.4 1.9zm-169.7 1.9c.4 1.5.2 1.9-.9 1.5-1.1-.4-1.3.1-.9 2.2l.5 2.7-1.1-2.8c-.8-2.1-.8-3.1.1-4.2 1.6-1.9 1.7-1.9 2.3.6zm540.7 2.6c0 1.3-.4 2.3-.9 2.3s-.7-1-.4-2.3c.4-1.8.3-1.9-.6-.7-.9 1.3-1.1 1.2-1.1-.6 0-1.1.3-2.4.7-2.7.9-1 2.3 1.4 2.3 4zm-393-1.8c0 1.2-3.9 2.1-4.5 1.1-.3-.5.1-1.1.7-1.3 2.1-.9 3.8-.8 3.8.2zm30.4 0c.3.5-.5 1.1-1.8 1.3-1.7.4-2.3.1-1.9-.9.6-1.5 2.9-1.8 3.7-.4zm216.3.8c.3.7-.3.9-1.7.6-2.9-.8-3.7-2.5-.9-2.1 1.2.1 2.4.8 2.6 1.5zM232 468.1c0 .6-.4.7-1 .4-.5-.3-1-1.1-1-1.6 0-.6.5-.7 1-.4.6.3 1 1.1 1 1.6zm238.4 0c-.3.5-1 .7-1.5.3-.5-.3-.7-1-.3-1.5.3-.5 1-.7 1.5-.3.5.3.7 1 .3 1.5zm-207.2.3c1.6 1.2 1.6 1.4-.6 2.4s-2.4.8-2.2-1.4c.1-2.7.4-2.8 2.8-1zm164.8 1.2c0 .2-1.3 1-3 1.9-2.9 1.5-3.5 1.1-2.4-1.8.3-.9 1.4-1.2 3-.9 1.3.2 2.4.6 2.4.8zm-268 4.1c0 1.1-.4 1.1-2 .3-1.1-.6-1.7-1.6-1.3-2.5.4-1.2.9-1.3 1.9-.4.8.6 1.4 1.8 1.4 2.6zm382.6.5c-1.8 1.2-3-1-1.6-2.8 1.3-1.5 1.5-1.4 2.1.3.3 1 .1 2.1-.5 2.5zm-133.8 2c.2 5.6-1.6 9.5-4.9 10.7-1.6.5-3 .9-3 .8-.1-.1-.3-1.9-.4-4-.1-2.5.3-4.1 1.2-4.4.7-.3 1.3-.9 1.3-1.5 0-.5-.4-.6-1-.3-.5.3-1 .1-1-.4 0-1.9 2.8-1.2 3.5.9.5 1.6.9 1.7 2 .7.7-.6 1.1-1.6.8-2-.5-.8.3-3.7 1-3.7.2 0 .4 1.5.5 3.2zm-112.3.6c-.3.8 0 2.1.7 3 1.1 1.3 1.3 1.2 1.8-.8.5-2.1 4.9-4.1 5.1-2.2 0 .4.2 1.8.3 3.2.6 4.6-.3 5.1-4.7 2.7-3.1-1.7-4.3-3.2-4.8-5.4-.5-2.5-.3-3 .8-2.6.8.3 1.2 1.2.8 2.1zm25.8.8c-.2 1.9 0 2.4.6 1.5.6-.9 1-1 1.6-.2.5.9 1 .9 2 .1.9-.8 1.5-.3 2.5 2 .7 1.6 1.8 3.5 2.6 4.1.8.6 1.4 2.6 1.4 4.3l-.1 3.1-1.5-2.8c-1.7-3.2-2.9-3.6-2.1-.7.3 1.1.1 2.3-.4 2.6-1.4.8.1 2.6 1.7 2 1.9-.7 2.2.1 2.9 9.4l.7 8.5-3.6-3.5c-3.6-3.4-9.6-13.9-9.6-16.7 0-.7.7-1.6 1.5-1.9 1.2-.5 1.3-1 .4-2-.6-.7-.8-1.9-.4-2.6.4-.7-.1-.4-.9.6-.9 1.1-1.6 1.6-1.7 1-.4-3.3-.4-11-.1-11.7.9-1.9 2.7.2 2.5 2.9zm64.6 0c-.9 1.1-.8 1.5.4 2 2.4.9 2.9 3.3 1.6 9.3-1.5 7.3-4.8 13.7-9.3 18-3.2 3.1-3.6 3.2-3.6 1.5 0-1.2.7-4.3 1.6-7 .9-2.7 1.7-8.6 1.9-13 .3-7.3.6-8.5 3.1-11.3 2.1-2.4 3-2.8 4.1-2 1 .9 1 1.5.2 2.5zm-279.4 1c-2.2 1.6-4.5 1.8-4.5.4 0-.6.5-1 1-1 .6 0 1-.7 1-1.5 0-1.3.4-1.4 2.2-.4 2.1 1.1 2.1 1.2.3 2.5zm488.6-.6c.5 0 .9.4.9 1 0 1.5-2.6 1.2-4.1-.6-1-1.3-1-1.7.2-2.4.9-.7 1.5-.5 1.7.5.2.8.8 1.5 1.3 1.5zm-229.8 9.8c-.2 2.6-.6 5.6-.8 6.7-.2 1.1-.4 2.4-.4 2.8-.1.5-2.8-1.3-6.1-3.8-6.7-5.2-6.7-4.4-.6-11.3 1.7-1.8 3.6-3 4.3-2.8.7.3 1.6 0 2-.7 1.1-1.9 2.2 4 1.6 9.1zm-7.5 17.9c1.2 1.7 2.3 4.8 2.3 7 .2 3.5-4.4 23-5.7 24.2-1.9 1.9-6.3-13.5-7-24.7-.6-7.7-.4-9 1-9.5 1.3-.5 1.4-1 .5-2.5-.7-1.1-.9-2.7-.6-3.6.5-1.4 1.3-1 4 2.1 1.8 2.1 4.3 5.2 5.5 7zm44 .5c-2.8 10.6-5 14.7-16.5 31.2-18.5 26.6-21.8 28.1-16.1 7.6 2.5-9.2 6.9-16.3 14-22.4 3.4-2.9 7-7.4 9.4-11.7 2.1-3.8 4.5-6.9 5.2-6.9.6 0 1.2-.4 1.2-.9 0-1.2 2.8-4.1 3.9-4.1.5 0 0 3.2-1.1 7.2zm55.9 13c-.3.8-.6.5-.6-.6-.1-1.1.2-1.7.5-1.3.3.3.4 1.2.1 1.9zm-123.2 17.3c3 5.2 5.2 13.3 6 22 .8 8.1.8 7.7.6 8.9-.2 1.9-12.1-23.4-14.5-30.9-4.4-14-4.4-13.6.9-8.5 2.5 2.5 5.7 6.3 7 8.5zM569 606c-.6 1.1-1.3 2-1.6 2-.2 0 0-.9.6-2s1.3-2 1.6-2c.2 0 0 .9-.6 2zm-9.6 13.5c-1.5 2.2-3.1 3.6-2.1 1.7.2-.4.7-1.5 1-2.5.4-.9 1.1-1.7 1.7-1.7.6 0 .3 1.1-.6 2.5zM516.5 638c.3.5.1 1-.4 1-.6 0-1.1-.5-1.1-1 0-.6.2-1 .4-1 .3 0 .8.4 1.1 1z"/><path d="M406 430.4c0 .2.8 1 1.8 1.7 1.5 1.3 1.6 1.2.3-.4s-2.1-2.1-2.1-1.3zM354.6 471.5c-.9 2.6-.7 3.2.5 1.2.6-1 .9-2.1.6-2.3-.2-.3-.7.2-1.1 1.1zM300.5 479c.3.5.8 1 1.1 1 .2 0 .4-.5.4-1 0-.6-.5-1-1.1-1-.5 0-.7.4-.4 1zM355 488c0 .5.5 1 1.1 1 .5 0 .7-.5.4-1-.3-.6-.8-1-1.1-1-.2 0-.4.4-.4 1zM31.7 196.2c-.5 1.4 1.9 4.2 2.7 3 .2-.4-.2-1.5-.9-2.5-.9-1.3-1.4-1.4-1.8-.5zM666.2 197c-1 1.6-1 2 .2 2 .7 0 1.6-.9 1.9-2 .3-1.1.2-2-.2-2-.3 0-1.2.9-1.9 2zM10.5 208.5c-1.5 3.7-1.7 3.8-2.9 2.2-1.3-1.6-1.4-1.6-2-.1-.3.9-.1 2.3.5 3.1.7.7.9 1.6.5 2-.8.9 2.4 4.4 3.5 3.7.5-.3.6.2.3 1-.4 1.1 0 1.3 1.8.9 1.3-.3 2.9-1 3.6-1.6.8-.7 1.8-.5 3 .7 2.2 1.9 4.6 2.1 3.8.3-.3-.6-.9-2-1.2-3-.4-.9-1-1.7-1.6-1.7-.5 0-.4-.9.2-2 .8-1.6.8-2-.4-2-.8 0-1.7-1.4-2.1-3-.5-2.4-1-2.9-2-2-1 .8-1.6.7-2.3-.6-.9-1.6-1.2-1.2-2.7 2.1zM686.5 207c-.3.5-1.2.7-1.9.4-1.4-.6-3 2.2-2 3.7.3.5-.2.9-1.2.9-1.1 0-1.5.6-1.1 2 .3 1.1 0 2-.6 2s-.7.3-.4.7c.4.3 0 1.5-1 2.5-2.3 2.6-.7 3.6 2.7 1.6 1.6-.9 3.2-1.3 3.5-.9.2.5 1.6 1.1 3 1.4 1.9.3 2.5.1 2.1-.9-.3-.8-.2-1.3.2-1.2 2 .4 4.2-1.6 3.7-3.3-.4-1.1-.2-1.9.4-1.9.6 0 1-1.1.9-2.5-.3-3-.6-3.1-2.4-.8-1.2 1.6-1.4 1.5-2.4-1.5-1.2-3.2-2.4-4-3.5-2.2zM10.6 261.8c-.4.6-.2 2.1.4 3.3 1.5 2.8 2.1 2 1.2-1.6-.5-1.8-1.1-2.5-1.6-1.7zM688.7 262.2c-1.9 5-1.9 5.4-.2 3.7.9-.9 1.5-2.5 1.3-3.5-.5-1.8-.5-1.8-1.1-.2zM39.5 283.2c-.4.9-2 1.9-3.7 2.2-1.7.3-2.8.9-2.5 1.3 1.1 1.1 5.6 1.2 6.3.2.3-.6 1.2-.5 2.1.3 1.4 1.1 1.5 1 .8-1.2-1-3.5-2.3-4.7-3-2.8zM658.1 285.1c-.9 2.8-.9 3 .5 1.9 1-.9 1.8-1 2.5-.3 1.2 1.2 6.1.5 5.3-.8-.3-.5-1.4-.9-2.5-.9s-2.2-.7-2.5-1.5c-.9-2.4-2.1-1.8-3.3 1.6zM27.8 360.8c-.3 1 .1 2.7.8 3.7 1.3 1.8 1.4 1.7 1.4-.8 0-1.5 0-3 .1-3.4.1-1.7-1.9-1.2-2.3.5zM670.2 362.5c.1 2 .5 3.2.9 2.8 1.5-1.6 1.4-6.3-.1-6.3-.5 0-.9 1.6-.8 3.5zM204.1 472.9c-1.2 1.1-1.8 2.2-1.2 2.5 1.6 1 4.1-.5 4.1-2.5 0-2.4-.2-2.4-2.9 0zM493.7 471.7c-1.2 1.2-.7 3.1 1 3.7 2.5 1 3.6-.8 1.5-2.7-1-.9-2.2-1.4-2.5-1zM210.8 474.2c-1.6 1.1-2.8 2.9-2.8 4 0 1.8.2 1.9 1.6.7 1.5-1.2 1.9-1.1 3.2.9l1.5 2.3 1.3-3.1c1.2-2.7 1.1-3.4-.4-5-1.7-1.8-1.8-1.8-4.4.2zM219.3 476.9c-1 1.5-.8 2.2.6 3.5 2.2 2 2.8 2 3.3-.2.3-.9-.3-2.5-1.2-3.4-1.5-1.6-1.6-1.6-2.7.1zM477.9 477.1c-1.3 1.3-1.4 2.1-.5 3.7 1.1 2 1.1 2 2.9-.4 1-1.3 1.4-2.4.8-2.4-.5 0-1.1-.6-1.3-1.3-.2-.9-.7-.8-1.9.4zM269 476.9c0 .5.5 1.3 1 1.6.6.3 1 .2 1-.4 0-.5-.4-1.3-1-1.6-.5-.3-1-.2-1 .4zM532.5 477c.3.5 1 1 1.6 1 .5 0 .9-.5.9-1 0-.6-.7-1-1.6-1-.8 0-1.2.4-.9 1zM164 484.2c-2 3.2-2.3 5.8-.5 5.8.9 0 1.2.6.9 1.5-.4.8-.2 1.5.3 1.5s.9-2.5.9-5.5 0-5.5-.1-5.5c0 0-.7 1-1.5 2.2zM534.5 487.7c0 3.6.5 5.2 2 6.5 1.1.9 2.4 1.3 2.9.8 1-1-.2-3.2-1.4-2.5-.5.3-1.2 0-1.6-.6-.3-.6-.1-1.5.7-2 1-.6 1.1-1.5.4-3.5-1.6-4.4-3-3.8-3 1.3zM161 493c-1 .6-1.1 1.3-.5 1.9.6.6 1.6.7 2.5.1 1-.6 1.1-1.3.5-1.9-.6-.6-1.6-.7-2.5-.1zM574.4 495.4c-1.3 1-2.3 1.1-3.1.4-1.7-1.4-1.7.3 0 2.5.9 1.3 2 1.6 4.5 1.1 3-.6 3.1-.8 1.7-2.4-.8-.9-1.2-2-.8-2.3 1.2-1.2-.3-.7-2.3.7zM594.8 496.2c-.7 1.8 2.8 7.3 3.7 5.9.3-.7-.2-2.5-1.3-4.2-1.3-2-2.1-2.6-2.4-1.7zM102.6 498.7c-1.2 1.7-1.5 2.8-.8 3.5.7.7 1.5.1 2.6-2 2-3.8.8-4.9-1.8-1.5zM582 499c-1.3.8-1.2 1 .3 1 .9 0 1.7-.5 1.7-1 0-1.2-.1-1.2-2 0zM300 502.5c0 1.6 1.6 2 2.4.6.3-.5-.1-1.1-.9-1.5-.9-.3-1.5 0-1.5.9zM474.7 509.8c-2.5 2.7-2.1 3.2 2.2 3.2 4.2 0 5.5 1 6.5 5.1.4 2.1.2 2.6-1.1 2.5-2.3-.2-2.8 2.3-.6 3.1 2.7 1 3.2 2.3 2.2 5.2-.9 2.5-.8 2.5.6.7.8-1.1 1.5-2.9 1.6-4 0-1.2.2-2.9.4-3.8.2-1 0-2-.5-2.3-.4-.2-.6-1.5-.4-2.7.5-2.5-.8-4.5-4.6-7.1-3.1-2.2-4.3-2.1-6.3.1zM471.4 521.1c-.9 1.6 2 4.1 3.9 3.3 2.1-.8 2.2-3 .1-3.8-2.3-.9-3.2-.7-4 .5z"/><path d="M478.5 528c-.3.5.1 1 .9 1 .9 0 1.6-.5 1.6-1 0-.6-.4-1-.9-1-.6 0-1.3.4-1.6 1zM478.7 531.7c.3.7.9 1.3 1.5 1.3.5 0 .7-.4.4-.9-.4-.5 0-1.1.6-1.4.7-.3.3-.4-.8-.4-1.4.1-2 .6-1.7 1.4zM458.7 538.7c-.4.3-.7 1.4-.7 2.3 0 .9-1.3 2.9-2.9 4.4-3 2.9-3.4 4.3-4.6 17.6l-.5 5.5 2.4-3.9c1.3-2.1 2.2-4.5 1.9-5.2-.7-1.8.8-1.8 3.3.1 1.7 1.3 1.7 1.4.2 1.5-1.6 0-1.6.2.2 2 1.9 1.9 1.9 2.1.3 6.2-2.4 6.1-6.4 11-8.5 10.4-2.2-.5-2.3.7-.4 2.4 1.2.9 2.4.2 6.4-3.8l4.9-5 2.9 2.3c2.8 2.2 3 2.2 5.9.7 1.7-1 3.1-1.7 3.2-1.7.1-.1-.9-4.3-2.3-9.5s-2.7-10.5-3-11.7c-.2-1.2-.9-3.5-1.5-5-1-2.6-1.2-2.7-1.9-.8-.7 1.5-.9 1.1-1-2-.1-5-2.5-8.7-4.3-6.8zM487.3 568.9c0 1.1.6 1.7 1.4 1.4 1.8-.7 1.7-3.3-.1-3.3-.8 0-1.4.8-1.3 1.9zM469.5 577c-.3.5-.2 1 .4 1 .5 0 1.3-.5 1.6-1 .3-.6.2-1-.4-1-.5 0-1.3.4-1.6 1zM469.6 580c-2 1.8-3.4 3.6-2.9 3.9.4.3.9 3.3 1 6.6.1 3.3.6 7.1 1.2 8.5.9 2.1 1 1.9.5-1.5-.4-2.2-.3-3.6.2-3.2.9.9 1.4 2.9 1.6 7 0 1.5.5 3 .9 3.3 1.1.6 12.9-7.3 12.9-8.7 0-1.8-5.8-12.4-8.7-15.8l-2.9-3.4-3.8 3.3zM525 585.5c-1.6 2.9-2 2.4 5.1 6.4 5.9 3.3 6.7 3.2 8.2-1.4.7-1.9.7-1.9-.7-.1-2.1 2.6-6 1.4-7.6-2.4-1.9-4.6-3.5-5.4-5-2.5z"/></svg>